STARTFONT 2.1
FONT -Adobe-Helvetica-Medium-R-Normal--24-240-75-75-P-130-ISO10646-1
SIZE 24 75 75
FONTBOUNDINGBOX 29 37 -3 -8
COMMENT $XFree86$
COMMENT ISO10646-1 extension by Markus Kuhn <mkuhn@acm.org>, 2001-03-20
COMMENT 
COMMENT +
COMMENT  Copyright 1984-1989, 1994 Adobe Systems Incorporated.
COMMENT  Copyright 1988, 1994 Digital Equipment Corporation.
COMMENT
COMMENT  Adobe is a trademark of Adobe Systems Incorporated which may be
COMMENT  registered in certain jurisdictions.
COMMENT  Permission to use these trademarks is hereby granted only in
COMMENT  association with the images described in this file.
COMMENT
COMMENT  Permission to use, copy, modify, distribute and sell this software
COMMENT  and its documentation for any purpose and without fee is hereby
COMMENT  granted, provided that the above copyright notices appear in all
COMMENT  copies and that both those copyright notices and this permission
COMMENT  notice appear in supporting documentation, and that the names of
COMMENT  Adobe Systems and Digital Equipment Corporation not be used in
COMMENT  advertising or publicity pertaining to distribution of the software
COMMENT  without specific, written prior permission.  Adobe Systems and
COMMENT  Digital Equipment Corporation make no representations about the
COMMENT  suitability of this software for any purpose.  It is provided "as
COMMENT  is" without express or implied warranty.
COMMENT -
STARTPROPERTIES 26
FOUNDRY "Adobe"
FAMILY_NAME "Helvetica"
WEIGHT_NAME "Medium"
SLANT "R"
SETWIDTH_NAME "Normal"
ADD_STYLE_NAME ""
PIXEL_SIZE 24
POINT_SIZE 240
RESOLUTION_X 75
RESOLUTION_Y 75
SPACING "P"
AVERAGE_WIDTH 130
CHARSET_REGISTRY "ISO10646"
CHARSET_ENCODING "1"
CAP_HEIGHT 19
X_HEIGHT 14
FONT_ASCENT 22
FONT_DESCENT 5
FACE_NAME "Helvetica"
COPYRIGHT "Copyright (c) 1984, 1987 Adobe Systems Incorporated. All Rights Reserved. Copyright (c) 1988, 1991 Digital Equipment Corporation. All Rights Reserved."

STARTCHAR char0
ENCODING 0
SWIDTH 722 0
DWIDTH 18 0
BBX 13 19 2 0
BITMAP
AAA8
0000
8008
0000
8008
0000
8008
0000
8008
0000
8008
0000
8008
0000
8008
0000
8008
0000
AAA8
ENDCHAR
STARTCHAR space
ENCODING 32
SWIDTH 278 0
DWIDTH 6 0
BBX 1 1 0 0
BITMAP
00
ENDCHAR
STARTCHAR exclam
ENCODING 33
SWIDTH 278 0
DWIDTH 6 0
BBX 2 19 2 0
BITMAP
C0
C0
C0
C0
C0
C0
C0
C0
C0
C0
C0
C0
80
80
00
00
C0
C0
C0
ENDCHAR
STARTCHAR quotedbl
ENCODING 34
SWIDTH 355 0
DWIDTH 8 0
BBX 6 6 1 13
BITMAP
CC
CC
CC
CC
CC
44
ENDCHAR
STARTCHAR numbersign
ENCODING 35
SWIDTH 556 0
DWIDTH 14 0
BBX 11 17 2 0
BITMAP
0CC0
0CC0
0CC0
1980
FFE0
FFE0
1980
1980
3300
3300
FFE0
FFE0
3300
3300
6600
6600
6600
ENDCHAR
STARTCHAR dollar
ENCODING 36
SWIDTH 556 0
DWIDTH 13 0
BBX 11 21 1 -2
BITMAP
0600
0600
3F80
7FC0
E6E0
C660
C600
E600
7600
3E00
0F80
07C0
06E0
0660
C660
C660
E6E0
7FC0
3F80
0600
0600
ENDCHAR
STARTCHAR percent
ENCODING 37
SWIDTH 889 0
DWIDTH 22 0
BBX 19 18 1 0
BITMAP
000600
3C0C00
7E0C00
C31800
C31800
C33000
C33000
7E6000
3C6000
00C000
00C780
018FC0
019860
031860
031860
061860
060FC0
040780
ENDCHAR
STARTCHAR ampersand
ENCODING 38
SWIDTH 667 0
DWIDTH 17 0
BBX 14 18 1 0
BITMAP
0F00
1F80
39C0
30C0
30C0
30C0
1980
0F00
1E00
3F18
7398
61D8
C0F0
C060
C0F0
E1D8
7F9C
1E00
ENDCHAR
STARTCHAR quotesingle
ENCODING 39
SWIDTH 191 0
DWIDTH 6 0
BBX 2 6 2 13
BITMAP
C0
C0
C0
C0
C0
40
ENDCHAR
STARTCHAR parenleft
ENCODING 40
SWIDTH 333 0
DWIDTH 8 0
BBX 5 24 2 -5
BITMAP
18
18
30
30
60
60
60
C0
C0
C0
C0
C0
C0
C0
C0
C0
C0
60
60
60
30
30
18
18
ENDCHAR
STARTCHAR parenright
ENCODING 41
SWIDTH 333 0
DWIDTH 8 0
BBX 5 24 1 -5
BITMAP
C0
C0
60
60
30
30
30
18
18
18
18
18
18
18
18
18
18
30
30
30
60
60
C0
C0
ENDCHAR
STARTCHAR asterisk
ENCODING 42
SWIDTH 389 0
DWIDTH 10 0
BBX 7 7 1 12
BITMAP
10
10
D6
7C
38
6C
44
ENDCHAR
STARTCHAR plus
ENCODING 43
SWIDTH 584 0
DWIDTH 14 0
BBX 12 12 1 1
BITMAP
0600
0600
0600
0600
0600
FFF0
FFF0
0600
0600
0600
0600
0600
ENDCHAR
STARTCHAR comma
ENCODING 44
SWIDTH 278 0
DWIDTH 6 0
BBX 2 6 2 -3
BITMAP
C0
C0
C0
40
40
80
ENDCHAR
STARTCHAR hyphen
ENCODING 45
SWIDTH 333 0
DWIDTH 8 0
BBX 6 2 1 6
BITMAP
FC
FC
ENDCHAR
STARTCHAR period
ENCODING 46
SWIDTH 278 0
DWIDTH 6 0
BBX 2 3 2 0
BITMAP
C0
C0
C0
ENDCHAR
STARTCHAR slash
ENCODING 47
SWIDTH 278 0
DWIDTH 7 0
BBX 7 19 0 0
BITMAP
06
06
06
0C
0C
0C
18
18
18
18
30
30
30
60
60
60
C0
C0
C0
ENDCHAR
STARTCHAR zero
ENCODING 48
SWIDTH 556 0
DWIDTH 13 0
BBX 11 18 1 0
BITMAP
1F00
3F80
71C0
60C0
60C0
C060
C060
C060
C060
C060
C060
C060
C060
60C0
60C0
71C0
3F80
1F00
ENDCHAR
STARTCHAR one
ENCODING 49
SWIDTH 556 0
DWIDTH 13 0
BBX 6 18 2 0
BITMAP
0C
0C
1C
FC
FC
0C
0C
0C
0C
0C
0C
0C
0C
0C
0C
0C
0C
0C
ENDCHAR
STARTCHAR two
ENCODING 50
SWIDTH 556 0
DWIDTH 13 0
BBX 11 18 1 0
BITMAP
1E00
7F80
61C0
C0C0
C060
C060
0060
00C0
01C0
0380
0F00
1C00
3800
7000
E000
C000
FFE0
FFE0
ENDCHAR
STARTCHAR three
ENCODING 51
SWIDTH 556 0
DWIDTH 13 0
BBX 11 18 1 0
BITMAP
1F00
7F80
6180
C0C0
C0C0
C0C0
00C0
0180
0F00
0FC0
00C0
0060
0060
C060
C0C0
61C0
7F80
1F00
ENDCHAR
STARTCHAR four
ENCODING 52
SWIDTH 556 0
DWIDTH 13 0
BBX 11 18 1 0
BITMAP
0180
0380
0380
0780
0F80
0D80
1980
3980
3180
6180
E180
C180
FFE0
FFE0
0180
0180
0180
0180
ENDCHAR
STARTCHAR five
ENCODING 53
SWIDTH 556 0
DWIDTH 13 0
BBX 11 18 1 0
BITMAP
7FC0
7FC0
6000
6000
6000
6000
6E00
7F80
71C0
00C0
0060
0060
0060
C060
C0C0
E1C0
7F80
1E00
ENDCHAR
STARTCHAR six
ENCODING 54
SWIDTH 556 0
DWIDTH 13 0
BBX 11 18 1 0
BITMAP
0F00
3FC0
70C0
6060
E060
C000
C000
CF00
DF80
F1C0
E0C0
C060
C060
C060
E060
60C0
7FC0
1F00
ENDCHAR
STARTCHAR seven
ENCODING 55
SWIDTH 556 0
DWIDTH 13 0
BBX 11 18 1 0
BITMAP
FFE0
FFE0
00E0
00C0
0180
0180
0300
0300
0600
0600
0C00
0C00
1C00
1800
1800
3800
3000
3000
ENDCHAR
STARTCHAR eight
ENCODING 56
SWIDTH 556 0
DWIDTH 13 0
BBX 11 18 1 0
BITMAP
0E00
3F80
3180
60C0
60C0
60C0
60C0
3180
1F00
3F80
60C0
E0E0
C060
C060
C060
71C0
7FC0
1F00
ENDCHAR
STARTCHAR nine
ENCODING 57
SWIDTH 556 0
DWIDTH 13 0
BBX 11 18 1 0
BITMAP
1F00
7FC0
71C0
E0C0
C060
C060
C060
C060
E0E0
71E0
7F60
1E60
0060
00E0
C0C0
E1C0
7F80
1E00
ENDCHAR
STARTCHAR colon
ENCODING 58
SWIDTH 278 0
DWIDTH 6 0
BBX 2 14 2 0
BITMAP
C0
C0
C0
00
00
00
00
00
00
00
00
C0
C0
C0
ENDCHAR
STARTCHAR semicolon
ENCODING 59
SWIDTH 278 0
DWIDTH 6 0
BBX 2 17 2 -3
BITMAP
C0
C0
C0
00
00
00
00
00
00
00
00
C0
C0
C0
40
40
80
ENDCHAR
STARTCHAR less
ENCODING 60
SWIDTH 584 0
DWIDTH 15 0
BBX 12 12 1 1
BITMAP
0030
00F0
03C0
0F00
3C00
E000
E000
3C00
0F00
03C0
00F0
0030
ENDCHAR
STARTCHAR equal
ENCODING 61
SWIDTH 584 0
DWIDTH 15 0
BBX 10 6 2 5
BITMAP
FFC0
FFC0
0000
0000
FFC0
FFC0
ENDCHAR
STARTCHAR greater
ENCODING 62
SWIDTH 584 0
DWIDTH 15 0
BBX 12 12 1 1
BITMAP
C000
F000
3C00
0F00
03C0
0070
0070
03C0
0F00
3C00
F000
C000
ENDCHAR
STARTCHAR question
ENCODING 63
SWIDTH 556 0
DWIDTH 12 0
BBX 10 19 1 0
BITMAP
1F00
7F80
71C0
E0C0
C0C0
C1C0
0180
0380
0700
0600
0C00
0C00
0C00
0C00
0000
0000
0C00
0C00
0C00
ENDCHAR
STARTCHAR at
ENCODING 64
SWIDTH 1015 0
DWIDTH 25 0
BBX 22 23 2 -4
BITMAP
00FF00
03FFC0
0F01E0
1C0070
380018
300018
60730C
60FB0C
C1C70C
C3860C
C3060C
C6060C
C60C1C
C60C18
C60C38
E71C70
63F7E0
71E380
380000
1C0000
0F0300
07FF00
00FC00
ENDCHAR
STARTCHAR A
ENCODING 65
SWIDTH 667 0
DWIDTH 17 0
BBX 15 19 1 0
BITMAP
0380
0380
06C0
06C0
0C40
0C60
0C60
1830
1830
1830
3018
3FF8
3FF8
600C
600C
600C
C006
C006
C006
ENDCHAR
STARTCHAR B
ENCODING 66
SWIDTH 667 0
DWIDTH 17 0
BBX 14 19 2 0
BITMAP
FFC0
FFF0
C070
C018
C018
C018
C018
C030
FFE0
FFF0
C018
C00C
C00C
C00C
C00C
C01C
C038
FFF0
FFC0
ENDCHAR
STARTCHAR C
ENCODING 67
SWIDTH 722 0
DWIDTH 18 0
BBX 16 19 1 0
BITMAP
07E0
1FF8
3C3C
700E
6006
E006
C000
C000
C000
C000
C000
C000
C003
E003
6006
700E
3C3C
1FF8
07E0
ENDCHAR
STARTCHAR D
ENCODING 68
SWIDTH 722 0
DWIDTH 18 0
BBX 15 19 2 0
BITMAP
FFC0
FFF0
C078
C01C
C00C
C00E
C006
C006
C006
C006
C006
C006
C006
C00E
C00C
C01C
C078
FFF0
FFC0
ENDCHAR
STARTCHAR E
ENCODING 69
SWIDTH 667 0
DWIDTH 16 0
BBX 12 19 2 0
BITMAP
FFF0
FFF0
C000
C000
C000
C000
C000
C000
FFE0
FFE0
C000
C000
C000
C000
C000
C000
C000
FFF0
FFF0
ENDCHAR
STARTCHAR F
ENCODING 70
SWIDTH 611 0
DWIDTH 14 0
BBX 11 19 2 0
BITMAP
FFE0
FFE0
C000
C000
C000
C000
C000
C000
C000
FFC0
FFC0
C000
C000
C000
C000
C000
C000
C000
C000
ENDCHAR
STARTCHAR G
ENCODING 71
SWIDTH 778 0
DWIDTH 19 0
BBX 16 19 1 0
BITMAP
07E0
1FF8
3C3C
700E
6006
E006
C000
C000
C000
C07F
C07F
C003
C003
E003
6007
700F
3C3F
1FFB
07E3
ENDCHAR
STARTCHAR H
ENCODING 72
SWIDTH 722 0
DWIDTH 18 0
BBX 14 19 2 0
BITMAP
C00C
C00C
C00C
C00C
C00C
C00C
C00C
C00C
FFFC
FFFC
C00C
C00C
C00C
C00C
C00C
C00C
C00C
C00C
C00C
ENDCHAR
STARTCHAR I
ENCODING 73
SWIDTH 278 0
DWIDTH 8 0
BBX 2 19 3 0
BITMAP
C0
C0
C0
C0
C0
C0
C0
C0
C0
C0
C0
C0
C0
C0
C0
C0
C0
C0
C0
ENDCHAR
STARTCHAR J
ENCODING 74
SWIDTH 500 0
DWIDTH 13 0
BBX 10 19 1 0
BITMAP
00C0
00C0
00C0
00C0
00C0
00C0
00C0
00C0
00C0
00C0
00C0
00C0
C0C0
C0C0
C0C0
C0C0
6180
7F80
3F00
ENDCHAR
STARTCHAR K
ENCODING 75
SWIDTH 667 0
DWIDTH 18 0
BBX 15 19 2 0
BITMAP
C038
C070
C0E0
C1C0
C380
C700
CE00
DC00
FC00
FE00
E700
C380
C1C0
C0E0
C070
C038
C01C
C00E
C006
ENDCHAR
STARTCHAR L
ENCODING 76
SWIDTH 556 0
DWIDTH 14 0
BBX 11 19 2 0
BITMAP
C000
C000
C000
C000
C000
C000
C000
C000
C000
C000
C000
C000
C000
C000
C000
C000
C000
FFE0
FFE0
ENDCHAR
STARTCHAR M
ENCODING 77
SWIDTH 833 0
DWIDTH 21 0
BBX 17 19 2 0
BITMAP
C00180
E00380
E00380
F00780
F00780
D80D80
D80D80
D80D80
CC1980
CC1980
CC1980
C63180
C63180
C63180
C36180
C36180
C36180
C1C180
C1C180
ENDCHAR
STARTCHAR N
ENCODING 78
SWIDTH 722 0
DWIDTH 18 0
BBX 14 19 2 0
BITMAP
E00C
F00C
F00C
D80C
DC0C
CC0C
CE0C
C60C
C70C
C30C
C38C
C18C
C1CC
C0CC
C0EC
C06C
C03C
C03C
C01C
ENDCHAR
STARTCHAR O
ENCODING 79
SWIDTH 778 0
DWIDTH 18 0
BBX 16 19 1 0
BITMAP
07E0
1FF8
3C3C
700E
6006
E007
C003
C003
C003
C003
C003
C003
C003
E007
6006
700E
3C3C
1FF8
07E0
ENDCHAR
STARTCHAR P
ENCODING 80
SWIDTH 667 0
DWIDTH 16 0
BBX 13 19 2 0
BITMAP
FFE0
FFF0
C030
C018
C018
C018
C018
C030
FFF0
FFE0
C000
C000
C000
C000
C000
C000
C000
C000
C000
ENDCHAR
STARTCHAR Q
ENCODING 81
SWIDTH 778 0
DWIDTH 18 0
BBX 16 19 1 0
BITMAP
07E0
1FF8
3C3C
700E
6006
E007
C003
C003
C003
C003
C003
C003
C003
E007
60E6
707E
3C1C
1FFE
07E7
ENDCHAR
STARTCHAR R
ENCODING 82
SWIDTH 722 0
DWIDTH 17 0
BBX 13 19 2 0
BITMAP
FFE0
FFF0
C030
C018
C018
C018
C018
C030
FFF0
FFE0
C070
C030
C018
C018
C018
C018
C018
C018
C018
ENDCHAR
STARTCHAR S
ENCODING 83
SWIDTH 667 0
DWIDTH 16 0
BBX 14 19 1 0
BITMAP
07C0
1FF0
3838
7018
6018
6000
7000
3E00
0FC0
01F0
0078
001C
000C
C00C
C00C
E01C
7838
3FF0
0FC0
ENDCHAR
STARTCHAR T
ENCODING 84
SWIDTH 611 0
DWIDTH 16 0
BBX 14 19 1 0
BITMAP
FFFC
FFFC
0300
0300
0300
0300
0300
0300
0300
0300
0300
0300
0300
0300
0300
0300
0300
0300
0300
ENDCHAR
STARTCHAR U
ENCODING 85
SWIDTH 722 0
DWIDTH 18 0
BBX 14 19 2 0
BITMAP
C00C
C00C
C00C
C00C
C00C
C00C
C00C
C00C
C00C
C00C
C00C
C00C
C00C
C00C
C00C
6018
7038
3FF0
0FC0
ENDCHAR
STARTCHAR V
ENCODING 86
SWIDTH 667 0
DWIDTH 17 0
BBX 15 19 1 0
BITMAP
C006
C006
E00E
600C
701C
3018
3018
3838
1830
1830
1C70
0C60
0C60
0EE0
06C0
06C0
0380
0380
0380
ENDCHAR
STARTCHAR W
ENCODING 87
SWIDTH 944 0
DWIDTH 22 0
BBX 20 19 1 0
BITMAP
C06030
C06030
C06030
C0F030
60F060
619860
619860
619860
619860
3198C0
330CC0
330CC0
330CC0
1B0D80
1B0D80
1E0780
0E0700
0C0300
0C0300
ENDCHAR
STARTCHAR X
ENCODING 88
SWIDTH 667 0
DWIDTH 17 0
BBX 15 19 1 0
BITMAP
C006
E00E
701C
3018
1830
1C70
0EE0
07C0
0380
0380
07C0
0EE0
0C60
1C70
3838
3018
600C
E00E
C006
ENDCHAR
STARTCHAR Y
ENCODING 89
SWIDTH 667 0
DWIDTH 16 0
BBX 14 19 1 0
BITMAP
C00C
E01C
6018
7038
3030
3870
1860
1CE0
0CC0
0FC0
0780
0780
0300
0300
0300
0300
0300
0300
0300
ENDCHAR
STARTCHAR Z
ENCODING 90
SWIDTH 611 0
DWIDTH 15 0
BBX 13 19 1 0
BITMAP
FFF8
FFF8
0038
0070
00E0
01C0
01C0
0380
0700
0700
0E00
1C00
1C00
3800
7000
7000
E000
FFF8
FFF8
ENDCHAR
STARTCHAR bracketleft
ENCODING 91
SWIDTH 278 0
DWIDTH 7 0
BBX 4 24 2 -5
BITMAP
F0
F0
C0
C0
C0
C0
C0
C0
C0
C0
C0
C0
C0
C0
C0
C0
C0
C0
C0
C0
C0
C0
F0
F0
ENDCHAR
STARTCHAR backslash
ENCODING 92
SWIDTH 278 0
DWIDTH 7 0
BBX 7 19 0 0
BITMAP
C0
C0
C0
60
60
60
30
30
30
30
18
18
18
0C
0C
0C
06
06
06
ENDCHAR
STARTCHAR bracketright
ENCODING 93
SWIDTH 278 0
DWIDTH 7 0
BBX 4 24 1 -5
BITMAP
F0
F0
30
30
30
30
30
30
30
30
30
30
30
30
30
30
30
30
30
30
30
30
F0
F0
ENDCHAR
STARTCHAR asciicircum
ENCODING 94
SWIDTH 469 0
DWIDTH 12 0
BBX 10 9 1 10
BITMAP
0C00
0C00
1E00
1200
3300
6180
6180
C0C0
C0C0
ENDCHAR
STARTCHAR underscore
ENCODING 95
SWIDTH 556 0
DWIDTH 14 0
BBX 14 2 0 -5
BITMAP
FFFC
FFFC
ENDCHAR
STARTCHAR grave
ENCODING 96
SWIDTH 333 0
DWIDTH 7 0
BBX 5 4 1 15
BITMAP
C0
60
30
18
ENDCHAR
STARTCHAR a
ENCODING 97
SWIDTH 556 0
DWIDTH 13 0
BBX 11 14 1 0
BITMAP
1F00
3F80
61C0
60C0
00C0
07C0
3FC0
78C0
E0C0
C0C0
C1C0
E3C0
7EE0
3C60
ENDCHAR
STARTCHAR b
ENCODING 98
SWIDTH 556 0
DWIDTH 14 0
BBX 11 19 2 0
BITMAP
C000
C000
C000
C000
C000
CF00
DF80
F1C0
E0C0
C060
C060
C060
C060
C060
C060
E0C0
F1C0
DF80
CF00
ENDCHAR
STARTCHAR c
ENCODING 99
SWIDTH 500 0
DWIDTH 12 0
BBX 10 14 1 0
BITMAP
1F00
3F80
71C0
60C0
C000
C000
C000
C000
C000
C000
60C0
71C0
3F80
1F00
ENDCHAR
STARTCHAR d
ENCODING 100
SWIDTH 556 0
DWIDTH 14 0
BBX 11 19 1 0
BITMAP
0060
0060
0060
0060
0060
1E60
3F60
71E0
60E0
C060
C060
C060
C060
C060
C060
60E0
71E0
3F60
1E60
ENDCHAR
STARTCHAR e
ENCODING 101
SWIDTH 556 0
DWIDTH 13 0
BBX 11 14 1 0
BITMAP
0E00
3F80
71C0
60C0
C060
C060
FFE0
FFE0
C000
C000
6060
70E0
3FC0
0F00
ENDCHAR
STARTCHAR f
ENCODING 102
SWIDTH 278 0
DWIDTH 8 0
BBX 6 19 1 0
BITMAP
1C
3C
30
30
30
FC
FC
30
30
30
30
30
30
30
30
30
30
30
30
ENDCHAR
STARTCHAR g
ENCODING 103
SWIDTH 556 0
DWIDTH 14 0
BBX 11 19 1 -5
BITMAP
1E60
3F60
71E0
60E0
C060
C060
C060
C060
C060
C060
60E0
71E0
3F60
1E60
0060
C060
E0C0
7FC0
1F00
ENDCHAR
STARTCHAR h
ENCODING 104
SWIDTH 556 0
DWIDTH 13 0
BBX 10 19 2 0
BITMAP
C000
C000
C000
C000
C000
CE00
DF80
F180
E0C0
C0C0
C0C0
C0C0
C0C0
C0C0
C0C0
C0C0
C0C0
C0C0
C0C0
ENDCHAR
STARTCHAR i
ENCODING 105
SWIDTH 222 0
DWIDTH 6 0
BBX 2 19 2 0
BITMAP
C0
C0
C0
00
00
C0
C0
C0
C0
C0
C0
C0
C0
C0
C0
C0
C0
C0
C0
ENDCHAR
STARTCHAR j
ENCODING 106
SWIDTH 222 0
DWIDTH 6 0
BBX 4 24 0 -5
BITMAP
30
30
30
00
00
30
30
30
30
30
30
30
30
30
30
30
30
30
30
30
30
30
F0
E0
ENDCHAR
STARTCHAR k
ENCODING 107
SWIDTH 500 0
DWIDTH 12 0
BBX 10 19 2 0
BITMAP
C000
C000
C000
C000
C000
C180
C380
C700
CE00
DC00
F800
FC00
CE00
C600
C700
C380
C180
C1C0
C0C0
ENDCHAR
STARTCHAR l
ENCODING 108
SWIDTH 222 0
DWIDTH 6 0
BBX 2 19 2 0
BITMAP
C0
C0
C0
C0
C0
C0
C0
C0
C0
C0
C0
C0
C0
C0
C0
C0
C0
C0
C0
ENDCHAR
STARTCHAR m
ENCODING 109
SWIDTH 833 0
DWIDTH 20 0
BBX 16 14 2 0
BITMAP
CE3C
FF7E
E3C7
C183
C183
C183
C183
C183
C183
C183
C183
C183
C183
C183
ENDCHAR
STARTCHAR n
ENCODING 110
SWIDTH 556 0
DWIDTH 14 0
BBX 10 14 2 0
BITMAP
CE00
DF80
F180
E0C0
C0C0
C0C0
C0C0
C0C0
C0C0
C0C0
C0C0
C0C0
C0C0
C0C0
ENDCHAR
STARTCHAR o
ENCODING 111
SWIDTH 556 0
DWIDTH 13 0
BBX 11 14 1 0
BITMAP
1F00
3F80
71C0
60C0
C060
C060
C060
C060
C060
C060
60C0
71C0
3F80
1F00
ENDCHAR
STARTCHAR p
ENCODING 112
SWIDTH 556 0
DWIDTH 14 0
BBX 11 19 2 -5
BITMAP
CF00
DF80
F1C0
E0C0
C060
C060
C060
C060
C060
C060
E0C0
F1C0
DF80
CF00
C000
C000
C000
C000
C000
ENDCHAR
STARTCHAR q
ENCODING 113
SWIDTH 556 0
DWIDTH 14 0
BBX 11 19 1 -5
BITMAP
1E60
3F60
71E0
60E0
C060
C060
C060
C060
C060
C060
60E0
71E0
3F60
1E60
0060
0060
0060
0060
0060
ENDCHAR
STARTCHAR r
ENCODING 114
SWIDTH 333 0
DWIDTH 9 0
BBX 6 14 2 0
BITMAP
CC
DC
FC
E0
C0
C0
C0
C0
C0
C0
C0
C0
C0
C0
ENDCHAR
STARTCHAR s
ENCODING 115
SWIDTH 500 0
DWIDTH 12 0
BBX 10 14 1 0
BITMAP
3E00
7F80
E1C0
C0C0
C000
F800
7F00
0F80
01C0
00C0
C0C0
C1C0
FF80
3F00
ENDCHAR
STARTCHAR t
ENCODING 116
SWIDTH 278 0
DWIDTH 8 0
BBX 6 18 1 0
BITMAP
30
30
30
30
FC
FC
30
30
30
30
30
30
30
30
30
30
3C
1C
ENDCHAR
STARTCHAR u
ENCODING 117
SWIDTH 556 0
DWIDTH 14 0
BBX 10 14 2 0
BITMAP
C0C0
C0C0
C0C0
C0C0
C0C0
C0C0
C0C0
C0C0
C0C0
C0C0
C1C0
63C0
7EC0
1CC0
ENDCHAR
STARTCHAR v
ENCODING 118
SWIDTH 500 0
DWIDTH 13 0
BBX 11 14 1 0
BITMAP
C060
C060
C060
60C0
60C0
71C0
3180
3180
1B00
1B00
1B00
0E00
0E00
0E00
ENDCHAR
STARTCHAR w
ENCODING 119
SWIDTH 722 0
DWIDTH 18 0
BBX 18 14 0 0
BITMAP
C0C0C0
C0C0C0
61E180
61E180
61E180
312300
333300
333300
1B3600
1A1600
1E1E00
0E1C00
0C0C00
0C0C00
ENDCHAR
STARTCHAR x
ENCODING 120
SWIDTH 500 0
DWIDTH 12 0
BBX 10 14 1 0
BITMAP
C0C0
E1C0
6180
3300
3F00
1E00
0C00
1E00
1E00
3300
7380
6180
E1C0
C0C0
ENDCHAR
STARTCHAR y
ENCODING 121
SWIDTH 500 0
DWIDTH 13 0
BBX 12 19 0 -5
BITMAP
C030
C030
6030
7060
3060
38E0
18C0
18C0
0D80
0D80
0780
0700
0300
0300
0600
0600
0C00
3C00
3800
ENDCHAR
STARTCHAR z
ENCODING 122
SWIDTH 500 0
DWIDTH 12 0
BBX 10 14 1 0
BITMAP
FFC0
FFC0
0180
0300
0700
0E00
0C00
1C00
3800
3000
6000
E000
FFC0
FFC0
ENDCHAR
STARTCHAR braceleft
ENCODING 123
SWIDTH 334 0
DWIDTH 8 0
BBX 6 24 1 -5
BITMAP
0C
18
30
30
30
30
30
30
30
30
60
C0
C0
60
30
30
30
30
30
30
30
30
18
0C
ENDCHAR
STARTCHAR bar
ENCODING 124
SWIDTH 260 0
DWIDTH 6 0
BBX 2 24 2 -5
BITMAP
C0
C0
C0
C0
C0
C0
C0
C0
C0
C0
C0
C0
C0
C0
C0
C0
C0
C0
C0
C0
C0
C0
C0
C0
ENDCHAR
STARTCHAR braceright
ENCODING 125
SWIDTH 334 0
DWIDTH 8 0
BBX 6 24 1 -5
BITMAP
C0
60
30
30
30
30
30
30
30
30
18
0C
0C
18
30
30
30
30
30
30
30
30
60
C0
ENDCHAR
STARTCHAR asciitilde
ENCODING 126
SWIDTH 584 0
DWIDTH 14 0
BBX 10 4 2 5
BITMAP
70C0
FCC0
CFC0
C380
ENDCHAR
STARTCHAR space
ENCODING 160
SWIDTH 278 0
DWIDTH 6 0
BBX 1 1 0 0
BITMAP
00
ENDCHAR
STARTCHAR exclamdown
ENCODING 161
SWIDTH 333 0
DWIDTH 6 0
BBX 2 19 2 -5
BITMAP
C0
C0
C0
00
00
40
40
C0
C0
C0
C0
C0
C0
C0
C0
C0
C0
C0
C0
ENDCHAR
STARTCHAR cent
ENCODING 162
SWIDTH 556 0
DWIDTH 13 0
BBX 10 18 1 -2
BITMAP
0180
0180
1F00
3F80
73C0
66C0
C600
CC00
CC00
CC00
D800
D800
D8C0
71C0
7F80
3F00
6000
6000
ENDCHAR
STARTCHAR sterling
ENCODING 163
SWIDTH 556 0
DWIDTH 14 0
BBX 12 18 1 0
BITMAP
1F80
3FE0
7070
6030
6000
7000
3000
1800
FF80
FF80
1800
1800
1800
3000
3000
6730
FFF0
F0E0
ENDCHAR
STARTCHAR currency
ENCODING 164
SWIDTH 556 0
DWIDTH 13 0
BBX 11 12 1 3
BITMAP
C060
EEE0
7FC0
3180
60C0
60C0
60C0
60C0
3180
7FC0
EEE0
C060
ENDCHAR
STARTCHAR yen
ENCODING 165
SWIDTH 556 0
DWIDTH 14 0
BBX 14 18 0 0
BITMAP
E01C
6018
7038
3030
3870
1860
1CE0
0CC0
3FF0
3FF0
0300
3FF0
3FF0
0300
0300
0300
0300
0300
ENDCHAR
STARTCHAR brokenbar
ENCODING 166
SWIDTH 260 0
DWIDTH 6 0
BBX 2 23 2 -4
BITMAP
C0
C0
C0
C0
C0
C0
C0
C0
C0
00
00
00
00
00
C0
C0
C0
C0
C0
C0
C0
C0
C0
ENDCHAR
STARTCHAR section
ENCODING 167
SWIDTH 556 0
DWIDTH 13 0
BBX 11 24 1 -5
BITMAP
1F00
3F80
71C0
60C0
70C0
3800
1C00
7E00
E700
C380
C1C0
C0C0
6060
7060
3860
1CC0
0F80
0700
0380
61C0
60C0
71C0
3F80
1F00
ENDCHAR
STARTCHAR dieresis
ENCODING 168
SWIDTH 333 0
DWIDTH 8 0
BBX 6 2 1 16
BITMAP
CC
CC
ENDCHAR
STARTCHAR copyright
ENCODING 169
SWIDTH 737 0
DWIDTH 19 0
BBX 17 17 1 0
BITMAP
07F000
1C1C00
300600
600300
43E100
C63180
8C1080
880080
880080
880080
8C1080
C63180
43E100
600300
300600
1C1C00
07F000
ENDCHAR
STARTCHAR ordfeminine
ENCODING 170
SWIDTH 370 0
DWIDTH 9 0
BBX 7 12 1 7
BITMAP
78
CC
CC
0C
7C
CC
CC
DC
76
00
FE
FE
ENDCHAR
STARTCHAR guillemotleft
ENCODING 171
SWIDTH 556 0
DWIDTH 14 0
BBX 9 8 2 3
BITMAP
1980
3300
6600
CC00
CC00
6600
3300
1980
ENDCHAR
STARTCHAR logicalnot
ENCODING 172
SWIDTH 584 0
DWIDTH 15 0
BBX 13 8 1 3
BITMAP
FFF8
FFF8
0018
0018
0018
0018
0018
0018
ENDCHAR
STARTCHAR hyphen
ENCODING 173
SWIDTH 333 0
DWIDTH 8 0
BBX 6 2 1 6
BITMAP
FC
FC
ENDCHAR
STARTCHAR registered
ENCODING 174
SWIDTH 737 0
DWIDTH 19 0
BBX 17 17 1 0
BITMAP
07F000
1C1C00
300600
600300
43E100
C21180
821080
821080
83E080
824080
822080
C22180
421100
600300
300600
1C1C00
07F000
ENDCHAR
STARTCHAR macron
ENCODING 175
SWIDTH 333 0
DWIDTH 8 0
BBX 6 2 1 16
BITMAP
FC
FC
ENDCHAR
STARTCHAR degree
ENCODING 176
SWIDTH 400 0
DWIDTH 9 0
BBX 8 7 0 11
BITMAP
3C
66
C3
C3
C3
66
3C
ENDCHAR
STARTCHAR plusminus
ENCODING 177
SWIDTH 584 0
DWIDTH 14 0
BBX 12 13 1 0
BITMAP
0600
0600
0600
0600
FFF0
FFF0
0600
0600
0600
0600
0000
FFF0
FFF0
ENDCHAR
STARTCHAR twosuperior
ENCODING 178
SWIDTH 333 0
DWIDTH 7 0
BBX 7 10 0 8
BITMAP
3C
7E
C6
06
0C
18
30
60
FE
FE
ENDCHAR
STARTCHAR threesuperior
ENCODING 179
SWIDTH 333 0
DWIDTH 7 0
BBX 7 10 0 8
BITMAP
7C
FE
C6
06
3C
3C
06
C6
FE
7C
ENDCHAR
STARTCHAR acute
ENCODING 180
SWIDTH 333 0
DWIDTH 7 0
BBX 5 4 1 15
BITMAP
18
30
60
C0
ENDCHAR
STARTCHAR mu
ENCODING 181
SWIDTH 556 0
DWIDTH 14 0
BBX 10 19 2 -5
BITMAP
C0C0
C0C0
C0C0
C0C0
C0C0
C0C0
C0C0
C0C0
C0C0
C0C0
C1C0
E3C0
FEC0
DCC0
C000
C000
C000
C000
C000
ENDCHAR
STARTCHAR paragraph
ENCODING 182
SWIDTH 537 0
DWIDTH 12 0
BBX 10 23 1 -4
BITMAP
1FC0
7FC0
7980
F980
F980
F980
F980
F980
F980
7980
7980
3980
1980
1980
1980
1980
1980
1980
1980
1980
1980
1980
1980
ENDCHAR
STARTCHAR periodcentered
ENCODING 183
SWIDTH 278 0
DWIDTH 6 0
BBX 2 3 2 6
BITMAP
C0
C0
C0
ENDCHAR
STARTCHAR cedilla
ENCODING 184
SWIDTH 333 0
DWIDTH 7 0
BBX 5 6 1 -5
BITMAP
60
70
18
18
F8
70
ENDCHAR
STARTCHAR onesuperior
ENCODING 185
SWIDTH 333 0
DWIDTH 7 0
BBX 4 10 1 8
BITMAP
30
30
F0
F0
30
30
30
30
30
30
ENDCHAR
STARTCHAR ordmasculine
ENCODING 186
SWIDTH 365 0
DWIDTH 9 0
BBX 7 12 1 7
BITMAP
38
6C
C6
C6
C6
C6
C6
6C
38
00
FE
FE
ENDCHAR
STARTCHAR guillemotright
ENCODING 187
SWIDTH 556 0
DWIDTH 14 0
BBX 9 8 3 3
BITMAP
CC00
6600
3300
1980
1980
3300
6600
CC00
ENDCHAR
STARTCHAR onequarter
ENCODING 188
SWIDTH 834 0
DWIDTH 19 0
BBX 18 18 1 0
BITMAP
301800
301800
F03000
F03000
306000
306000
30C000
30C000
318300
318700
030F00
030F00
061B00
063300
0C7FC0
0C7FC0
180300
180300
ENDCHAR
STARTCHAR onehalf
ENCODING 189
SWIDTH 834 0
DWIDTH 19 0
BBX 18 18 1 0
BITMAP
301800
301800
F03000
F03000
306000
306000
30C000
30C000
318780
318FC0
0318C0
0300C0
060180
060300
0C0600
0C0C00
181FC0
181FC0
ENDCHAR
STARTCHAR threequarters
ENCODING 190
SWIDTH 834 0
DWIDTH 19 0
BBX 19 18 0 0
BITMAP
7C0C00
FE0C00
C61800
061800
3C3000
3C3000
066000
C66000
FEC180
7CC380
018780
018780
030D80
031980
063FE0
063FE0
0C0180
0C0180
ENDCHAR
STARTCHAR questiondown
ENCODING 191
SWIDTH 611 0
DWIDTH 12 0
BBX 10 19 1 -5
BITMAP
0C00
0C00
0C00
0000
0000
0C00
0C00
0C00
0C00
1800
3800
7000
6000
E0C0
C0C0
C1C0
E380
7F80
3E00
ENDCHAR
STARTCHAR Agrave
ENCODING 192
SWIDTH 667 0
DWIDTH 17 0
BBX 15 24 1 0
BITMAP
0C00
0600
0300
0180
0000
0380
0380
06C0
06C0
0C40
0C60
0C60
1830
1830
1830
3018
3FF8
3FF8
600C
600C
600C
C006
C006
C006
ENDCHAR
STARTCHAR Aacute
ENCODING 193
SWIDTH 667 0
DWIDTH 17 0
BBX 15 24 1 0
BITMAP
0060
00C0
0180
0300
0000
0380
0380
06C0
06C0
0C40
0C60
0C60
1830
1830
1830
3018
3FF8
3FF8
600C
600C
600C
C006
C006
C006
ENDCHAR
STARTCHAR Acircumflex
ENCODING 194
SWIDTH 667 0
DWIDTH 17 0
BBX 15 24 1 0
BITMAP
0180
03C0
0660
0C30
0000
0380
0380
06C0
06C0
0C40
0C60
0C60
1830
1830
1830
3018
3FF8
3FF8
600C
600C
600C
C006
C006
C006
ENDCHAR
STARTCHAR Atilde
ENCODING 195
SWIDTH 667 0
DWIDTH 17 0
BBX 15 23 1 0
BITMAP
0710
0DB0
08E0
0000
0380
0380
06C0
06C0
0C40
0C60
0C60
1830
1830
1830
3018
3FF8
3FF8
600C
600C
600C
C006
C006
C006
ENDCHAR
STARTCHAR Adieresis
ENCODING 196
SWIDTH 667 0
DWIDTH 17 0
BBX 15 23 1 0
BITMAP
0C60
0C60
0000
0000
0380
0380
06C0
06C0
0C40
0C60
0C60
1830
1830
1830
3018
3FF8
3FF8
600C
600C
600C
C006
C006
C006
ENDCHAR
STARTCHAR Aring
ENCODING 197
SWIDTH 667 0
DWIDTH 17 0
BBX 15 24 1 0
BITMAP
0380
06C0
06C0
0380
0000
0380
0380
06C0
06C0
0C40
0C60
0C60
1830
1830
1830
3018
3FF8
3FF8
600C
600C
600C
C006
C006
C006
ENDCHAR
STARTCHAR AE
ENCODING 198
SWIDTH 1000 0
DWIDTH 23 0
BBX 21 19 1 0
BITMAP
03FFF8
03FFF8
066000
066000
0C6000
0C6000
0C6000
186000
187FF8
187FF8
306000
3FE000
3FE000
606000
606000
606000
C06000
C07FF8
C07FF8
ENDCHAR
STARTCHAR Ccedilla
ENCODING 199
SWIDTH 722 0
DWIDTH 18 0
BBX 16 24 1 -5
BITMAP
07E0
1FF8
3C3C
700E
6006
E006
C000
C000
C000
C000
C000
C000
C003
E003
6006
700E
3C3C
1FF8
07E0
0380
00C0
00C0
07C0
0380
ENDCHAR
STARTCHAR Egrave
ENCODING 200
SWIDTH 667 0
DWIDTH 16 0
BBX 12 24 2 0
BITMAP
3000
1800
0C00
0600
0000
FFF0
FFF0
C000
C000
C000
C000
C000
C000
FFE0
FFE0
C000
C000
C000
C000
C000
C000
C000
FFF0
FFF0
ENDCHAR
STARTCHAR Eacute
ENCODING 201
SWIDTH 667 0
DWIDTH 16 0
BBX 12 24 2 0
BITMAP
0180
0300
0600
0C00
0000
FFF0
FFF0
C000
C000
C000
C000
C000
C000
FFE0
FFE0
C000
C000
C000
C000
C000
C000
C000
FFF0
FFF0
ENDCHAR
STARTCHAR Ecircumflex
ENCODING 202
SWIDTH 667 0
DWIDTH 16 0
BBX 12 24 2 0
BITMAP
0600
0F00
1980
30C0
0000
FFF0
FFF0
C000
C000
C000
C000
C000
C000
FFE0
FFE0
C000
C000
C000
C000
C000
C000
C000
FFF0
FFF0
ENDCHAR
STARTCHAR Edieresis
ENCODING 203
SWIDTH 667 0
DWIDTH 16 0
BBX 12 23 2 0
BITMAP
1980
1980
0000
0000
FFF0
FFF0
C000
C000
C000
C000
C000
C000
FFE0
FFE0
C000
C000
C000
C000
C000
C000
C000
FFF0
FFF0
ENDCHAR
STARTCHAR Igrave
ENCODING 204
SWIDTH 278 0
DWIDTH 8 0
BBX 5 24 1 0
BITMAP
C0
60
30
18
00
30
30
30
30
30
30
30
30
30
30
30
30
30
30
30
30
30
30
30
ENDCHAR
STARTCHAR Iacute
ENCODING 205
SWIDTH 278 0
DWIDTH 8 0
BBX 5 24 2 0
BITMAP
18
30
60
C0
00
60
60
60
60
60
60
60
60
60
60
60
60
60
60
60
60
60
60
60
ENDCHAR
STARTCHAR Icircumflex
ENCODING 206
SWIDTH 278 0
DWIDTH 8 0
BBX 8 24 0 0
BITMAP
18
3C
66
C3
00
18
18
18
18
18
18
18
18
18
18
18
18
18
18
18
18
18
18
18
ENDCHAR
STARTCHAR Idieresis
ENCODING 207
SWIDTH 278 0
DWIDTH 8 0
BBX 6 23 1 0
BITMAP
CC
CC
00
00
30
30
30
30
30
30
30
30
30
30
30
30
30
30
30
30
30
30
30
ENDCHAR
STARTCHAR Eth
ENCODING 208
SWIDTH 722 0
DWIDTH 18 0
BBX 17 19 0 0
BITMAP
3FF000
3FFC00
301E00
300700
300300
300380
300180
300180
FF0180
FF0180
300180
300180
300180
300380
300300
300700
301E00
3FFC00
3FF000
ENDCHAR
STARTCHAR Ntilde
ENCODING 209
SWIDTH 722 0
DWIDTH 18 0
BBX 14 23 2 0
BITMAP
0710
0DB0
08E0
0000
E00C
F00C
F00C
D80C
DC0C
CC0C
CE0C
C60C
C70C
C30C
C38C
C18C
C1CC
C0CC
C0EC
C06C
C03C
C03C
C01C
ENDCHAR
STARTCHAR Ograve
ENCODING 210
SWIDTH 778 0
DWIDTH 18 0
BBX 16 24 1 0
BITMAP
0600
0300
0180
00C0
0000
07E0
1FF8
3C3C
700E
6006
E007
C003
C003
C003
C003
C003
C003
C003
E007
6006
700E
3C3C
1FF8
07E0
ENDCHAR
STARTCHAR Oacute
ENCODING 211
SWIDTH 778 0
DWIDTH 18 0
BBX 16 24 1 0
BITMAP
0030
0060
00C0
0180
0000
07E0
1FF8
3C3C
700E
6006
E007
C003
C003
C003
C003
C003
C003
C003
E007
6006
700E
3C3C
1FF8
07E0
ENDCHAR
STARTCHAR Ocircumflex
ENCODING 212
SWIDTH 778 0
DWIDTH 18 0
BBX 16 24 1 0
BITMAP
0180
03C0
0660
0C30
0000
07E0
1FF8
3C3C
700E
6006
E007
C003
C003
C003
C003
C003
C003
C003
E007
6006
700E
3C3C
1FF8
07E0
ENDCHAR
STARTCHAR Otilde
ENCODING 213
SWIDTH 778 0
DWIDTH 18 0
BBX 16 23 1 0
BITMAP
0710
0DB0
08E0
0000
07E0
1FF8
3C3C
700E
6006
E007
C003
C003
C003
C003
C003
C003
C003
E007
6006
700E
3C3C
1FF8
07E0
ENDCHAR
STARTCHAR Odieresis
ENCODING 214
SWIDTH 778 0
DWIDTH 18 0
BBX 16 23 1 0
BITMAP
0660
0660
0000
0000
07E0
1FF8
3C3C
700E
6006
E007
C003
C003
C003
C003
C003
C003
C003
E007
6006
700E
3C3C
1FF8
07E0
ENDCHAR
STARTCHAR multiply
ENCODING 215
SWIDTH 584 0
DWIDTH 14 0
BBX 13 12 0 1
BITMAP
C018
6030
3060
18C0
0D80
0700
0700
0D80
18C0
3060
6030
C018
ENDCHAR
STARTCHAR Oslash
ENCODING 216
SWIDTH 778 0
DWIDTH 18 0
BBX 18 19 0 0
BITMAP
03F040
0FFCC0
1E1F80
380700
300700
700D80
601980
603180
606180
60C180
618180
630180
660180
6C0380
380300
380700
7E1E00
CFFC00
83F000
ENDCHAR
STARTCHAR Ugrave
ENCODING 217
SWIDTH 722 0
DWIDTH 18 0
BBX 14 24 2 0
BITMAP
0C00
0600
0300
0180
0000
C00C
C00C
C00C
C00C
C00C
C00C
C00C
C00C
C00C
C00C
C00C
C00C
C00C
C00C
C00C
6018
7038
3FF0
0FC0
ENDCHAR
STARTCHAR Uacute
ENCODING 218
SWIDTH 722 0
DWIDTH 18 0
BBX 14 24 2 0
BITMAP
0060
00C0
0180
0300
0000
C00C
C00C
C00C
C00C
C00C
C00C
C00C
C00C
C00C
C00C
C00C
C00C
C00C
C00C
C00C
6018
7038
3FF0
0FC0
ENDCHAR
STARTCHAR Ucircumflex
ENCODING 219
SWIDTH 722 0
DWIDTH 18 0
BBX 14 24 2 0
BITMAP
0300
0780
0CC0
1860
0000
C00C
C00C
C00C
C00C
C00C
C00C
C00C
C00C
C00C
C00C
C00C
C00C
C00C
C00C
C00C
6018
7038
3FF0
0FC0
ENDCHAR
STARTCHAR Udieresis
ENCODING 220
SWIDTH 722 0
DWIDTH 18 0
BBX 14 23 2 0
BITMAP
0CC0
0CC0
0000
0000
C00C
C00C
C00C
C00C
C00C
C00C
C00C
C00C
C00C
C00C
C00C
C00C
C00C
C00C
C00C
6018
7038
3FF0
0FC0
ENDCHAR
STARTCHAR Yacute
ENCODING 221
SWIDTH 667 0
DWIDTH 16 0
BBX 14 24 1 0
BITMAP
0060
00C0
0180
0300
0000
C00C
E01C
6018
7038
3030
3870
1860
1CE0
0CC0
0FC0
0780
0780
0300
0300
0300
0300
0300
0300
0300
ENDCHAR
STARTCHAR Thorn
ENCODING 222
SWIDTH 667 0
DWIDTH 16 0
BBX 13 19 2 0
BITMAP
C000
C000
C000
C000
FFE0
FFF0
C030
C018
C018
C018
C018
C030
FFF0
FFE0
C000
C000
C000
C000
C000
ENDCHAR
STARTCHAR germandbls
ENCODING 223
SWIDTH 611 0
DWIDTH 15 0
BBX 10 19 3 0
BITMAP
1C00
7F00
E300
C180
C180
C180
C300
C700
CE00
CF00
C380
C180
C0C0
C0C0
C0C0
C180
C380
CF00
CE00
ENDCHAR
STARTCHAR agrave
ENCODING 224
SWIDTH 556 0
DWIDTH 13 0
BBX 11 19 1 0
BITMAP
1800
0C00
0600
0300
0000
1F00
3F80
61C0
60C0
00C0
07C0
3FC0
78C0
E0C0
C0C0
C1C0
E3C0
7EE0
3C60
ENDCHAR
STARTCHAR aacute
ENCODING 225
SWIDTH 556 0
DWIDTH 13 0
BBX 11 19 1 0
BITMAP
0180
0300
0600
0C00
0000
1F00
3F80
61C0
60C0
00C0
07C0
3FC0
78C0
E0C0
C0C0
C1C0
E3C0
7EE0
3C60
ENDCHAR
STARTCHAR acircumflex
ENCODING 226
SWIDTH 556 0
DWIDTH 13 0
BBX 11 19 1 0
BITMAP
0600
0F00
1980
30C0
0000
1F00
3F80
61C0
60C0
00C0
07C0
3FC0
78C0
E0C0
C0C0
C1C0
E3C0
7EE0
3C60
ENDCHAR
STARTCHAR atilde
ENCODING 227
SWIDTH 556 0
DWIDTH 13 0
BBX 11 19 1 0
BITMAP
1C40
36C0
2380
0000
0000
1F00
3F80
61C0
60C0
00C0
07C0
3FC0
78C0
E0C0
C0C0
C1C0
E3C0
7EE0
3C60
ENDCHAR
STARTCHAR adieresis
ENCODING 228
SWIDTH 556 0
DWIDTH 13 0
BBX 11 18 1 0
BITMAP
1980
1980
0000
0000
1F00
3F80
61C0
60C0
00C0
07C0
3FC0
78C0
E0C0
C0C0
C1C0
E3C0
7EE0
3C60
ENDCHAR
STARTCHAR aring
ENCODING 229
SWIDTH 556 0
DWIDTH 13 0
BBX 11 19 1 0
BITMAP
0E00
1B00
1100
1B00
0E00
1F00
3F80
61C0
60C0
00C0
07C0
3FC0
78C0
E0C0
C0C0
C1C0
E3C0
7EE0
3C60
ENDCHAR
STARTCHAR ae
ENCODING 230
SWIDTH 889 0
DWIDTH 21 0
BBX 19 14 1 0
BITMAP
1F0E00
3FBF80
61F1C0
60E0C0
00C060
07C060
3FFFE0
78FFE0
E0C000
C0C000
C1E060
E3F0E0
7E3FC0
3C0F00
ENDCHAR
STARTCHAR ccedilla
ENCODING 231
SWIDTH 500 0
DWIDTH 12 0
BBX 10 19 1 -5
BITMAP
1F00
3F80
71C0
60C0
C000
C000
C000
C000
C000
C000
60C0
71C0
3F80
1F00
1C00
0600
0600
3E00
1C00
ENDCHAR
STARTCHAR egrave
ENCODING 232
SWIDTH 556 0
DWIDTH 13 0
BBX 11 19 1 0
BITMAP
1800
0C00
0600
0300
0000
0E00
3F80
71C0
60C0
C060
C060
FFE0
FFE0
C000
C000
6060
70E0
3FC0
0F00
ENDCHAR
STARTCHAR eacute
ENCODING 233
SWIDTH 556 0
DWIDTH 13 0
BBX 11 19 1 0
BITMAP
0180
0300
0600
0C00
0000
0E00
3F80
71C0
60C0
C060
C060
FFE0
FFE0
C000
C000
6060
70E0
3FC0
0F00
ENDCHAR
STARTCHAR ecircumflex
ENCODING 234
SWIDTH 556 0
DWIDTH 13 0
BBX 11 19 1 0
BITMAP
0600
0F00
1980
30C0
0000
0E00
3F80
71C0
60C0
C060
C060
FFE0
FFE0
C000
C000
6060
70E0
3FC0
0F00
ENDCHAR
STARTCHAR edieresis
ENCODING 235
SWIDTH 556 0
DWIDTH 13 0
BBX 11 18 1 0
BITMAP
1980
1980
0000
0000
0E00
3F80
71C0
60C0
C060
C060
FFE0
FFE0
C000
C000
6060
70E0
3FC0
0F00
ENDCHAR
STARTCHAR igrave
ENCODING 236
SWIDTH 278 0
DWIDTH 6 0
BBX 5 19 0 0
BITMAP
C0
60
30
18
00
30
30
30
30
30
30
30
30
30
30
30
30
30
30
ENDCHAR
STARTCHAR iacute
ENCODING 237
SWIDTH 278 0
DWIDTH 6 0
BBX 5 19 1 0
BITMAP
18
30
60
C0
00
60
60
60
60
60
60
60
60
60
60
60
60
60
60
ENDCHAR
STARTCHAR icircumflex
ENCODING 238
SWIDTH 278 0
DWIDTH 6 0
BBX 8 19 -1 0
BITMAP
18
3C
66
C3
00
18
18
18
18
18
18
18
18
18
18
18
18
18
18
ENDCHAR
STARTCHAR idieresis
ENCODING 239
SWIDTH 278 0
DWIDTH 6 0
BBX 6 18 0 0
BITMAP
CC
CC
00
00
30
30
30
30
30
30
30
30
30
30
30
30
30
30
ENDCHAR
STARTCHAR eth
ENCODING 240
SWIDTH 556 0
DWIDTH 13 0
BBX 11 19 1 0
BITMAP
E000
7180
1E00
3C00
C600
1F00
3F80
71C0
60C0
C060
C060
C060
C060
C060
C060
60C0
71C0
3F80
1F00
ENDCHAR
STARTCHAR ntilde
ENCODING 241
SWIDTH 556 0
DWIDTH 14 0
BBX 10 18 2 0
BITMAP
3880
6D80
4700
0000
CE00
DF80
F180
E0C0
C0C0
C0C0
C0C0
C0C0
C0C0
C0C0
C0C0
C0C0
C0C0
C0C0
ENDCHAR
STARTCHAR ograve
ENCODING 242
SWIDTH 556 0
DWIDTH 13 0
BBX 11 19 1 0
BITMAP
1800
0C00
0600
0300
0000
1F00
3F80
71C0
60C0
C060
C060
C060
C060
C060
C060
60C0
71C0
3F80
1F00
ENDCHAR
STARTCHAR oacute
ENCODING 243
SWIDTH 556 0
DWIDTH 13 0
BBX 11 19 1 0
BITMAP
0180
0300
0600
0C00
0000
1F00
3F80
71C0
60C0
C060
C060
C060
C060
C060
C060
60C0
71C0
3F80
1F00
ENDCHAR
STARTCHAR ocircumflex
ENCODING 244
SWIDTH 556 0
DWIDTH 13 0
BBX 11 19 1 0
BITMAP
0600
0F00
1980
30C0
0000
1F00
3F80
71C0
60C0
C060
C060
C060
C060
C060
C060
60C0
71C0
3F80
1F00
ENDCHAR
STARTCHAR otilde
ENCODING 245
SWIDTH 556 0
DWIDTH 13 0
BBX 11 18 1 0
BITMAP
1C40
36C0
2380
0000
1F00
3F80
71C0
60C0
C060
C060
C060
C060
C060
C060
60C0
71C0
3F80
1F00
ENDCHAR
STARTCHAR odieresis
ENCODING 246
SWIDTH 556 0
DWIDTH 13 0
BBX 11 18 1 0
BITMAP
3180
3180
0000
0000
1F00
3F80
71C0
60C0
C060
C060
C060
C060
C060
C060
60C0
71C0
3F80
1F00
ENDCHAR
STARTCHAR divide
ENCODING 247
SWIDTH 584 0
DWIDTH 14 0
BBX 12 12 1 1
BITMAP
0600
0600
0600
0000
0000
FFF0
FFF0
0000
0000
0600
0600
0600
ENDCHAR
STARTCHAR oslash
ENCODING 248
SWIDTH 611 0
DWIDTH 13 0
BBX 13 14 0 0
BITMAP
0F98
1FF0
38E0
3060
60F0
61B0
6330
6630
6630
6C30
3860
30E0
7FC0
CF80
ENDCHAR
STARTCHAR ugrave
ENCODING 249
SWIDTH 556 0
DWIDTH 14 0
BBX 10 19 2 0
BITMAP
3000
1800
0C00
0600
0000
C0C0
C0C0
C0C0
C0C0
C0C0
C0C0
C0C0
C0C0
C0C0
C0C0
C1C0
63C0
7EC0
1CC0
ENDCHAR
STARTCHAR uacute
ENCODING 250
SWIDTH 556 0
DWIDTH 14 0
BBX 10 19 2 0
BITMAP
0180
0300
0600
0C00
0000
C0C0
C0C0
C0C0
C0C0
C0C0
C0C0
C0C0
C0C0
C0C0
C0C0
C1C0
63C0
7EC0
1CC0
ENDCHAR
STARTCHAR ucircumflex
ENCODING 251
SWIDTH 556 0
DWIDTH 14 0
BBX 10 19 2 0
BITMAP
0C00
1E00
3300
6180
0000
C0C0
C0C0
C0C0
C0C0
C0C0
C0C0
C0C0
C0C0
C0C0
C0C0
C1C0
63C0
7EC0
1CC0
ENDCHAR
STARTCHAR udieresis
ENCODING 252
SWIDTH 556 0
DWIDTH 14 0
BBX 10 18 2 0
BITMAP
3300
3300
0000
0000
C0C0
C0C0
C0C0
C0C0
C0C0
C0C0
C0C0
C0C0
C0C0
C0C0
C1C0
63C0
7EC0
1CC0
ENDCHAR
STARTCHAR yacute
ENCODING 253
SWIDTH 500 0
DWIDTH 13 0
BBX 12 24 0 -5
BITMAP
00C0
0180
0300
0600
0000
C030
C030
6030
7060
3060
38E0
18C0
18C0
0D80
0D80
0780
0700
0300
0300
0600
0600
0C00
3C00
3800
ENDCHAR
STARTCHAR thorn
ENCODING 254
SWIDTH 556 0
DWIDTH 14 0
BBX 11 24 2 -5
BITMAP
C000
C000
C000
C000
C000
CF00
DF80
F1C0
E0C0
C060
C060
C060
C060
C060
C060
E0C0
F1C0
DF80
CF00
C000
C000
C000
C000
C000
ENDCHAR
STARTCHAR ydieresis
ENCODING 255
SWIDTH 500 0
DWIDTH 13 0
BBX 12 23 0 -5
BITMAP
1980
1980
0000
0000
C030
C030
6030
7060
3060
38E0
18C0
18C0
0D80
0D80
0780
0700
0300
0300
0600
0600
0C00
3C00
3800
ENDCHAR
STARTCHAR Amacron
ENCODING 256
SWIDTH 667 0
DWIDTH 17 0
BBX 15 22 1 0
BITMAP
0FC0
0FC0
0000
0380
0380
06C0
06C0
0C40
0C60
0C60
1830
1830
1830
3018
3FF8
3FF8
600C
600C
600C
C006
C006
C006
ENDCHAR
STARTCHAR amacron
ENCODING 257
SWIDTH 556 0
DWIDTH 13 0
BBX 11 17 1 0
BITMAP
1F80
1F80
0000
1F00
3F80
61C0
60C0
00C0
07C0
3FC0
78C0
E0C0
C0C0
C1C0
E3C0
7EE0
3C60
ENDCHAR
STARTCHAR Abreve
ENCODING 258
SWIDTH 667 0
DWIDTH 17 0
BBX 15 24 1 0
BITMAP
1020
1860
0FC0
0780
0000
0380
0380
06C0
06C0
0C40
0C60
0C60
1830
1830
1830
3018
3FF8
3FF8
600C
600C
600C
C006
C006
C006
ENDCHAR
STARTCHAR abreve
ENCODING 259
SWIDTH 556 0
DWIDTH 13 0
BBX 11 19 1 0
BITMAP
2040
30C0
1F80
0F00
0000
1F00
3F80
61C0
60C0
00C0
07C0
3FC0
78C0
E0C0
C0C0
C1C0
E3C0
7EE0
3C60
ENDCHAR
STARTCHAR Aogonek
ENCODING 260
SWIDTH 667 0
DWIDTH 17 0
BBX 15 24 1 -5
BITMAP
0380
0380
06C0
06C0
0C40
0C60
0C60
1830
1830
1830
3018
3FF8
3FF8
600C
600C
600C
C006
C006
C1C6
0300
0600
0600
07C0
0380
ENDCHAR
STARTCHAR aogonek
ENCODING 261
SWIDTH 556 0
DWIDTH 13 0
BBX 11 19 1 -5
BITMAP
1F00
3F80
61C0
60C0
00C0
07C0
3FC0
78C0
E0C0
C0C0
C1C0
E3C0
7EE0
3F60
0C00
1800
1800
1F00
0E00
ENDCHAR
STARTCHAR Cacute
ENCODING 262
SWIDTH 722 0
DWIDTH 18 0
BBX 16 24 1 0
BITMAP
0060
00C0
0180
0300
0000
07E0
1FF8
3C3C
700E
6006
E006
C000
C000
C000
C000
C000
C000
C003
E003
6006
700E
3C3C
1FF8
07E0
ENDCHAR
STARTCHAR cacute
ENCODING 263
SWIDTH 500 0
DWIDTH 12 0
BBX 10 19 1 0
BITMAP
0180
0300
0600
0C00
0000
1F00
3F80
71C0
60C0
C000
C000
C000
C000
C000
C000
60C0
71C0
3F80
1F00
ENDCHAR
STARTCHAR Ccircumflex
ENCODING 264
SWIDTH 722 0
DWIDTH 18 0
BBX 16 24 1 0
BITMAP
0180
03C0
0660
0C30
0000
07E0
1FF8
3C3C
700E
6006
E006
C000
C000
C000
C000
C000
C000
C003
E003
6006
700E
3C3C
1FF8
07E0
ENDCHAR
STARTCHAR ccircumflex
ENCODING 265
SWIDTH 500 0
DWIDTH 12 0
BBX 10 19 1 0
BITMAP
0C00
1E00
3300
6180
0000
1F00
3F80
71C0
60C0
C000
C000
C000
C000
C000
C000
60C0
71C0
3F80
1F00
ENDCHAR
STARTCHAR Cdotaccent
ENCODING 266
SWIDTH 722 0
DWIDTH 18 0
BBX 16 22 1 0
BITMAP
0180
0180
0000
07E0
1FF8
3C3C
700E
6006
E006
C000
C000
C000
C000
C000
C000
C003
E003
6006
700E
3C3C
1FF8
07E0
ENDCHAR
STARTCHAR cdotaccent
ENCODING 267
SWIDTH 500 0
DWIDTH 12 0
BBX 10 17 1 0
BITMAP
0C00
0C00
0000
1F00
3F80
71C0
60C0
C000
C000
C000
C000
C000
C000
60C0
71C0
3F80
1F00
ENDCHAR
STARTCHAR Ccaron
ENCODING 268
SWIDTH 722 0
DWIDTH 18 0
BBX 16 24 1 0
BITMAP
0C30
0660
03C0
0180
0000
07E0
1FF8
3C3C
700E
6006
E006
C000
C000
C000
C000
C000
C000
C003
E003
6006
700E
3C3C
1FF8
07E0
ENDCHAR
STARTCHAR ccaron
ENCODING 269
SWIDTH 500 0
DWIDTH 12 0
BBX 10 19 1 0
BITMAP
6180
3300
1E00
0C00
0000
1F00
3F80
71C0
60C0
C000
C000
C000
C000
C000
C000
60C0
71C0
3F80
1F00
ENDCHAR
STARTCHAR Dcaron
ENCODING 270
SWIDTH 722 0
DWIDTH 18 0
BBX 15 24 2 0
BITMAP
1860
0CC0
0780
0300
0000
FFC0
FFF0
C078
C01C
C00C
C00E
C006
C006
C006
C006
C006
C006
C006
C00E
C00C
C01C
C078
FFF0
FFC0
ENDCHAR
STARTCHAR dcaron
ENCODING 271
SWIDTH 750 0
DWIDTH 19 0
BBX 16 19 1 0
BITMAP
0063
0063
0063
0061
0061
1E62
3F60
71E0
60E0
C060
C060
C060
C060
C060
C060
60E0
71E0
3F60
1E60
ENDCHAR
STARTCHAR Dcroat
ENCODING 272
SWIDTH 722 0
DWIDTH 18 0
BBX 17 19 0 0
BITMAP
3FF000
3FFC00
301E00
300700
300300
300380
300180
300180
FF0180
FF0180
300180
300180
300180
300380
300300
300700
301E00
3FFC00
3FF000
ENDCHAR
STARTCHAR dcroat
ENCODING 273
SWIDTH 556 0
DWIDTH 14 0
BBX 11 19 1 0
BITMAP
0060
0060
0060
07E0
07E0
1E60
3F60
71E0
60E0
C060
C060
C060
C060
C060
C060
60E0
71E0
3F60
1E60
ENDCHAR
STARTCHAR Emacron
ENCODING 274
SWIDTH 667 0
DWIDTH 16 0
BBX 12 22 2 0
BITMAP
3F00
3F00
0000
FFF0
FFF0
C000
C000
C000
C000
C000
C000
FFE0
FFE0
C000
C000
C000
C000
C000
C000
C000
FFF0
FFF0
ENDCHAR
STARTCHAR emacron
ENCODING 275
SWIDTH 556 0
DWIDTH 13 0
BBX 11 17 1 0
BITMAP
1F80
1F80
0000
0E00
3F80
71C0
60C0
C060
C060
FFE0
FFE0
C000
C000
6060
70E0
3FC0
0F00
ENDCHAR
STARTCHAR Ebreve
ENCODING 276
SWIDTH 667 0
DWIDTH 16 0
BBX 12 24 2 0
BITMAP
4080
6180
3F00
1E00
0000
FFF0
FFF0
C000
C000
C000
C000
C000
C000
FFE0
FFE0
C000
C000
C000
C000
C000
C000
C000
FFF0
FFF0
ENDCHAR
STARTCHAR ebreve
ENCODING 277
SWIDTH 556 0
DWIDTH 13 0
BBX 11 19 1 0
BITMAP
2040
30C0
1F80
0F00
0000
0E00
3F80
71C0
60C0
C060
C060
FFE0
FFE0
C000
C000
6060
70E0
3FC0
0F00
ENDCHAR
STARTCHAR Edotaccent
ENCODING 278
SWIDTH 667 0
DWIDTH 16 0
BBX 12 22 2 0
BITMAP
0C00
0C00
0000
FFF0
FFF0
C000
C000
C000
C000
C000
C000
FFE0
FFE0
C000
C000
C000
C000
C000
C000
C000
FFF0
FFF0
ENDCHAR
STARTCHAR edotaccent
ENCODING 279
SWIDTH 556 0
DWIDTH 13 0
BBX 11 17 1 0
BITMAP
0600
0600
0000
0E00
3F80
71C0
60C0
C060
C060
FFE0
FFE0
C000
C000
6060
70E0
3FC0
0F00
ENDCHAR
STARTCHAR Eogonek
ENCODING 280
SWIDTH 667 0
DWIDTH 16 0
BBX 12 24 2 -5
BITMAP
FFF0
FFF0
C000
C000
C000
C000
C000
C000
FFE0
FFE0
C000
C000
C000
C000
C000
C000
C000
FFF0
FFF0
0C00
1800
1800
1F00
0E00
ENDCHAR
STARTCHAR eogonek
ENCODING 281
SWIDTH 556 0
DWIDTH 13 0
BBX 11 19 1 -5
BITMAP
0E00
3F80
71C0
60C0
C060
C060
FFE0
FFE0
C000
C000
6060
70E0
3FC0
0F00
0C00
1800
1800
1F00
0E00
ENDCHAR
STARTCHAR Ecaron
ENCODING 282
SWIDTH 667 0
DWIDTH 16 0
BBX 12 24 2 0
BITMAP
6180
3300
1E00
0C00
0000
FFF0
FFF0
C000
C000
C000
C000
C000
C000
FFE0
FFE0
C000
C000
C000
C000
C000
C000
C000
FFF0
FFF0
ENDCHAR
STARTCHAR ecaron
ENCODING 283
SWIDTH 556 0
DWIDTH 13 0
BBX 11 19 1 0
BITMAP
30C0
1980
0F00
0600
0000
0E00
3F80
71C0
60C0
C060
C060
FFE0
FFE0
C000
C000
6060
70E0
3FC0
0F00
ENDCHAR
STARTCHAR Gcircumflex
ENCODING 284
SWIDTH 778 0
DWIDTH 19 0
BBX 16 24 1 0
BITMAP
0180
03C0
0660
0C30
0000
07E0
1FF8
3C3C
700E
6006
E006
C000
C000
C000
C07F
C07F
C003
C003
E003
6007
700F
3C3F
1FFB
07E3
ENDCHAR
STARTCHAR gcircumflex
ENCODING 285
SWIDTH 556 0
DWIDTH 14 0
BBX 11 24 1 -5
BITMAP
0600
0F00
1980
30C0
0000
1E60
3F60
71E0
60E0
C060
C060
C060
C060
C060
C060
60E0
71E0
3F60
1E60
0060
C060
E0C0
7FC0
1F00
ENDCHAR
STARTCHAR Gbreve
ENCODING 286
SWIDTH 778 0
DWIDTH 19 0
BBX 16 24 1 0
BITMAP
0810
0C30
07E0
03C0
0000
07E0
1FF8
3C3C
700E
6006
E006
C000
C000
C000
C07F
C07F
C003
C003
E003
6007
700F
3C3F
1FFB
07E3
ENDCHAR
STARTCHAR gbreve
ENCODING 287
SWIDTH 556 0
DWIDTH 14 0
BBX 11 24 1 -5
BITMAP
2040
30C0
1F80
0F00
0000
1E60
3F60
71E0
60E0
C060
C060
C060
C060
C060
C060
60E0
71E0
3F60
1E60
0060
C060
E0C0
7FC0
1F00
ENDCHAR
STARTCHAR Gdotaccent
ENCODING 288
SWIDTH 778 0
DWIDTH 19 0
BBX 16 22 1 0
BITMAP
0180
0180
0000
07E0
1FF8
3C3C
700E
6006
E006
C000
C000
C000
C07F
C07F
C003
C003
E003
6007
700F
3C3F
1FFB
07E3
ENDCHAR
STARTCHAR gdotaccent
ENCODING 289
SWIDTH 556 0
DWIDTH 14 0
BBX 11 22 1 -5
BITMAP
0600
0600
0000
1E60
3F60
71E0
60E0
C060
C060
C060
C060
C060
C060
60E0
71E0
3F60
1E60
0060
C060
E0C0
7FC0
1F00
ENDCHAR
STARTCHAR Gcommaaccent
ENCODING 290
SWIDTH 778 0
DWIDTH 19 0
BBX 16 26 1 -7
BITMAP
07E0
1FF8
3C3C
700E
6006
E006
C000
C000
C000
C07F
C07F
C003
C003
E003
6007
700F
3C3F
1FFB
07E3
0000
00C0
00C0
00C0
0040
0040
0080
ENDCHAR
STARTCHAR gcommaaccent
ENCODING 291
SWIDTH 556 0
DWIDTH 14 0
BBX 11 26 1 -5
BITMAP
0200
0400
0400
0600
0600
0600
0000
1E60
3F60
71E0
60E0
C060
C060
C060
C060
C060
C060
60E0
71E0
3F60
1E60
0060
C060
E0C0
7FC0
1F00
ENDCHAR
STARTCHAR Hcircumflex
ENCODING 292
SWIDTH 722 0
DWIDTH 18 0
BBX 14 24 2 0
BITMAP
0300
0780
0CC0
1860
0000
C00C
C00C
C00C
C00C
C00C
C00C
C00C
C00C
FFFC
FFFC
C00C
C00C
C00C
C00C
C00C
C00C
C00C
C00C
C00C
ENDCHAR
STARTCHAR hcircumflex
ENCODING 293
SWIDTH 556 0
DWIDTH 13 0
BBX 12 24 0 0
BITMAP
1800
3C00
6600
C300
0000
3000
3000
3000
3000
3000
3380
37E0
3C60
3830
3030
3030
3030
3030
3030
3030
3030
3030
3030
3030
ENDCHAR
STARTCHAR Hbar
ENCODING 294
SWIDTH 722 0
DWIDTH 18 0
BBX 14 19 2 0
BITMAP
C00C
C00C
C00C
C00C
FFFC
FFFC
C00C
C00C
FFFC
FFFC
C00C
C00C
C00C
C00C
C00C
C00C
C00C
C00C
C00C
ENDCHAR
STARTCHAR hbar
ENCODING 295
SWIDTH 556 0
DWIDTH 13 0
BBX 10 19 2 0
BITMAP
C000
C000
C000
FC00
FC00
CE00
DF80
F180
E0C0
C0C0
C0C0
C0C0
C0C0
C0C0
C0C0
C0C0
C0C0
C0C0
C0C0
ENDCHAR
STARTCHAR Itilde
ENCODING 296
SWIDTH 278 0
DWIDTH 8 0
BBX 8 23 0 0
BITMAP
71
DB
8E
00
18
18
18
18
18
18
18
18
18
18
18
18
18
18
18
18
18
18
18
ENDCHAR
STARTCHAR itilde
ENCODING 297
SWIDTH 278 0
DWIDTH 6 0
BBX 8 18 -1 0
BITMAP
71
DB
8E
00
18
18
18
18
18
18
18
18
18
18
18
18
18
18
ENDCHAR
STARTCHAR Imacron
ENCODING 298
SWIDTH 278 0
DWIDTH 8 0
BBX 6 22 1 0
BITMAP
FC
FC
00
30
30
30
30
30
30
30
30
30
30
30
30
30
30
30
30
30
30
30
ENDCHAR
STARTCHAR imacron
ENCODING 299
SWIDTH 278 0
DWIDTH 6 0
BBX 6 17 0 0
BITMAP
FC
FC
00
30
30
30
30
30
30
30
30
30
30
30
30
30
30
ENDCHAR
STARTCHAR Ibreve
ENCODING 300
SWIDTH 278 0
DWIDTH 8 0
BBX 8 24 0 0
BITMAP
81
C3
7E
3C
00
18
18
18
18
18
18
18
18
18
18
18
18
18
18
18
18
18
18
18
ENDCHAR
STARTCHAR ibreve
ENCODING 301
SWIDTH 278 0
DWIDTH 6 0
BBX 8 19 -1 0
BITMAP
81
C3
7E
3C
00
18
18
18
18
18
18
18
18
18
18
18
18
18
18
ENDCHAR
STARTCHAR Iogonek
ENCODING 302
SWIDTH 278 0
DWIDTH 8 0
BBX 5 24 1 -5
BITMAP
30
30
30
30
30
30
30
30
30
30
30
30
30
30
30
30
30
30
38
60
C0
C0
F8
70
ENDCHAR
STARTCHAR iogonek
ENCODING 303
SWIDTH 222 0
DWIDTH 6 0
BBX 5 24 0 -5
BITMAP
30
30
30
00
00
30
30
30
30
30
30
30
30
30
30
30
30
30
38
60
C0
C0
F8
70
ENDCHAR
STARTCHAR Idotaccent
ENCODING 304
SWIDTH 278 0
DWIDTH 8 0
BBX 2 22 3 0
BITMAP
C0
C0
00
C0
C0
C0
C0
C0
C0
C0
C0
C0
C0
C0
C0
C0
C0
C0
C0
C0
C0
C0
ENDCHAR
STARTCHAR dotlessi
ENCODING 305
SWIDTH 278 0
DWIDTH 6 0
BBX 2 14 2 0
BITMAP
C0
C0
C0
C0
C0
C0
C0
C0
C0
C0
C0
C0
C0
C0
ENDCHAR
STARTCHAR IJ
ENCODING 306
SWIDTH 764 0
DWIDTH 21 0
BBX 16 19 3 0
BITMAP
C003
C003
C003
C003
C003
C003
C003
C003
C003
C003
C003
C003
C303
C303
C303
C303
C186
C1FE
C0FC
ENDCHAR
STARTCHAR ij
ENCODING 307
SWIDTH 433 0
DWIDTH 12 0
BBX 8 24 2 -5
BITMAP
C3
C3
C3
00
00
C3
C3
C3
C3
C3
C3
C3
C3
C3
C3
C3
C3
C3
C3
03
03
03
0F
0E
ENDCHAR
STARTCHAR Jcircumflex
ENCODING 308
SWIDTH 500 0
DWIDTH 13 0
BBX 12 24 1 0
BITMAP
0180
03C0
0660
0C30
0000
00C0
00C0
00C0
00C0
00C0
00C0
00C0
00C0
00C0
00C0
00C0
00C0
C0C0
C0C0
C0C0
C0C0
6180
7F80
3F00
ENDCHAR
STARTCHAR jcircumflex
ENCODING 309
SWIDTH 222 0
DWIDTH 6 0
BBX 8 24 -1 -5
BITMAP
18
3C
66
C3
00
18
18
18
18
18
18
18
18
18
18
18
18
18
18
18
18
18
78
70
ENDCHAR
STARTCHAR Kcommaaccent
ENCODING 310
SWIDTH 667 0
DWIDTH 18 0
BBX 15 26 2 -7
BITMAP
C038
C070
C0E0
C1C0
C380
C700
CE00
DC00
FC00
FE00
E700
C380
C1C0
C0E0
C070
C038
C01C
C00E
C006
0000
0180
0180
0180
0080
0080
0100
ENDCHAR
STARTCHAR kcommaaccent
ENCODING 311
SWIDTH 500 0
DWIDTH 12 0
BBX 10 26 2 -7
BITMAP
C000
C000
C000
C000
C000
C180
C380
C700
CE00
DC00
F800
FC00
CE00
C600
C700
C380
C180
C1C0
C0C0
0000
0C00
0C00
0C00
0400
0400
0800
ENDCHAR
STARTCHAR kgreenlandic
ENCODING 312
SWIDTH 500 0
DWIDTH 12 0
BBX 10 14 2 0
BITMAP
C180
C380
C700
CE00
DC00
F800
FC00
CE00
C600
C700
C380
C180
C1C0
C0C0
ENDCHAR
STARTCHAR Lacute
ENCODING 313
SWIDTH 556 0
DWIDTH 14 0
BBX 11 24 2 0
BITMAP
0C00
1800
3000
6000
0000
C000
C000
C000
C000
C000
C000
C000
C000
C000
C000
C000
C000
C000
C000
C000
C000
C000
FFE0
FFE0
ENDCHAR
STARTCHAR lacute
ENCODING 314
SWIDTH 222 0
DWIDTH 6 0
BBX 5 24 1 0
BITMAP
18
30
60
C0
00
60
60
60
60
60
60
60
60
60
60
60
60
60
60
60
60
60
60
60
ENDCHAR
STARTCHAR Lcommaaccent
ENCODING 315
SWIDTH 556 0
DWIDTH 14 0
BBX 11 26 2 -7
BITMAP
C000
C000
C000
C000
C000
C000
C000
C000
C000
C000
C000
C000
C000
C000
C000
C000
C000
FFE0
FFE0
0000
0C00
0C00
0C00
0400
0400
0800
ENDCHAR
STARTCHAR lcommaaccent
ENCODING 316
SWIDTH 222 0
DWIDTH 6 0
BBX 2 26 2 -7
BITMAP
C0
C0
C0
C0
C0
C0
C0
C0
C0
C0
C0
C0
C0
C0
C0
C0
C0
C0
C0
00
C0
C0
C0
40
40
80
ENDCHAR
STARTCHAR Lcaron
ENCODING 317
SWIDTH 750 0
DWIDTH 19 0
BBX 15 19 2 0
BITMAP
C006
C006
C006
C002
C002
C004
C000
C000
C000
C000
C000
C000
C000
C000
C000
C000
C000
FFE0
FFE0
ENDCHAR
STARTCHAR lcaron
ENCODING 318
SWIDTH 433 0
DWIDTH 12 0
BBX 8 19 2 0
BITMAP
C3
C3
C3
C1
C1
C2
C0
C0
C0
C0
C0
C0
C0
C0
C0
C0
C0
C0
C0
ENDCHAR
STARTCHAR Ldot
ENCODING 319
SWIDTH 806 0
DWIDTH 19 0
BBX 15 19 2 0
BITMAP
C000
C000
C000
C000
C000
C000
C000
C000
C000
C000
C006
C006
C006
C000
C000
C000
C000
FFE0
FFE0
ENDCHAR
STARTCHAR ldot
ENCODING 320
SWIDTH 489 0
DWIDTH 12 0
BBX 8 19 2 0
BITMAP
C0
C0
C0
C0
C0
C0
C0
C0
C0
C0
C3
C3
C3
C0
C0
C0
C0
C0
C0
ENDCHAR
STARTCHAR Lslash
ENCODING 321
SWIDTH 556 0
DWIDTH 14 0
BBX 14 19 -1 0
BITMAP
1800
1800
1800
1800
1B00
1E00
1C00
1800
3800
7800
D800
1800
1800
1800
1800
1800
1800
1FFC
1FFC
ENDCHAR
STARTCHAR lslash
ENCODING 322
SWIDTH 222 0
DWIDTH 6 0
BBX 6 19 0 0
BITMAP
30
30
30
30
30
30
30
3C
38
70
F0
30
30
30
30
30
30
30
30
ENDCHAR
STARTCHAR Nacute
ENCODING 323
SWIDTH 722 0
DWIDTH 18 0
BBX 14 24 2 0
BITMAP
0180
0300
0600
0C00
0000
E00C
F00C
F00C
D80C
DC0C
CC0C
CE0C
C60C
C70C
C30C
C38C
C18C
C1CC
C0CC
C0EC
C06C
C03C
C03C
C01C
ENDCHAR
STARTCHAR nacute
ENCODING 324
SWIDTH 556 0
DWIDTH 14 0
BBX 10 19 2 0
BITMAP
0300
0600
0C00
1800
0000
CE00
DF80
F180
E0C0
C0C0
C0C0
C0C0
C0C0
C0C0
C0C0
C0C0
C0C0
C0C0
C0C0
ENDCHAR
STARTCHAR Ncommaaccent
ENCODING 325
SWIDTH 722 0
DWIDTH 18 0
BBX 14 26 2 -7
BITMAP
E00C
F00C
F00C
D80C
DC0C
CC0C
CE0C
C60C
C70C
C30C
C38C
C18C
C1CC
C0CC
C0EC
C06C
C03C
C03C
C01C
0000
0180
0180
0180
0080
0080
0100
ENDCHAR
STARTCHAR ncommaaccent
ENCODING 326
SWIDTH 556 0
DWIDTH 14 0
BBX 10 21 2 -7
BITMAP
CE00
DF80
F180
E0C0
C0C0
C0C0
C0C0
C0C0
C0C0
C0C0
C0C0
C0C0
C0C0
C0C0
0000
0C00
0C00
0C00
0400
0400
0800
ENDCHAR
STARTCHAR Ncaron
ENCODING 327
SWIDTH 722 0
DWIDTH 18 0
BBX 14 24 2 0
BITMAP
30C0
1980
0F00
0600
0000
E00C
F00C
F00C
D80C
DC0C
CC0C
CE0C
C60C
C70C
C30C
C38C
C18C
C1CC
C0CC
C0EC
C06C
C03C
C03C
C01C
ENDCHAR
STARTCHAR ncaron
ENCODING 328
SWIDTH 556 0
DWIDTH 14 0
BBX 10 19 2 0
BITMAP
6180
3300
1E00
0C00
0000
CE00
DF80
F180
E0C0
C0C0
C0C0
C0C0
C0C0
C0C0
C0C0
C0C0
C0C0
C0C0
C0C0
ENDCHAR
STARTCHAR napostrophe
ENCODING 329
SWIDTH 767 0
DWIDTH 20 0
BBX 16 19 2 0
BITMAP
C000
C000
C000
4000
4000
8338
037E
03C6
0383
0303
0303
0303
0303
0303
0303
0303
0303
0303
0303
ENDCHAR
STARTCHAR Eng
ENCODING 330
SWIDTH 722 0
DWIDTH 18 0
BBX 14 24 2 -5
BITMAP
E00C
F00C
F00C
D80C
DC0C
CC0C
CE0C
C60C
C70C
C30C
C38C
C18C
C1CC
C0CC
C0EC
C06C
C03C
C03C
C01C
000C
000C
000C
003C
0038
ENDCHAR
STARTCHAR eng
ENCODING 331
SWIDTH 556 0
DWIDTH 14 0
BBX 10 19 2 -5
BITMAP
CE00
DF80
F180
E0C0
C0C0
C0C0
C0C0
C0C0
C0C0
C0C0
C0C0
C0C0
C0C0
C0C0
00C0
00C0
00C0
03C0
0380
ENDCHAR
STARTCHAR Omacron
ENCODING 332
SWIDTH 778 0
DWIDTH 18 0
BBX 16 22 1 0
BITMAP
07E0
07E0
0000
07E0
1FF8
3C3C
700E
6006
E007
C003
C003
C003
C003
C003
C003
C003
E007
6006
700E
3C3C
1FF8
07E0
ENDCHAR
STARTCHAR omacron
ENCODING 333
SWIDTH 556 0
DWIDTH 13 0
BBX 11 17 1 0
BITMAP
1F80
1F80
0000
1F00
3F80
71C0
60C0
C060
C060
C060
C060
C060
C060
60C0
71C0
3F80
1F00
ENDCHAR
STARTCHAR Obreve
ENCODING 334
SWIDTH 778 0
DWIDTH 18 0
BBX 16 24 1 0
BITMAP
0810
0C30
07E0
03C0
0000
07E0
1FF8
3C3C
700E
6006
E007
C003
C003
C003
C003
C003
C003
C003
E007
6006
700E
3C3C
1FF8
07E0
ENDCHAR
STARTCHAR obreve
ENCODING 335
SWIDTH 556 0
DWIDTH 13 0
BBX 11 19 1 0
BITMAP
2040
30C0
1F80
0F00
0000
1F00
3F80
71C0
60C0
C060
C060
C060
C060
C060
C060
60C0
71C0
3F80
1F00
ENDCHAR
STARTCHAR Ohungarumlaut
ENCODING 336
SWIDTH 778 0
DWIDTH 18 0
BBX 16 23 1 0
BITMAP
01B0
0360
06C0
0000
07E0
1FF8
3C3C
700E
6006
E007
C003
C003
C003
C003
C003
C003
C003
E007
6006
700E
3C3C
1FF8
07E0
ENDCHAR
STARTCHAR ohungarumlaut
ENCODING 337
SWIDTH 556 0
DWIDTH 13 0
BBX 11 18 1 0
BITMAP
06C0
0D80
1B00
0000
1F00
3F80
71C0
60C0
C060
C060
C060
C060
C060
C060
60C0
71C0
3F80
1F00
ENDCHAR
STARTCHAR OE
ENCODING 338
SWIDTH 1000 0
DWIDTH 23 0
BBX 21 19 1 0
BITMAP
07DFF8
1FFFF8
3C3800
701800
601800
E01800
C01800
C01800
C01800
C01FF8
C01FF8
C01800
C01800
E01800
601800
701800
3C3800
1FFFF8
07DFF8
ENDCHAR
STARTCHAR oe
ENCODING 339
SWIDTH 944 0
DWIDTH 22 0
BBX 20 14 1 0
BITMAP
1F0700
3F9FC0
71F8E0
60F060
C06030
C06030
C07FF0
C07FF0
C06000
C06000
60F030
71F870
3F9FE0
1F0780
ENDCHAR
STARTCHAR Racute
ENCODING 340
SWIDTH 722 0
DWIDTH 17 0
BBX 13 24 2 0
BITMAP
0180
0300
0600
0C00
0000
FFE0
FFF0
C030
C018
C018
C018
C018
C030
FFF0
FFE0
C070
C030
C018
C018
C018
C018
C018
C018
C018
ENDCHAR
STARTCHAR racute
ENCODING 341
SWIDTH 333 0
DWIDTH 9 0
BBX 6 19 2 0
BITMAP
0C
18
30
60
00
CC
DC
FC
E0
C0
C0
C0
C0
C0
C0
C0
C0
C0
C0
ENDCHAR
STARTCHAR Rcommaaccent
ENCODING 342
SWIDTH 722 0
DWIDTH 17 0
BBX 13 26 2 -7
BITMAP
FFE0
FFF0
C030
C018
C018
C018
C018
C030
FFF0
FFE0
C070
C030
C018
C018
C018
C018
C018
C018
C018
0000
0300
0300
0300
0100
0100
0200
ENDCHAR
STARTCHAR rcommaaccent
ENCODING 343
SWIDTH 333 0
DWIDTH 9 0
BBX 6 21 2 -7
BITMAP
CC
DC
FC
E0
C0
C0
C0
C0
C0
C0
C0
C0
C0
C0
00
60
60
60
20
20
40
ENDCHAR
STARTCHAR Rcaron
ENCODING 344
SWIDTH 722 0
DWIDTH 17 0
BBX 13 24 2 0
BITMAP
30C0
1980
0F00
0600
0000
FFE0
FFF0
C030
C018
C018
C018
C018
C030
FFF0
FFE0
C070
C030
C018
C018
C018
C018
C018
C018
C018
ENDCHAR
STARTCHAR rcaron
ENCODING 345
SWIDTH 333 0
DWIDTH 9 0
BBX 8 19 1 0
BITMAP
C3
66
3C
18
00
66
6E
7E
70
60
60
60
60
60
60
60
60
60
60
ENDCHAR
STARTCHAR Sacute
ENCODING 346
SWIDTH 667 0
DWIDTH 16 0
BBX 14 24 1 0
BITMAP
00C0
0180
0300
0600
0000
07C0
1FF0
3838
7018
6018
6000
7000
3E00
0FC0
01F0
0078
001C
000C
C00C
C00C
E01C
7838
3FF0
0FC0
ENDCHAR
STARTCHAR sacute
ENCODING 347
SWIDTH 500 0
DWIDTH 12 0
BBX 10 19 1 0
BITMAP
0300
0600
0C00
1800
0000
3E00
7F80
E1C0
C0C0
C000
F800
7F00
0F80
01C0
00C0
C0C0
C1C0
FF80
3F00
ENDCHAR
STARTCHAR Scircumflex
ENCODING 348
SWIDTH 667 0
DWIDTH 16 0
BBX 14 24 1 0
BITMAP
0300
0780
0CC0
1860
0000
07C0
1FF0
3838
7018
6018
6000
7000
3E00
0FC0
01F0
0078
001C
000C
C00C
C00C
E01C
7838
3FF0
0FC0
ENDCHAR
STARTCHAR scircumflex
ENCODING 349
SWIDTH 500 0
DWIDTH 12 0
BBX 10 19 1 0
BITMAP
0C00
1E00
3300
6180
0000
3E00
7F80
E1C0
C0C0
C000
F800
7F00
0F80
01C0
00C0
C0C0
C1C0
FF80
3F00
ENDCHAR
STARTCHAR Scedilla
ENCODING 350
SWIDTH 667 0
DWIDTH 16 0
BBX 14 24 1 -5
BITMAP
07C0
1FF0
3838
7018
6018
6000
7000
3E00
0FC0
01F0
0078
001C
000C
C00C
C00C
E01C
7838
3FF0
0FC0
0380
00C0
00C0
07C0
0380
ENDCHAR
STARTCHAR scedilla
ENCODING 351
SWIDTH 500 0
DWIDTH 12 0
BBX 10 19 1 -5
BITMAP
3E00
7F80
E1C0
C0C0
C000
F800
7F00
0F80
01C0
00C0
C0C0
C1C0
FF80
3F00
0E00
0300
0300
1F00
0E00
ENDCHAR
STARTCHAR Scaron
ENCODING 352
SWIDTH 667 0
DWIDTH 16 0
BBX 13 19 2 0
BITMAP
30C0
1980
0F00
0600
0000
0F80
3FE0
7060
6000
6000
7000
3FC0
0FF0
0038
0018
C018
E030
7FF0
1FC0
ENDCHAR
STARTCHAR scaron
ENCODING 353
SWIDTH 500 0
DWIDTH 12 0
BBX 10 19 1 0
BITMAP
6180
3300
1E00
0C00
0000
3E00
7F00
E380
C180
C000
F800
7F00
0F80
01C0
C0C0
C0C0
E1C0
7F80
3F00
ENDCHAR
STARTCHAR Tcommaaccent
ENCODING 354
SWIDTH 611 0
DWIDTH 16 0
BBX 14 24 1 -5
BITMAP
FFFC
FFFC
0300
0300
0300
0300
0300
0300
0300
0300
0300
0300
0300
0300
0300
0300
0300
0300
0300
0380
00C0
00C0
07C0
0380
ENDCHAR
STARTCHAR tcommaaccent
ENCODING 355
SWIDTH 278 0
DWIDTH 8 0
BBX 6 23 1 -5
BITMAP
30
30
30
30
FC
FC
30
30
30
30
30
30
30
30
30
30
3C
3C
38
0C
0C
7C
38
ENDCHAR
STARTCHAR Tcaron
ENCODING 356
SWIDTH 611 0
DWIDTH 16 0
BBX 14 24 1 0
BITMAP
1860
0CC0
0780
0300
0000
FFFC
FFFC
0300
0300
0300
0300
0300
0300
0300
0300
0300
0300
0300
0300
0300
0300
0300
0300
0300
ENDCHAR
STARTCHAR tcaron
ENCODING 357
SWIDTH 486 0
DWIDTH 14 0
BBX 11 19 1 0
BITMAP
0060
3060
3060
3020
3020
FC40
FC00
3000
3000
3000
3000
3000
3000
3000
3000
3000
3000
3C00
1C00
ENDCHAR
STARTCHAR Tbar
ENCODING 358
SWIDTH 611 0
DWIDTH 16 0
BBX 14 19 1 0
BITMAP
FFFC
FFFC
0300
0300
0300
0300
0300
0300
0FC0
0FC0
0300
0300
0300
0300
0300
0300
0300
0300
0300
ENDCHAR
STARTCHAR tbar
ENCODING 359
SWIDTH 278 0
DWIDTH 8 0
BBX 6 18 1 0
BITMAP
30
30
30
30
FC
FC
30
30
30
30
FC
FC
30
30
30
30
3C
1C
ENDCHAR
STARTCHAR Utilde
ENCODING 360
SWIDTH 722 0
DWIDTH 18 0
BBX 14 23 2 0
BITMAP
0E20
1B60
11C0
0000
C00C
C00C
C00C
C00C
C00C
C00C
C00C
C00C
C00C
C00C
C00C
C00C
C00C
C00C
C00C
6018
7038
3FF0
0FC0
ENDCHAR
STARTCHAR utilde
ENCODING 361
SWIDTH 556 0
DWIDTH 14 0
BBX 10 18 2 0
BITMAP
3880
6D80
4700
0000
C0C0
C0C0
C0C0
C0C0
C0C0
C0C0
C0C0
C0C0
C0C0
C0C0
C1C0
63C0
7EC0
1CC0
ENDCHAR
STARTCHAR Umacron
ENCODING 362
SWIDTH 722 0
DWIDTH 18 0
BBX 14 22 2 0
BITMAP
0FC0
0FC0
0000
C00C
C00C
C00C
C00C
C00C
C00C
C00C
C00C
C00C
C00C
C00C
C00C
C00C
C00C
C00C
6018
7038
3FF0
0FC0
ENDCHAR
STARTCHAR umacron
ENCODING 363
SWIDTH 556 0
DWIDTH 14 0
BBX 10 17 2 0
BITMAP
3F00
3F00
0000
C0C0
C0C0
C0C0
C0C0
C0C0
C0C0
C0C0
C0C0
C0C0
C0C0
C1C0
63C0
7EC0
1CC0
ENDCHAR
STARTCHAR Ubreve
ENCODING 364
SWIDTH 722 0
DWIDTH 18 0
BBX 14 24 2 0
BITMAP
1020
1860
0FC0
0780
0000
C00C
C00C
C00C
C00C
C00C
C00C
C00C
C00C
C00C
C00C
C00C
C00C
C00C
C00C
C00C
6018
7038
3FF0
0FC0
ENDCHAR
STARTCHAR ubreve
ENCODING 365
SWIDTH 556 0
DWIDTH 14 0
BBX 10 19 2 0
BITMAP
4080
6180
3F00
1E00
0000
C0C0
C0C0
C0C0
C0C0
C0C0
C0C0
C0C0
C0C0
C0C0
C0C0
C1C0
63C0
7EC0
1CC0
ENDCHAR
STARTCHAR Uring
ENCODING 366
SWIDTH 722 0
DWIDTH 18 0
BBX 14 25 2 0
BITMAP
0300
0780
0480
0780
0300
0000
C00C
C00C
C00C
C00C
C00C
C00C
C00C
C00C
C00C
C00C
C00C
C00C
C00C
C00C
C00C
6018
7038
3FF0
0FC0
ENDCHAR
STARTCHAR uring
ENCODING 367
SWIDTH 556 0
DWIDTH 14 0
BBX 10 20 2 0
BITMAP
0C00
1E00
1200
1E00
0C00
0000
C0C0
C0C0
C0C0
C0C0
C0C0
C0C0
C0C0
C0C0
C0C0
C0C0
C1C0
63C0
7EC0
1CC0
ENDCHAR
STARTCHAR Uhungarumlaut
ENCODING 368
SWIDTH 722 0
DWIDTH 18 0
BBX 14 23 2 0
BITMAP
0360
06C0
0D80
0000
C00C
C00C
C00C
C00C
C00C
C00C
C00C
C00C
C00C
C00C
C00C
C00C
C00C
C00C
C00C
6018
7038
3FF0
0FC0
ENDCHAR
STARTCHAR uhungarumlaut
ENCODING 369
SWIDTH 556 0
DWIDTH 14 0
BBX 10 18 2 0
BITMAP
0D80
1B00
3600
0000
C0C0
C0C0
C0C0
C0C0
C0C0
C0C0
C0C0
C0C0
C0C0
C0C0
C1C0
63C0
7EC0
1CC0
ENDCHAR
STARTCHAR Uogonek
ENCODING 370
SWIDTH 722 0
DWIDTH 18 0
BBX 14 24 2 -5
BITMAP
C00C
C00C
C00C
C00C
C00C
C00C
C00C
C00C
C00C
C00C
C00C
C00C
C00C
C00C
C00C
6018
7038
3FF0
0FC0
0600
0C00
0C00
0F80
0700
ENDCHAR
STARTCHAR uogonek
ENCODING 371
SWIDTH 556 0
DWIDTH 14 0
BBX 10 19 2 -5
BITMAP
C0C0
C0C0
C0C0
C0C0
C0C0
C0C0
C0C0
C0C0
C0C0
C0C0
C1C0
63C0
7EC0
1FC0
0C00
1800
1800
1F00
0E00
ENDCHAR
STARTCHAR Wcircumflex
ENCODING 372
SWIDTH 944 0
DWIDTH 22 0
BBX 20 24 1 0
BITMAP
006000
00F000
019800
030C00
000000
C06030
C06030
C06030
C0F030
60F060
619860
619860
619860
619860
3198C0
330CC0
330CC0
330CC0
1B0D80
1B0D80
1E0780
0E0700
0C0300
0C0300
ENDCHAR
STARTCHAR wcircumflex
ENCODING 373
SWIDTH 722 0
DWIDTH 18 0
BBX 18 19 0 0
BITMAP
00C000
01E000
033000
061800
000000
C0C0C0
C0C0C0
61E180
61E180
61E180
312300
333300
333300
1B3600
1A1600
1E1E00
0E1C00
0C0C00
0C0C00
ENDCHAR
STARTCHAR Ycircumflex
ENCODING 374
SWIDTH 667 0
DWIDTH 16 0
BBX 14 24 1 0
BITMAP
0300
0780
0CC0
1860
0000
C00C
E01C
6018
7038
3030
3870
1860
1CE0
0CC0
0FC0
0780
0780
0300
0300
0300
0300
0300
0300
0300
ENDCHAR
STARTCHAR ycircumflex
ENCODING 375
SWIDTH 500 0
DWIDTH 13 0
BBX 12 24 0 -5
BITMAP
0600
0F00
1980
30C0
0000
C030
C030
6030
7060
3060
38E0
18C0
18C0
0D80
0D80
0780
0700
0300
0300
0600
0600
0C00
3C00
3800
ENDCHAR
STARTCHAR Ydieresis
ENCODING 376
SWIDTH 667 0
DWIDTH 16 0
BBX 12 19 2 0
BITMAP
1980
1980
0000
0000
0000
C030
E070
70E0
30C0
1980
0F00
0F00
0600
0600
0600
0600
0600
0600
0600
ENDCHAR
STARTCHAR Zacute
ENCODING 377
SWIDTH 611 0
DWIDTH 15 0
BBX 13 24 1 0
BITMAP
00C0
0180
0300
0600
0000
FFF8
FFF8
0038
0070
00E0
01C0
01C0
0380
0700
0700
0E00
1C00
1C00
3800
7000
7000
E000
FFF8
FFF8
ENDCHAR
STARTCHAR zacute
ENCODING 378
SWIDTH 500 0
DWIDTH 12 0
BBX 10 19 1 0
BITMAP
0300
0600
0C00
1800
0000
FFC0
FFC0
0180
0300
0700
0E00
0C00
1C00
3800
3000
6000
E000
FFC0
FFC0
ENDCHAR
STARTCHAR Zdotaccent
ENCODING 379
SWIDTH 611 0
DWIDTH 15 0
BBX 13 22 1 0
BITMAP
0300
0300
0000
FFF8
FFF8
0038
0070
00E0
01C0
01C0
0380
0700
0700
0E00
1C00
1C00
3800
7000
7000
E000
FFF8
FFF8
ENDCHAR
STARTCHAR zdotaccent
ENCODING 380
SWIDTH 500 0
DWIDTH 12 0
BBX 10 17 1 0
BITMAP
0C00
0C00
0000
FFC0
FFC0
0180
0300
0700
0E00
0C00
1C00
3800
3000
6000
E000
FFC0
FFC0
ENDCHAR
STARTCHAR Zcaron
ENCODING 381
SWIDTH 611 0
DWIDTH 15 0
BBX 13 19 1 0
BITMAP
30C0
1980
0F00
0600
0000
FFF8
FFF8
0038
0070
00E0
01C0
0780
0E00
1C00
3800
7000
E000
FFF8
FFF8
ENDCHAR
STARTCHAR zcaron
ENCODING 382
SWIDTH 500 0
DWIDTH 12 0
BBX 10 19 1 0
BITMAP
6180
3300
1E00
0C00
0000
FFC0
FFC0
0180
0300
0700
0E00
0C00
1C00
3800
3000
6000
E000
FFC0
FFC0
ENDCHAR
STARTCHAR uni0186
ENCODING 390
SWIDTH 722 0
DWIDTH 18 0
BBX 16 19 1 0
BITMAP
07E0
1FF8
3C3C
700E
6006
C007
C003
0003
0003
0003
0003
0003
0003
6007
6006
700E
3C3C
1FF8
07E0
ENDCHAR
STARTCHAR uni0189
ENCODING 393
SWIDTH 722 0
DWIDTH 18 0
BBX 17 19 0 0
BITMAP
3FF000
3FFC00
301E00
300700
300300
300380
300180
300180
FF0180
FF0180
300180
300180
300180
300380
300300
300700
301E00
3FFC00
3FF000
ENDCHAR
STARTCHAR uni018E
ENCODING 398
SWIDTH 667 0
DWIDTH 16 0
BBX 12 19 2 0
BITMAP
FFF0
FFF0
0030
0030
0030
0030
0030
0030
0030
7FF0
7FF0
0030
0030
0030
0030
0030
0030
FFF0
FFF0
ENDCHAR
STARTCHAR florin
ENCODING 402
SWIDTH 556 0
DWIDTH 11 0
BBX 11 23 0 -5
BITMAP
01E0
03E0
0700
0600
0600
0600
7FC0
7FC0
0C00
0C00
0C00
0C00
0C00
0C00
0C00
0C00
0C00
0C00
1800
1800
3800
F000
E000
ENDCHAR
STARTCHAR uni0197
ENCODING 407
SWIDTH 278 0
DWIDTH 8 0
BBX 6 19 1 0
BITMAP
30
30
30
30
30
30
30
30
FC
FC
30
30
30
30
30
30
30
30
30
ENDCHAR
STARTCHAR uni019A
ENCODING 410
SWIDTH 222 0
DWIDTH 6 0
BBX 6 19 0 0
BITMAP
30
30
30
30
30
30
30
30
FC
FC
30
30
30
30
30
30
30
30
30
ENDCHAR
STARTCHAR uni019D
ENCODING 413
SWIDTH 722 0
DWIDTH 18 0
BBX 16 24 0 -5
BITMAP
3803
3C03
3C03
3603
3703
3303
3383
3183
31C3
30C3
30E3
3063
3073
3033
303B
301B
300F
300F
3007
3000
3000
3000
F000
E000
ENDCHAR
STARTCHAR uni019F
ENCODING 415
SWIDTH 778 0
DWIDTH 18 0
BBX 16 19 1 0
BITMAP
07E0
1FF8
3C3C
700E
6006
E007
C003
C003
FFFF
FFFF
C003
C003
C003
E007
6006
700E
3C3C
1FF8
07E0
ENDCHAR
STARTCHAR Ohorn
ENCODING 416
SWIDTH 778 0
DWIDTH 18 0
BBX 17 19 1 0
BITMAP
07E180
1FF980
3C3D80
700E80
600680
E00700
C00300
C00300
C00300
C00300
C00300
C00300
C00300
E00700
600600
700E00
3C3C00
1FF800
07E000
ENDCHAR
STARTCHAR ohorn
ENCODING 417
SWIDTH 556 0
DWIDTH 13 0
BBX 12 14 1 0
BITMAP
1F30
3FB0
71F0
60D0
C070
C060
C060
C060
C060
C060
60C0
71C0
3F80
1F00
ENDCHAR
STARTCHAR uni01A7
ENCODING 423
SWIDTH 667 0
DWIDTH 16 0
BBX 14 19 1 0
BITMAP
0F80
3FE0
7070
6038
6018
0018
0038
01F0
0FC0
3E00
7800
E000
C000
C00C
C00C
E01C
7078
3FF0
0FC0
ENDCHAR
STARTCHAR uni01A8
ENCODING 424
SWIDTH 500 0
DWIDTH 12 0
BBX 10 14 1 0
BITMAP
1F00
7F80
E1C0
C0C0
00C0
07C0
3F80
7C00
E000
C000
C0C0
E0C0
7FC0
3F00
ENDCHAR
STARTCHAR uni01AE
ENCODING 430
SWIDTH 611 0
DWIDTH 16 0
BBX 14 24 1 -5
BITMAP
FFFC
FFFC
0300
0300
0300
0300
0300
0300
0300
0300
0300
0300
0300
0300
0300
0300
0300
0300
0300
0300
0300
0300
03C0
01C0
ENDCHAR
STARTCHAR Uhorn
ENCODING 431
SWIDTH 722 0
DWIDTH 18 0
BBX 15 19 2 0
BITMAP
C00E
C00E
C00E
C00E
C00E
C00C
C00C
C00C
C00C
C00C
C00C
C00C
C00C
C00C
C00C
6018
7038
3FF0
0FC0
ENDCHAR
STARTCHAR uhorn
ENCODING 432
SWIDTH 556 0
DWIDTH 14 0
BBX 11 14 2 0
BITMAP
C0E0
C0E0
C0E0
C0E0
C0E0
C0C0
C0C0
C0C0
C0C0
C0C0
C1C0
63C0
7EC0
1CC0
ENDCHAR
STARTCHAR uni01B5
ENCODING 437
SWIDTH 611 0
DWIDTH 15 0
BBX 13 19 1 0
BITMAP
FFF8
FFF8
0038
0070
00E0
01C0
01C0
0380
0FC0
0FC0
0E00
1C00
1C00
3800
7000
7000
E000
FFF8
FFF8
ENDCHAR
STARTCHAR uni01B6
ENCODING 438
SWIDTH 500 0
DWIDTH 12 0
BBX 10 14 1 0
BITMAP
FFC0
FFC0
0180
0300
0700
0E00
3F00
3F00
3800
3000
6000
E000
FFC0
FFC0
ENDCHAR
STARTCHAR uni01BB
ENCODING 443
SWIDTH 556 0
DWIDTH 13 0
BBX 11 18 1 0
BITMAP
1E00
7F80
61C0
C0C0
C060
C060
0060
00C0
FFE0
FFE0
0F00
1C00
3800
7000
E000
C000
FFE0
FFE0
ENDCHAR
STARTCHAR uni01BC
ENCODING 444
SWIDTH 556 0
DWIDTH 13 0
BBX 11 18 1 0
BITMAP
7FC0
7FC0
6000
6000
6000
6000
6E00
7F80
71C0
00C0
0060
0060
0060
C060
C0C0
E1C0
7F80
1E00
ENDCHAR
STARTCHAR uni01C0
ENCODING 448
SWIDTH 260 0
DWIDTH 6 0
BBX 2 24 2 -5
BITMAP
C0
C0
C0
C0
C0
C0
C0
C0
C0
C0
C0
C0
C0
C0
C0
C0
C0
C0
C0
C0
C0
C0
C0
C0
ENDCHAR
STARTCHAR uni01C2
ENCODING 450
SWIDTH 584 0
DWIDTH 15 0
BBX 10 24 2 -4
BITMAP
0C00
0C00
0C00
0C00
0C00
0C00
0C00
0C00
0C00
FFC0
FFC0
0C00
0C00
FFC0
FFC0
0C00
0C00
0C00
0C00
0C00
0C00
0C00
0C00
0C00
ENDCHAR
STARTCHAR uni01C3
ENCODING 451
SWIDTH 278 0
DWIDTH 6 0
BBX 2 19 2 0
BITMAP
C0
C0
C0
C0
C0
C0
C0
C0
C0
C0
C0
C0
80
80
00
00
C0
C0
C0
ENDCHAR
STARTCHAR uni01CD
ENCODING 461
SWIDTH 667 0
DWIDTH 17 0
BBX 15 24 1 0
BITMAP
1860
0CC0
0780
0300
0000
0380
0380
06C0
06C0
0C40
0C60
0C60
1830
1830
1830
3018
3FF8
3FF8
600C
600C
600C
C006
C006
C006
ENDCHAR
STARTCHAR uni01CE
ENCODING 462
SWIDTH 556 0
DWIDTH 13 0
BBX 11 19 1 0
BITMAP
30C0
1980
0F00
0600
0000
1F00
3F80
61C0
60C0
00C0
07C0
3FC0
78C0
E0C0
C0C0
C1C0
E3C0
7EE0
3C60
ENDCHAR
STARTCHAR uni01CF
ENCODING 463
SWIDTH 278 0
DWIDTH 8 0
BBX 8 24 0 0
BITMAP
C3
66
3C
18
00
18
18
18
18
18
18
18
18
18
18
18
18
18
18
18
18
18
18
18
ENDCHAR
STARTCHAR uni01D0
ENCODING 464
SWIDTH 278 0
DWIDTH 6 0
BBX 8 19 -1 0
BITMAP
C3
66
3C
18
00
18
18
18
18
18
18
18
18
18
18
18
18
18
18
ENDCHAR
STARTCHAR uni01D1
ENCODING 465
SWIDTH 778 0
DWIDTH 18 0
BBX 16 24 1 0
BITMAP
0C30
0660
03C0
0180
0000
07E0
1FF8
3C3C
700E
6006
E007
C003
C003
C003
C003
C003
C003
C003
E007
6006
700E
3C3C
1FF8
07E0
ENDCHAR
STARTCHAR uni01D2
ENCODING 466
SWIDTH 556 0
DWIDTH 13 0
BBX 11 19 1 0
BITMAP
30C0
1980
0F00
0600
0000
1F00
3F80
71C0
60C0
C060
C060
C060
C060
C060
C060
60C0
71C0
3F80
1F00
ENDCHAR
STARTCHAR uni01D3
ENCODING 467
SWIDTH 722 0
DWIDTH 18 0
BBX 14 24 2 0
BITMAP
1860
0CC0
0780
0300
0000
C00C
C00C
C00C
C00C
C00C
C00C
C00C
C00C
C00C
C00C
C00C
C00C
C00C
C00C
C00C
6018
7038
3FF0
0FC0
ENDCHAR
STARTCHAR uni01D4
ENCODING 468
SWIDTH 556 0
DWIDTH 14 0
BBX 10 19 2 0
BITMAP
6180
3300
1E00
0C00
0000
C0C0
C0C0
C0C0
C0C0
C0C0
C0C0
C0C0
C0C0
C0C0
C0C0
C1C0
63C0
7EC0
1CC0
ENDCHAR
STARTCHAR uni01D5
ENCODING 469
SWIDTH 722 0
DWIDTH 18 0
BBX 14 26 2 0
BITMAP
0FC0
0FC0
0000
0CC0
0CC0
0000
0000
C00C
C00C
C00C
C00C
C00C
C00C
C00C
C00C
C00C
C00C
C00C
C00C
C00C
C00C
C00C
6018
7038
3FF0
0FC0
ENDCHAR
STARTCHAR uni01D6
ENCODING 470
SWIDTH 556 0
DWIDTH 14 0
BBX 10 21 2 0
BITMAP
3F00
3F00
0000
3300
3300
0000
0000
C0C0
C0C0
C0C0
C0C0
C0C0
C0C0
C0C0
C0C0
C0C0
C0C0
C1C0
63C0
7EC0
1CC0
ENDCHAR
STARTCHAR uni01D7
ENCODING 471
SWIDTH 722 0
DWIDTH 18 0
BBX 14 28 2 0
BITMAP
00C0
0180
0300
0600
0000
0CC0
0CC0
0000
0000
C00C
C00C
C00C
C00C
C00C
C00C
C00C
C00C
C00C
C00C
C00C
C00C
C00C
C00C
C00C
6018
7038
3FF0
0FC0
ENDCHAR
STARTCHAR uni01D8
ENCODING 472
SWIDTH 556 0
DWIDTH 14 0
BBX 10 23 2 0
BITMAP
0300
0600
0C00
1800
0000
3300
3300
0000
0000
C0C0
C0C0
C0C0
C0C0
C0C0
C0C0
C0C0
C0C0
C0C0
C0C0
C1C0
63C0
7EC0
1CC0
ENDCHAR
STARTCHAR uni01D9
ENCODING 473
SWIDTH 722 0
DWIDTH 18 0
BBX 14 28 2 0
BITMAP
1860
0CC0
0780
0300
0000
0CC0
0CC0
0000
0000
C00C
C00C
C00C
C00C
C00C
C00C
C00C
C00C
C00C
C00C
C00C
C00C
C00C
C00C
C00C
6018
7038
3FF0
0FC0
ENDCHAR
STARTCHAR uni01DA
ENCODING 474
SWIDTH 556 0
DWIDTH 14 0
BBX 10 23 2 0
BITMAP
6180
3300
1E00
0C00
0000
3300
3300
0000
0000
C0C0
C0C0
C0C0
C0C0
C0C0
C0C0
C0C0
C0C0
C0C0
C0C0
C1C0
63C0
7EC0
1CC0
ENDCHAR
STARTCHAR uni01DB
ENCODING 475
SWIDTH 722 0
DWIDTH 18 0
BBX 14 28 2 0
BITMAP
0C00
0600
0300
0180
0000
0CC0
0CC0
0000
0000
C00C
C00C
C00C
C00C
C00C
C00C
C00C
C00C
C00C
C00C
C00C
C00C
C00C
C00C
C00C
6018
7038
3FF0
0FC0
ENDCHAR
STARTCHAR uni01DC
ENCODING 476
SWIDTH 556 0
DWIDTH 14 0
BBX 10 23 2 0
BITMAP
3000
1800
0C00
0600
0000
3300
3300
0000
0000
C0C0
C0C0
C0C0
C0C0
C0C0
C0C0
C0C0
C0C0
C0C0
C0C0
C1C0
63C0
7EC0
1CC0
ENDCHAR
STARTCHAR uni01DD
ENCODING 477
SWIDTH 556 0
DWIDTH 13 0
BBX 11 14 1 0
BITMAP
1E00
7F80
E1C0
C0C0
0060
0060
FFE0
FFE0
C060
C060
60C0
71C0
3F80
0E00
ENDCHAR
STARTCHAR uni01DE
ENCODING 478
SWIDTH 667 0
DWIDTH 17 0
BBX 15 26 1 0
BITMAP
07E0
07E0
0000
0C60
0C60
0000
0000
0380
0380
06C0
06C0
0C40
0C60
0C60
1830
1830
1830
3018
3FF8
3FF8
600C
600C
600C
C006
C006
C006
ENDCHAR
STARTCHAR uni01DF
ENCODING 479
SWIDTH 556 0
DWIDTH 13 0
BBX 11 21 1 0
BITMAP
1F80
1F80
0000
1980
1980
0000
0000
1F00
3F80
61C0
60C0
00C0
07C0
3FC0
78C0
E0C0
C0C0
C1C0
E3C0
7EE0
3C60
ENDCHAR
STARTCHAR uni01E0
ENCODING 480
SWIDTH 667 0
DWIDTH 17 0
BBX 15 25 1 0
BITMAP
0FC0
0FC0
0000
0300
0300
0000
0380
0380
06C0
06C0
0C40
0C60
0C60
1830
1830
1830
3018
3FF8
3FF8
600C
600C
600C
C006
C006
C006
ENDCHAR
STARTCHAR uni01E1
ENCODING 481
SWIDTH 556 0
DWIDTH 13 0
BBX 11 20 1 0
BITMAP
1F80
1F80
0000
0600
0600
0000
1F00
3F80
61C0
60C0
00C0
07C0
3FC0
78C0
E0C0
C0C0
C1C0
E3C0
7EE0
3C60
ENDCHAR
STARTCHAR uni01E2
ENCODING 482
SWIDTH 1000 0
DWIDTH 23 0
BBX 21 22 1 0
BITMAP
00FC00
00FC00
000000
03FFF8
03FFF8
066000
066000
0C6000
0C6000
0C6000
186000
187FF8
187FF8
306000
3FE000
3FE000
606000
606000
606000
C06000
C07FF8
C07FF8
ENDCHAR
STARTCHAR uni01E3
ENCODING 483
SWIDTH 889 0
DWIDTH 21 0
BBX 19 17 1 0
BITMAP
03F000
03F000
000000
1F0E00
3FBF80
61F1C0
60E0C0
00C060
07C060
3FFFE0
78FFE0
E0C000
C0C000
C1E060
E3F0E0
7E3FC0
3C0F00
ENDCHAR
STARTCHAR uni01E4
ENCODING 484
SWIDTH 778 0
DWIDTH 19 0
BBX 16 19 1 0
BITMAP
07E0
1FF8
3C3C
700E
6006
E006
C000
C000
C000
C07F
C07F
C003
C003
E03F
603F
700F
3C3F
1FFB
07E3
ENDCHAR
STARTCHAR uni01E5
ENCODING 485
SWIDTH 556 0
DWIDTH 14 0
BBX 11 19 1 -5
BITMAP
1E60
3F60
71E0
60E0
C060
C060
C060
C060
C060
C060
60E0
71E0
3F60
FFE0
FFE0
C060
E0C0
7FC0
1F00
ENDCHAR
STARTCHAR Gcaron
ENCODING 486
SWIDTH 778 0
DWIDTH 19 0
BBX 16 24 1 0
BITMAP
0C30
0660
03C0
0180
0000
07E0
1FF8
3C3C
700E
6006
E006
C000
C000
C000
C07F
C07F
C003
C003
E003
6007
700F
3C3F
1FFB
07E3
ENDCHAR
STARTCHAR gcaron
ENCODING 487
SWIDTH 556 0
DWIDTH 14 0
BBX 11 24 1 -5
BITMAP
30C0
1980
0F00
0600
0000
1E60
3F60
71E0
60E0
C060
C060
C060
C060
C060
C060
60E0
71E0
3F60
1E60
0060
C060
E0C0
7FC0
1F00
ENDCHAR
STARTCHAR uni01E8
ENCODING 488
SWIDTH 667 0
DWIDTH 18 0
BBX 15 24 2 0
BITMAP
1860
0CC0
0780
0300
0000
C038
C070
C0E0
C1C0
C380
C700
CE00
DC00
FC00
FE00
E700
C380
C1C0
C0E0
C070
C038
C01C
C00E
C006
ENDCHAR
STARTCHAR uni01E9
ENCODING 489
SWIDTH 500 0
DWIDTH 12 0
BBX 12 24 0 0
BITMAP
C300
6600
3C00
1800
0000
3000
3000
3000
3000
3000
3060
30E0
31C0
3380
3700
3E00
3F00
3380
3180
31C0
30E0
3060
3070
3030
ENDCHAR
STARTCHAR uni01EA
ENCODING 490
SWIDTH 778 0
DWIDTH 18 0
BBX 16 24 1 -5
BITMAP
07E0
1FF8
3C3C
700E
6006
E007
C003
C003
C003
C003
C003
C003
C003
E007
6006
700E
3C3C
1FF8
07E0
0300
0600
0600
07C0
0380
ENDCHAR
STARTCHAR uni01EB
ENCODING 491
SWIDTH 556 0
DWIDTH 13 0
BBX 11 19 1 -5
BITMAP
1F00
3F80
71C0
60C0
C060
C060
C060
C060
C060
C060
60C0
71C0
3F80
1F00
0C00
1800
1800
1F00
0E00
ENDCHAR
STARTCHAR uni01EC
ENCODING 492
SWIDTH 778 0
DWIDTH 18 0
BBX 16 27 1 -5
BITMAP
07E0
07E0
0000
07E0
1FF8
3C3C
700E
6006
E007
C003
C003
C003
C003
C003
C003
C003
E007
6006
700E
3C3C
1FF8
07E0
0300
0600
0600
07C0
0380
ENDCHAR
STARTCHAR uni01ED
ENCODING 493
SWIDTH 556 0
DWIDTH 13 0
BBX 11 22 1 -5
BITMAP
1F80
1F80
0000
1F00
3F80
71C0
60C0
C060
C060
C060
C060
C060
C060
60C0
71C0
3F80
1F00
0C00
1800
1800
1F00
0E00
ENDCHAR
STARTCHAR uni01F0
ENCODING 496
SWIDTH 222 0
DWIDTH 6 0
BBX 8 24 -1 -5
BITMAP
C3
66
3C
18
00
18
18
18
18
18
18
18
18
18
18
18
18
18
18
18
18
18
78
70
ENDCHAR
STARTCHAR uni01F4
ENCODING 500
SWIDTH 778 0
DWIDTH 19 0
BBX 16 24 1 0
BITMAP
0060
00C0
0180
0300
0000
07E0
1FF8
3C3C
700E
6006
E006
C000
C000
C000
C07F
C07F
C003
C003
E003
6007
700F
3C3F
1FFB
07E3
ENDCHAR
STARTCHAR uni01F5
ENCODING 501
SWIDTH 556 0
DWIDTH 14 0
BBX 11 24 1 -5
BITMAP
0180
0300
0600
0C00
0000
1E60
3F60
71E0
60E0
C060
C060
C060
C060
C060
C060
60E0
71E0
3F60
1E60
0060
C060
E0C0
7FC0
1F00
ENDCHAR
STARTCHAR uni01F8
ENCODING 504
SWIDTH 722 0
DWIDTH 18 0
BBX 14 24 2 0
BITMAP
1800
0C00
0600
0300
0000
E00C
F00C
F00C
D80C
DC0C
CC0C
CE0C
C60C
C70C
C30C
C38C
C18C
C1CC
C0CC
C0EC
C06C
C03C
C03C
C01C
ENDCHAR
STARTCHAR uni01F9
ENCODING 505
SWIDTH 556 0
DWIDTH 14 0
BBX 10 19 2 0
BITMAP
6000
3000
1800
0C00
0000
CE00
DF80
F180
E0C0
C0C0
C0C0
C0C0
C0C0
C0C0
C0C0
C0C0
C0C0
C0C0
C0C0
ENDCHAR
STARTCHAR Aringacute
ENCODING 506
SWIDTH 667 0
DWIDTH 17 0
BBX 15 29 1 0
BITMAP
0060
00C0
0180
0300
0000
0380
06C0
06C0
0380
0000
0380
0380
06C0
06C0
0C40
0C60
0C60
1830
1830
1830
3018
3FF8
3FF8
600C
600C
600C
C006
C006
C006
ENDCHAR
STARTCHAR aringacute
ENCODING 507
SWIDTH 556 0
DWIDTH 13 0
BBX 11 24 1 0
BITMAP
0180
0300
0600
0C00
0000
0E00
1B00
1100
1B00
0E00
1F00
3F80
61C0
60C0
00C0
07C0
3FC0
78C0
E0C0
C0C0
C1C0
E3C0
7EE0
3C60
ENDCHAR
STARTCHAR AEacute
ENCODING 508
SWIDTH 1000 0
DWIDTH 23 0
BBX 21 24 1 0
BITMAP
000600
000C00
001800
003000
000000
03FFF8
03FFF8
066000
066000
0C6000
0C6000
0C6000
186000
187FF8
187FF8
306000
3FE000
3FE000
606000
606000
606000
C06000
C07FF8
C07FF8
ENDCHAR
STARTCHAR aeacute
ENCODING 509
SWIDTH 889 0
DWIDTH 21 0
BBX 19 19 1 0
BITMAP
001800
003000
006000
00C000
000000
1F0E00
3FBF80
61F1C0
60E0C0
00C060
07C060
3FFFE0
78FFE0
E0C000
C0C000
C1E060
E3F0E0
7E3FC0
3C0F00
ENDCHAR
STARTCHAR Oslashacute
ENCODING 510
SWIDTH 778 0
DWIDTH 18 0
BBX 18 24 0 0
BITMAP
001800
003000
006000
00C000
000000
03F040
0FFCC0
1E1F80
380700
300700
700D80
601980
603180
606180
60C180
618180
630180
660180
6C0380
380300
380700
7E1E00
CFFC00
83F000
ENDCHAR
STARTCHAR oslashacute
ENCODING 511
SWIDTH 611 0
DWIDTH 13 0
BBX 13 19 0 0
BITMAP
00C0
0180
0300
0600
0000
0F98
1FF0
38E0
3060
60F0
61B0
6330
6630
6630
6C30
3860
30E0
7FC0
CF80
ENDCHAR
STARTCHAR uni0200
ENCODING 512
SWIDTH 667 0
DWIDTH 17 0
BBX 15 23 1 0
BITMAP
1B00
0D80
06C0
0000
0380
0380
06C0
06C0
0C40
0C60
0C60
1830
1830
1830
3018
3FF8
3FF8
600C
600C
600C
C006
C006
C006
ENDCHAR
STARTCHAR uni0201
ENCODING 513
SWIDTH 556 0
DWIDTH 13 0
BBX 11 18 1 0
BITMAP
6C00
3600
1B00
0000
1F00
3F80
61C0
60C0
00C0
07C0
3FC0
78C0
E0C0
C0C0
C1C0
E3C0
7EE0
3C60
ENDCHAR
STARTCHAR uni0202
ENCODING 514
SWIDTH 667 0
DWIDTH 17 0
BBX 15 24 1 0
BITMAP
0780
0FC0
1860
1020
0000
0380
0380
06C0
06C0
0C40
0C60
0C60
1830
1830
1830
3018
3FF8
3FF8
600C
600C
600C
C006
C006
C006
ENDCHAR
STARTCHAR uni0203
ENCODING 515
SWIDTH 556 0
DWIDTH 13 0
BBX 11 19 1 0
BITMAP
0F00
1F80
30C0
2040
0000
1F00
3F80
61C0
60C0
00C0
07C0
3FC0
78C0
E0C0
C0C0
C1C0
E3C0
7EE0
3C60
ENDCHAR
STARTCHAR uni0204
ENCODING 516
SWIDTH 667 0
DWIDTH 16 0
BBX 12 23 2 0
BITMAP
6C00
3600
1B00
0000
FFF0
FFF0
C000
C000
C000
C000
C000
C000
FFE0
FFE0
C000
C000
C000
C000
C000
C000
C000
FFF0
FFF0
ENDCHAR
STARTCHAR uni0205
ENCODING 517
SWIDTH 556 0
DWIDTH 13 0
BBX 11 18 1 0
BITMAP
6C00
3600
1B00
0000
0E00
3F80
71C0
60C0
C060
C060
FFE0
FFE0
C000
C000
6060
70E0
3FC0
0F00
ENDCHAR
STARTCHAR uni0206
ENCODING 518
SWIDTH 667 0
DWIDTH 16 0
BBX 12 24 2 0
BITMAP
1E00
3F00
6180
4080
0000
FFF0
FFF0
C000
C000
C000
C000
C000
C000
FFE0
FFE0
C000
C000
C000
C000
C000
C000
C000
FFF0
FFF0
ENDCHAR
STARTCHAR uni0207
ENCODING 519
SWIDTH 556 0
DWIDTH 13 0
BBX 11 19 1 0
BITMAP
0F00
1F80
30C0
2040
0000
0E00
3F80
71C0
60C0
C060
C060
FFE0
FFE0
C000
C000
6060
70E0
3FC0
0F00
ENDCHAR
STARTCHAR uni0208
ENCODING 520
SWIDTH 278 0
DWIDTH 8 0
BBX 7 23 0 0
BITMAP
D8
6C
36
00
18
18
18
18
18
18
18
18
18
18
18
18
18
18
18
18
18
18
18
ENDCHAR
STARTCHAR uni0209
ENCODING 521
SWIDTH 278 0
DWIDTH 6 0
BBX 7 18 -1 0
BITMAP
D8
6C
36
00
18
18
18
18
18
18
18
18
18
18
18
18
18
18
ENDCHAR
STARTCHAR uni020A
ENCODING 522
SWIDTH 278 0
DWIDTH 8 0
BBX 8 24 0 0
BITMAP
3C
7E
C3
81
00
18
18
18
18
18
18
18
18
18
18
18
18
18
18
18
18
18
18
18
ENDCHAR
STARTCHAR uni020B
ENCODING 523
SWIDTH 278 0
DWIDTH 6 0
BBX 8 19 -1 0
BITMAP
3C
7E
C3
81
00
18
18
18
18
18
18
18
18
18
18
18
18
18
18
ENDCHAR
STARTCHAR uni020C
ENCODING 524
SWIDTH 778 0
DWIDTH 18 0
BBX 16 23 1 0
BITMAP
0D80
06C0
0360
0000
07E0
1FF8
3C3C
700E
6006
E007
C003
C003
C003
C003
C003
C003
C003
E007
6006
700E
3C3C
1FF8
07E0
ENDCHAR
STARTCHAR uni020D
ENCODING 525
SWIDTH 556 0
DWIDTH 13 0
BBX 11 18 1 0
BITMAP
6C00
3600
1B00
0000
1F00
3F80
71C0
60C0
C060
C060
C060
C060
C060
C060
60C0
71C0
3F80
1F00
ENDCHAR
STARTCHAR uni020E
ENCODING 526
SWIDTH 778 0
DWIDTH 18 0
BBX 16 24 1 0
BITMAP
03C0
07E0
0C30
0810
0000
07E0
1FF8
3C3C
700E
6006
E007
C003
C003
C003
C003
C003
C003
C003
E007
6006
700E
3C3C
1FF8
07E0
ENDCHAR
STARTCHAR uni020F
ENCODING 527
SWIDTH 556 0
DWIDTH 13 0
BBX 11 19 1 0
BITMAP
0F00
1F80
30C0
2040
0000
1F00
3F80
71C0
60C0
C060
C060
C060
C060
C060
C060
60C0
71C0
3F80
1F00
ENDCHAR
STARTCHAR uni0210
ENCODING 528
SWIDTH 722 0
DWIDTH 17 0
BBX 13 23 2 0
BITMAP
3600
1B00
0D80
0000
FFE0
FFF0
C030
C018
C018
C018
C018
C030
FFF0
FFE0
C070
C030
C018
C018
C018
C018
C018
C018
C018
ENDCHAR
STARTCHAR uni0211
ENCODING 529
SWIDTH 333 0
DWIDTH 9 0
BBX 7 18 1 0
BITMAP
D8
6C
36
00
66
6E
7E
70
60
60
60
60
60
60
60
60
60
60
ENDCHAR
STARTCHAR uni0212
ENCODING 530
SWIDTH 722 0
DWIDTH 17 0
BBX 13 24 2 0
BITMAP
0F00
1F80
30C0
2040
0000
FFE0
FFF0
C030
C018
C018
C018
C018
C030
FFF0
FFE0
C070
C030
C018
C018
C018
C018
C018
C018
C018
ENDCHAR
STARTCHAR uni0213
ENCODING 531
SWIDTH 333 0
DWIDTH 9 0
BBX 8 19 1 0
BITMAP
3C
7E
C3
81
00
66
6E
7E
70
60
60
60
60
60
60
60
60
60
60
ENDCHAR
STARTCHAR uni0214
ENCODING 532
SWIDTH 722 0
DWIDTH 18 0
BBX 14 23 2 0
BITMAP
1B00
0D80
06C0
0000
C00C
C00C
C00C
C00C
C00C
C00C
C00C
C00C
C00C
C00C
C00C
C00C
C00C
C00C
C00C
6018
7038
3FF0
0FC0
ENDCHAR
STARTCHAR uni0215
ENCODING 533
SWIDTH 556 0
DWIDTH 14 0
BBX 10 18 2 0
BITMAP
6C00
3600
1B00
0000
C0C0
C0C0
C0C0
C0C0
C0C0
C0C0
C0C0
C0C0
C0C0
C0C0
C1C0
63C0
7EC0
1CC0
ENDCHAR
STARTCHAR uni0216
ENCODING 534
SWIDTH 722 0
DWIDTH 18 0
BBX 14 24 2 0
BITMAP
0780
0FC0
1860
1020
0000
C00C
C00C
C00C
C00C
C00C
C00C
C00C
C00C
C00C
C00C
C00C
C00C
C00C
C00C
C00C
6018
7038
3FF0
0FC0
ENDCHAR
STARTCHAR uni0217
ENCODING 535
SWIDTH 556 0
DWIDTH 14 0
BBX 10 19 2 0
BITMAP
1E00
3F00
6180
4080
0000
C0C0
C0C0
C0C0
C0C0
C0C0
C0C0
C0C0
C0C0
C0C0
C0C0
C1C0
63C0
7EC0
1CC0
ENDCHAR
STARTCHAR Scommaaccent
ENCODING 536
SWIDTH 667 0
DWIDTH 16 0
BBX 14 26 1 -7
BITMAP
07C0
1FF0
3838
7018
6018
6000
7000
3E00
0FC0
01F0
0078
001C
000C
C00C
C00C
E01C
7838
3FF0
0FC0
0000
0300
0300
0300
0100
0100
0200
ENDCHAR
STARTCHAR scommaaccent
ENCODING 537
SWIDTH 500 0
DWIDTH 12 0
BBX 10 21 1 -7
BITMAP
3E00
7F80
E1C0
C0C0
C000
F800
7F00
0F80
01C0
00C0
C0C0
C1C0
FF80
3F00
0000
0C00
0C00
0C00
0400
0400
0800
ENDCHAR
STARTCHAR Tcommaaccent
ENCODING 538
SWIDTH 611 0
DWIDTH 16 0
BBX 14 26 1 -7
BITMAP
FFFC
FFFC
0300
0300
0300
0300
0300
0300
0300
0300
0300
0300
0300
0300
0300
0300
0300
0300
0300
0000
0300
0300
0300
0100
0100
0200
ENDCHAR
STARTCHAR tcommaaccent
ENCODING 539
SWIDTH 278 0
DWIDTH 8 0
BBX 6 25 1 -7
BITMAP
30
30
30
30
FC
FC
30
30
30
30
30
30
30
30
30
30
3C
1C
00
30
30
30
10
10
20
ENDCHAR
STARTCHAR uni021E
ENCODING 542
SWIDTH 722 0
DWIDTH 18 0
BBX 14 24 2 0
BITMAP
1860
0CC0
0780
0300
0000
C00C
C00C
C00C
C00C
C00C
C00C
C00C
C00C
FFFC
FFFC
C00C
C00C
C00C
C00C
C00C
C00C
C00C
C00C
C00C
ENDCHAR
STARTCHAR uni021F
ENCODING 543
SWIDTH 556 0
DWIDTH 13 0
BBX 12 24 0 0
BITMAP
C300
6600
3C00
1800
0000
3000
3000
3000
3000
3000
3380
37E0
3C60
3830
3030
3030
3030
3030
3030
3030
3030
3030
3030
3030
ENDCHAR
STARTCHAR uni0226
ENCODING 550
SWIDTH 667 0
DWIDTH 17 0
BBX 15 22 1 0
BITMAP
0300
0300
0000
0380
0380
06C0
06C0
0C40
0C60
0C60
1830
1830
1830
3018
3FF8
3FF8
600C
600C
600C
C006
C006
C006
ENDCHAR
STARTCHAR uni0227
ENCODING 551
SWIDTH 556 0
DWIDTH 13 0
BBX 11 17 1 0
BITMAP
0600
0600
0000
1F00
3F80
61C0
60C0
00C0
07C0
3FC0
78C0
E0C0
C0C0
C1C0
E3C0
7EE0
3C60
ENDCHAR
STARTCHAR uni0228
ENCODING 552
SWIDTH 667 0
DWIDTH 16 0
BBX 12 24 2 -5
BITMAP
FFF0
FFF0
C000
C000
C000
C000
C000
C000
FFE0
FFE0
C000
C000
C000
C000
C000
C000
C000
FFF0
FFF0
0E00
0300
0300
1F00
0E00
ENDCHAR
STARTCHAR uni0229
ENCODING 553
SWIDTH 556 0
DWIDTH 13 0
BBX 11 19 1 -5
BITMAP
0E00
3F80
71C0
60C0
C060
C060
FFE0
FFE0
C000
C000
6060
70E0
3FC0
0F00
0E00
0300
0300
1F00
0E00
ENDCHAR
STARTCHAR uni022A
ENCODING 554
SWIDTH 778 0
DWIDTH 18 0
BBX 16 26 1 0
BITMAP
07E0
07E0
0000
0660
0660
0000
0000
07E0
1FF8
3C3C
700E
6006
E007
C003
C003
C003
C003
C003
C003
C003
E007
6006
700E
3C3C
1FF8
07E0
ENDCHAR
STARTCHAR uni022B
ENCODING 555
SWIDTH 556 0
DWIDTH 13 0
BBX 11 21 1 0
BITMAP
1F80
1F80
0000
3180
3180
0000
0000
1F00
3F80
71C0
60C0
C060
C060
C060
C060
C060
C060
60C0
71C0
3F80
1F00
ENDCHAR
STARTCHAR uni022C
ENCODING 556
SWIDTH 778 0
DWIDTH 18 0
BBX 16 26 1 0
BITMAP
07E0
07E0
0000
0710
0DB0
08E0
0000
07E0
1FF8
3C3C
700E
6006
E007
C003
C003
C003
C003
C003
C003
C003
E007
6006
700E
3C3C
1FF8
07E0
ENDCHAR
STARTCHAR uni022D
ENCODING 557
SWIDTH 556 0
DWIDTH 13 0
BBX 11 21 1 0
BITMAP
1F80
1F80
0000
1C40
36C0
2380
0000
1F00
3F80
71C0
60C0
C060
C060
C060
C060
C060
C060
60C0
71C0
3F80
1F00
ENDCHAR
STARTCHAR uni022E
ENCODING 558
SWIDTH 778 0
DWIDTH 18 0
BBX 16 22 1 0
BITMAP
0180
0180
0000
07E0
1FF8
3C3C
700E
6006
E007
C003
C003
C003
C003
C003
C003
C003
E007
6006
700E
3C3C
1FF8
07E0
ENDCHAR
STARTCHAR uni022F
ENCODING 559
SWIDTH 556 0
DWIDTH 13 0
BBX 11 17 1 0
BITMAP
0600
0600
0000
1F00
3F80
71C0
60C0
C060
C060
C060
C060
C060
C060
60C0
71C0
3F80
1F00
ENDCHAR
STARTCHAR uni0230
ENCODING 560
SWIDTH 778 0
DWIDTH 18 0
BBX 16 25 1 0
BITMAP
07E0
07E0
0000
0180
0180
0000
07E0
1FF8
3C3C
700E
6006
E007
C003
C003
C003
C003
C003
C003
C003
E007
6006
700E
3C3C
1FF8
07E0
ENDCHAR
STARTCHAR uni0231
ENCODING 561
SWIDTH 556 0
DWIDTH 13 0
BBX 11 20 1 0
BITMAP
1F80
1F80
0000
0600
0600
0000
1F00
3F80
71C0
60C0
C060
C060
C060
C060
C060
C060
60C0
71C0
3F80
1F00
ENDCHAR
STARTCHAR uni0232
ENCODING 562
SWIDTH 667 0
DWIDTH 16 0
BBX 14 22 1 0
BITMAP
0FC0
0FC0
0000
C00C
E01C
6018
7038
3030
3870
1860
1CE0
0CC0
0FC0
0780
0780
0300
0300
0300
0300
0300
0300
0300
ENDCHAR
STARTCHAR uni0233
ENCODING 563
SWIDTH 500 0
DWIDTH 13 0
BBX 12 22 0 -5
BITMAP
1F80
1F80
0000
C030
C030
6030
7060
3060
38E0
18C0
18C0
0D80
0D80
0780
0700
0300
0300
0600
0600
0C00
3C00
3800
ENDCHAR
STARTCHAR uni0250
ENCODING 592
SWIDTH 556 0
DWIDTH 13 0
BBX 11 14 1 0
BITMAP
C780
EFC0
78E0
7060
6060
60E0
63C0
7F80
7C00
6000
60C0
70C0
3F80
1F00
ENDCHAR
STARTCHAR uni0254
ENCODING 596
SWIDTH 500 0
DWIDTH 12 0
BBX 10 14 1 0
BITMAP
3E00
7F00
E380
C180
00C0
00C0
00C0
00C0
00C0
00C0
C180
E380
7F00
3E00
ENDCHAR
STARTCHAR uni0258
ENCODING 600
SWIDTH 556 0
DWIDTH 13 0
BBX 11 14 1 0
BITMAP
0E00
3F80
71C0
60C0
C060
C060
FFE0
FFE0
0060
0060
C0C0
E1C0
7F80
1E00
ENDCHAR
STARTCHAR uni0259
ENCODING 601
SWIDTH 556 0
DWIDTH 13 0
BBX 11 14 1 0
BITMAP
1E00
7F80
E1C0
C0C0
0060
0060
FFE0
FFE0
C060
C060
60C0
71C0
3F80
0E00
ENDCHAR
STARTCHAR uni025F
ENCODING 607
SWIDTH 278 0
DWIDTH 8 0
BBX 6 19 1 -5
BITMAP
30
30
30
30
30
30
30
30
30
30
30
30
FC
FC
30
30
30
F0
E0
ENDCHAR
STARTCHAR uni0265
ENCODING 613
SWIDTH 556 0
DWIDTH 13 0
BBX 10 19 2 -5
BITMAP
C0C0
C0C0
C0C0
C0C0
C0C0
C0C0
C0C0
C0C0
C0C0
C0C0
C1C0
63C0
7EC0
1CC0
00C0
00C0
00C0
00C0
00C0
ENDCHAR
STARTCHAR uni0275
ENCODING 629
SWIDTH 556 0
DWIDTH 13 0
BBX 11 14 1 0
BITMAP
1F00
3F80
71C0
60C0
C060
C060
FFE0
FFE0
C060
C060
60C0
71C0
3F80
1F00
ENDCHAR
STARTCHAR uni0279
ENCODING 633
SWIDTH 333 0
DWIDTH 9 0
BBX 6 14 2 0
BITMAP
0C
0C
0C
0C
0C
0C
0C
0C
0C
0C
1C
FC
EC
CC
ENDCHAR
STARTCHAR uni0287
ENCODING 647
SWIDTH 278 0
DWIDTH 8 0
BBX 6 18 1 0
BITMAP
E0
F0
30
30
30
30
30
30
30
30
30
30
FC
FC
30
30
30
30
ENDCHAR
STARTCHAR uni0288
ENCODING 648
SWIDTH 278 0
DWIDTH 8 0
BBX 6 23 1 -5
BITMAP
30
30
30
30
FC
FC
30
30
30
30
30
30
30
30
30
30
30
30
30
30
30
3C
1C
ENDCHAR
STARTCHAR uni0289
ENCODING 649
SWIDTH 556 0
DWIDTH 14 0
BBX 10 14 2 0
BITMAP
C0C0
C0C0
C0C0
C0C0
C0C0
C0C0
FFC0
FFC0
C0C0
C0C0
C1C0
63C0
7EC0
1CC0
ENDCHAR
STARTCHAR uni028C
ENCODING 652
SWIDTH 500 0
DWIDTH 13 0
BBX 11 14 1 0
BITMAP
0E00
0E00
0E00
1B00
1B00
1B00
3180
3180
71C0
60C0
60C0
C060
C060
C060
ENDCHAR
STARTCHAR uni028D
ENCODING 653
SWIDTH 722 0
DWIDTH 18 0
BBX 18 14 0 0
BITMAP
0C0C00
0C0C00
0E1C00
1E1E00
1A1600
1B3600
333300
333300
312300
61E180
61E180
61E180
C0C0C0
C0C0C0
ENDCHAR
STARTCHAR uni028E
ENCODING 654
SWIDTH 500 0
DWIDTH 13 0
BBX 12 19 0 0
BITMAP
01C0
03C0
0300
0600
0600
0C00
0C00
0E00
1E00
1B00
1B00
3180
3180
71C0
60C0
60E0
C060
C030
C030
ENDCHAR
STARTCHAR uni029E
ENCODING 670
SWIDTH 500 0
DWIDTH 12 0
BBX 10 19 2 -5
BITMAP
C0C0
E0C0
60C0
70C0
38C0
18C0
1CC0
0FC0
07C0
0EC0
1CC0
38C0
70C0
60C0
00C0
00C0
00C0
00C0
00C0
ENDCHAR
STARTCHAR uni02BB
ENCODING 699
SWIDTH 222 0
DWIDTH 6 0
BBX 2 6 2 13
BITMAP
40
80
80
C0
C0
C0
ENDCHAR
STARTCHAR afii57929
ENCODING 700
SWIDTH 222 0
DWIDTH 6 0
BBX 2 6 2 13
BITMAP
C0
C0
C0
40
40
80
ENDCHAR
STARTCHAR afii64937
ENCODING 701
SWIDTH 222 0
DWIDTH 6 0
BBX 2 6 2 13
BITMAP
C0
C0
C0
80
80
40
ENDCHAR
STARTCHAR circumflex
ENCODING 710
SWIDTH 333 0
DWIDTH 8 0
BBX 8 4 0 15
BITMAP
18
3C
66
C3
ENDCHAR
STARTCHAR caron
ENCODING 711
SWIDTH 333 0
DWIDTH 8 0
BBX 8 4 0 15
BITMAP
C3
66
3C
18
ENDCHAR
STARTCHAR uni02C8
ENCODING 712
SWIDTH 191 0
DWIDTH 6 0
BBX 2 6 2 13
BITMAP
C0
C0
C0
C0
C0
40
ENDCHAR
STARTCHAR macron
ENCODING 713
SWIDTH 333 0
DWIDTH 8 0
BBX 6 2 1 16
BITMAP
FC
FC
ENDCHAR
STARTCHAR uni02CA
ENCODING 714
SWIDTH 333 0
DWIDTH 7 0
BBX 5 4 1 15
BITMAP
18
30
60
C0
ENDCHAR
STARTCHAR uni02CB
ENCODING 715
SWIDTH 333 0
DWIDTH 7 0
BBX 5 4 1 15
BITMAP
C0
60
30
18
ENDCHAR
STARTCHAR uni02CD
ENCODING 717
SWIDTH 333 0
DWIDTH 8 0
BBX 6 2 1 -3
BITMAP
FC
FC
ENDCHAR
STARTCHAR uni02CE
ENCODING 718
SWIDTH 333 0
DWIDTH 7 0
BBX 5 4 1 -5
BITMAP
C0
60
30
18
ENDCHAR
STARTCHAR uni02CF
ENCODING 719
SWIDTH 333 0
DWIDTH 7 0
BBX 5 4 1 -5
BITMAP
18
30
60
C0
ENDCHAR
STARTCHAR breve
ENCODING 728
SWIDTH 333 0
DWIDTH 8 0
BBX 8 4 0 15
BITMAP
81
C3
7E
3C
ENDCHAR
STARTCHAR dotaccent
ENCODING 729
SWIDTH 333 0
DWIDTH 8 0
BBX 2 2 3 16
BITMAP
C0
C0
ENDCHAR
STARTCHAR ring
ENCODING 730
SWIDTH 333 0
DWIDTH 8 0
BBX 4 5 2 14
BITMAP
60
F0
90
F0
60
ENDCHAR
STARTCHAR ogonek
ENCODING 731
SWIDTH 333 0
DWIDTH 7 0
BBX 5 6 2 -5
BITMAP
38
60
C0
C0
F8
70
ENDCHAR
STARTCHAR tilde
ENCODING 732
SWIDTH 333 0
DWIDTH 10 0
BBX 8 3 1 16
BITMAP
71
DB
8E
ENDCHAR
STARTCHAR hungarumlaut
ENCODING 733
SWIDTH 333 0
DWIDTH 9 0
BBX 7 3 1 16
BITMAP
36
6C
D8
ENDCHAR
STARTCHAR uni02EE
ENCODING 750
SWIDTH 333 0
DWIDTH 9 0
BBX 5 6 2 13
BITMAP
D8
D8
D8
48
48
90
ENDCHAR
STARTCHAR uni037E
ENCODING 894
SWIDTH 278 0
DWIDTH 6 0
BBX 2 17 2 -3
BITMAP
C0
C0
C0
00
00
00
00
00
00
00
00
C0
C0
C0
40
40
80
ENDCHAR
STARTCHAR tonos
ENCODING 900
SWIDTH 333 0
DWIDTH 7 0
BBX 5 4 1 15
BITMAP
18
30
60
C0
ENDCHAR
STARTCHAR dieresistonos
ENCODING 901
SWIDTH 333 0
DWIDTH 8 0
BBX 6 7 1 16
BITMAP
0C
18
30
60
00
CC
CC
ENDCHAR
STARTCHAR anoteleia
ENCODING 903
SWIDTH 278 0
DWIDTH 6 0
BBX 2 3 2 6
BITMAP
C0
C0
C0
ENDCHAR
STARTCHAR mu
ENCODING 956
SWIDTH 556 0
DWIDTH 14 0
BBX 10 19 2 -5
BITMAP
C0C0
C0C0
C0C0
C0C0
C0C0
C0C0
C0C0
C0C0
C0C0
C0C0
C1C0
E3C0
FEC0
DCC0
C000
C000
C000
C000
C000
ENDCHAR
STARTCHAR uni1E00
ENCODING 7680
SWIDTH 667 0
DWIDTH 17 0
BBX 15 25 1 -6
BITMAP
0380
0380
06C0
06C0
0C40
0C60
0C60
1830
1830
1830
3018
3FF8
3FF8
600C
600C
600C
C006
C006
C006
0000
0180
03C0
0240
03C0
0180
ENDCHAR
STARTCHAR uni1E01
ENCODING 7681
SWIDTH 556 0
DWIDTH 13 0
BBX 11 20 1 -6
BITMAP
1F00
3F80
61C0
60C0
00C0
07C0
3FC0
78C0
E0C0
C0C0
C1C0
E3C0
7EE0
3C60
0000
0600
0F00
0900
0F00
0600
ENDCHAR
STARTCHAR uni1E02
ENCODING 7682
SWIDTH 667 0
DWIDTH 17 0
BBX 14 22 2 0
BITMAP
0600
0600
0000
FFC0
FFF0
C070
C018
C018
C018
C018
C030
FFE0
FFF0
C018
C00C
C00C
C00C
C00C
C01C
C038
FFF0
FFC0
ENDCHAR
STARTCHAR uni1E03
ENCODING 7683
SWIDTH 556 0
DWIDTH 14 0
BBX 11 22 2 0
BITMAP
3000
3000
0000
C000
C000
C000
C000
C000
CF00
DF80
F1C0
E0C0
C060
C060
C060
C060
C060
C060
E0C0
F1C0
DF80
CF00
ENDCHAR
STARTCHAR uni1E04
ENCODING 7684
SWIDTH 667 0
DWIDTH 17 0
BBX 14 22 2 -3
BITMAP
FFC0
FFF0
C070
C018
C018
C018
C018
C030
FFE0
FFF0
C018
C00C
C00C
C00C
C00C
C01C
C038
FFF0
FFC0
0000
0300
0300
ENDCHAR
STARTCHAR uni1E05
ENCODING 7685
SWIDTH 556 0
DWIDTH 14 0
BBX 11 22 2 -3
BITMAP
C000
C000
C000
C000
C000
CF00
DF80
F1C0
E0C0
C060
C060
C060
C060
C060
C060
E0C0
F1C0
DF80
CF00
0000
0C00
0C00
ENDCHAR
STARTCHAR uni1E06
ENCODING 7686
SWIDTH 667 0
DWIDTH 17 0
BBX 14 22 2 -3
BITMAP
FFC0
FFF0
C070
C018
C018
C018
C018
C030
FFE0
FFF0
C018
C00C
C00C
C00C
C00C
C01C
C038
FFF0
FFC0
0000
0FC0
0FC0
ENDCHAR
STARTCHAR uni1E07
ENCODING 7687
SWIDTH 556 0
DWIDTH 14 0
BBX 11 22 2 -3
BITMAP
C000
C000
C000
C000
C000
CF00
DF80
F1C0
E0C0
C060
C060
C060
C060
C060
C060
E0C0
F1C0
DF80
CF00
0000
3F00
3F00
ENDCHAR
STARTCHAR uni1E08
ENCODING 7688
SWIDTH 722 0
DWIDTH 18 0
BBX 16 29 1 -5
BITMAP
0060
00C0
0180
0300
0000
07E0
1FF8
3C3C
700E
6006
E006
C000
C000
C000
C000
C000
C000
C003
E003
6006
700E
3C3C
1FF8
07E0
0380
00C0
00C0
07C0
0380
ENDCHAR
STARTCHAR uni1E09
ENCODING 7689
SWIDTH 500 0
DWIDTH 12 0
BBX 10 24 1 -5
BITMAP
0300
0600
0C00
1800
0000
1F00
3F80
71C0
60C0
C000
C000
C000
C000
C000
C000
60C0
71C0
3F80
1F00
1C00
0600
0600
3E00
1C00
ENDCHAR
STARTCHAR uni1E0A
ENCODING 7690
SWIDTH 722 0
DWIDTH 18 0
BBX 15 22 2 0
BITMAP
0300
0300
0000
FFC0
FFF0
C078
C01C
C00C
C00E
C006
C006
C006
C006
C006
C006
C006
C00E
C00C
C01C
C078
FFF0
FFC0
ENDCHAR
STARTCHAR uni1E0B
ENCODING 7691
SWIDTH 556 0
DWIDTH 14 0
BBX 11 22 1 0
BITMAP
00C0
00C0
0000
0060
0060
0060
0060
0060
1E60
3F60
71E0
60E0
C060
C060
C060
C060
C060
C060
60E0
71E0
3F60
1E60
ENDCHAR
STARTCHAR uni1E0C
ENCODING 7692
SWIDTH 722 0
DWIDTH 18 0
BBX 15 22 2 -3
BITMAP
FFC0
FFF0
C078
C01C
C00C
C00E
C006
C006
C006
C006
C006
C006
C006
C00E
C00C
C01C
C078
FFF0
FFC0
0000
0300
0300
ENDCHAR
STARTCHAR uni1E0D
ENCODING 7693
SWIDTH 556 0
DWIDTH 14 0
BBX 11 22 1 -3
BITMAP
0060
0060
0060
0060
0060
1E60
3F60
71E0
60E0
C060
C060
C060
C060
C060
C060
60E0
71E0
3F60
1E60
0000
0600
0600
ENDCHAR
STARTCHAR uni1E0E
ENCODING 7694
SWIDTH 722 0
DWIDTH 18 0
BBX 15 22 2 -3
BITMAP
FFC0
FFF0
C078
C01C
C00C
C00E
C006
C006
C006
C006
C006
C006
C006
C00E
C00C
C01C
C078
FFF0
FFC0
0000
0FC0
0FC0
ENDCHAR
STARTCHAR uni1E0F
ENCODING 7695
SWIDTH 556 0
DWIDTH 14 0
BBX 11 22 1 -3
BITMAP
0060
0060
0060
0060
0060
1E60
3F60
71E0
60E0
C060
C060
C060
C060
C060
C060
60E0
71E0
3F60
1E60
0000
1F80
1F80
ENDCHAR
STARTCHAR uni1E10
ENCODING 7696
SWIDTH 722 0
DWIDTH 18 0
BBX 15 24 2 -5
BITMAP
FFC0
FFF0
C078
C01C
C00C
C00E
C006
C006
C006
C006
C006
C006
C006
C00E
C00C
C01C
C078
FFF0
FFC0
0700
0180
0180
0F80
0700
ENDCHAR
STARTCHAR uni1E11
ENCODING 7697
SWIDTH 556 0
DWIDTH 14 0
BBX 11 24 1 -5
BITMAP
0060
0060
0060
0060
0060
1E60
3F60
71E0
60E0
C060
C060
C060
C060
C060
C060
60E0
71E0
3F60
1E60
0700
0180
0180
0F80
0700
ENDCHAR
STARTCHAR uni1E12
ENCODING 7698
SWIDTH 722 0
DWIDTH 18 0
BBX 15 24 2 -5
BITMAP
FFC0
FFF0
C078
C01C
C00C
C00E
C006
C006
C006
C006
C006
C006
C006
C00E
C00C
C01C
C078
FFF0
FFC0
0000
0300
0780
0CC0
1860
ENDCHAR
STARTCHAR uni1E13
ENCODING 7699
SWIDTH 556 0
DWIDTH 14 0
BBX 11 24 1 -5
BITMAP
0060
0060
0060
0060
0060
1E60
3F60
71E0
60E0
C060
C060
C060
C060
C060
C060
60E0
71E0
3F60
1E60
0000
0600
0F00
1980
30C0
ENDCHAR
STARTCHAR uni1E14
ENCODING 7700
SWIDTH 667 0
DWIDTH 16 0
BBX 12 27 2 0
BITMAP
3000
1800
0C00
0600
0000
3F00
3F00
0000
FFF0
FFF0
C000
C000
C000
C000
C000
C000
FFE0
FFE0
C000
C000
C000
C000
C000
C000
C000
FFF0
FFF0
ENDCHAR
STARTCHAR uni1E15
ENCODING 7701
SWIDTH 556 0
DWIDTH 13 0
BBX 11 22 1 0
BITMAP
1800
0C00
0600
0300
0000
1F80
1F80
0000
0E00
3F80
71C0
60C0
C060
C060
FFE0
FFE0
C000
C000
6060
70E0
3FC0
0F00
ENDCHAR
STARTCHAR uni1E16
ENCODING 7702
SWIDTH 667 0
DWIDTH 16 0
BBX 12 27 2 0
BITMAP
0180
0300
0600
0C00
0000
3F00
3F00
0000
FFF0
FFF0
C000
C000
C000
C000
C000
C000
FFE0
FFE0
C000
C000
C000
C000
C000
C000
C000
FFF0
FFF0
ENDCHAR
STARTCHAR uni1E17
ENCODING 7703
SWIDTH 556 0
DWIDTH 13 0
BBX 11 22 1 0
BITMAP
0180
0300
0600
0C00
0000
1F80
1F80
0000
0E00
3F80
71C0
60C0
C060
C060
FFE0
FFE0
C000
C000
6060
70E0
3FC0
0F00
ENDCHAR
STARTCHAR uni1E18
ENCODING 7704
SWIDTH 667 0
DWIDTH 16 0
BBX 12 24 2 -5
BITMAP
FFF0
FFF0
C000
C000
C000
C000
C000
C000
FFE0
FFE0
C000
C000
C000
C000
C000
C000
C000
FFF0
FFF0
0000
0C00
1E00
3300
6180
ENDCHAR
STARTCHAR uni1E19
ENCODING 7705
SWIDTH 556 0
DWIDTH 13 0
BBX 11 19 1 -5
BITMAP
0E00
3F80
71C0
60C0
C060
C060
FFE0
FFE0
C000
C000
6060
70E0
3FC0
0F00
0000
0600
0F00
1980
30C0
ENDCHAR
STARTCHAR uni1E1A
ENCODING 7706
SWIDTH 667 0
DWIDTH 16 0
BBX 12 23 2 -4
BITMAP
FFF0
FFF0
C000
C000
C000
C000
C000
C000
FFE0
FFE0
C000
C000
C000
C000
C000
C000
C000
FFF0
FFF0
0000
1C40
36C0
2380
ENDCHAR
STARTCHAR uni1E1B
ENCODING 7707
SWIDTH 556 0
DWIDTH 13 0
BBX 11 18 1 -4
BITMAP
0E00
3F80
71C0
60C0
C060
C060
FFE0
FFE0
C000
C000
6060
70E0
3FC0
0F00
0000
1C40
36C0
2380
ENDCHAR
STARTCHAR uni1E1C
ENCODING 7708
SWIDTH 667 0
DWIDTH 16 0
BBX 12 29 2 -5
BITMAP
4080
6180
3F00
1E00
0000
FFF0
FFF0
C000
C000
C000
C000
C000
C000
FFE0
FFE0
C000
C000
C000
C000
C000
C000
C000
FFF0
FFF0
0E00
0300
0300
1F00
0E00
ENDCHAR
STARTCHAR uni1E1D
ENCODING 7709
SWIDTH 556 0
DWIDTH 13 0
BBX 11 24 1 -5
BITMAP
2040
30C0
1F80
0F00
0000
0E00
3F80
71C0
60C0
C060
C060
FFE0
FFE0
C000
C000
6060
70E0
3FC0
0F00
0E00
0300
0300
1F00
0E00
ENDCHAR
STARTCHAR uni1E1E
ENCODING 7710
SWIDTH 611 0
DWIDTH 14 0
BBX 11 22 2 0
BITMAP
0C00
0C00
0000
FFE0
FFE0
C000
C000
C000
C000
C000
C000
C000
FFC0
FFC0
C000
C000
C000
C000
C000
C000
C000
C000
ENDCHAR
STARTCHAR uni1E1F
ENCODING 7711
SWIDTH 278 0
DWIDTH 8 0
BBX 6 22 1 0
BITMAP
30
30
00
1C
3C
30
30
30
FC
FC
30
30
30
30
30
30
30
30
30
30
30
30
ENDCHAR
STARTCHAR uni1E20
ENCODING 7712
SWIDTH 778 0
DWIDTH 19 0
BBX 16 22 1 0
BITMAP
07E0
07E0
0000
07E0
1FF8
3C3C
700E
6006
E006
C000
C000
C000
C07F
C07F
C003
C003
E003
6007
700F
3C3F
1FFB
07E3
ENDCHAR
STARTCHAR uni1E21
ENCODING 7713
SWIDTH 556 0
DWIDTH 14 0
BBX 11 22 1 -5
BITMAP
1F80
1F80
0000
1E60
3F60
71E0
60E0
C060
C060
C060
C060
C060
C060
60E0
71E0
3F60
1E60
0060
C060
E0C0
7FC0
1F00
ENDCHAR
STARTCHAR uni1E22
ENCODING 7714
SWIDTH 722 0
DWIDTH 18 0
BBX 14 22 2 0
BITMAP
0300
0300
0000
C00C
C00C
C00C
C00C
C00C
C00C
C00C
C00C
FFFC
FFFC
C00C
C00C
C00C
C00C
C00C
C00C
C00C
C00C
C00C
ENDCHAR
STARTCHAR uni1E23
ENCODING 7715
SWIDTH 556 0
DWIDTH 13 0
BBX 10 22 2 0
BITMAP
6000
6000
0000
C000
C000
C000
C000
C000
CE00
DF80
F180
E0C0
C0C0
C0C0
C0C0
C0C0
C0C0
C0C0
C0C0
C0C0
C0C0
C0C0
ENDCHAR
STARTCHAR uni1E24
ENCODING 7716
SWIDTH 722 0
DWIDTH 18 0
BBX 14 22 2 -3
BITMAP
C00C
C00C
C00C
C00C
C00C
C00C
C00C
C00C
FFFC
FFFC
C00C
C00C
C00C
C00C
C00C
C00C
C00C
C00C
C00C
0000
0300
0300
ENDCHAR
STARTCHAR uni1E25
ENCODING 7717
SWIDTH 556 0
DWIDTH 13 0
BBX 10 22 2 -3
BITMAP
C000
C000
C000
C000
C000
CE00
DF80
F180
E0C0
C0C0
C0C0
C0C0
C0C0
C0C0
C0C0
C0C0
C0C0
C0C0
C0C0
0000
0C00
0C00
ENDCHAR
STARTCHAR uni1E26
ENCODING 7718
SWIDTH 722 0
DWIDTH 18 0
BBX 14 22 2 0
BITMAP
0CC0
0CC0
0000
C00C
C00C
C00C
C00C
C00C
C00C
C00C
C00C
FFFC
FFFC
C00C
C00C
C00C
C00C
C00C
C00C
C00C
C00C
C00C
ENDCHAR
STARTCHAR uni1E27
ENCODING 7719
SWIDTH 556 0
DWIDTH 13 0
BBX 11 22 1 0
BITMAP
CC00
CC00
0000
6000
6000
6000
6000
6000
6700
6FC0
78C0
7060
6060
6060
6060
6060
6060
6060
6060
6060
6060
6060
ENDCHAR
STARTCHAR uni1E28
ENCODING 7720
SWIDTH 722 0
DWIDTH 18 0
BBX 14 24 2 -5
BITMAP
C00C
C00C
C00C
C00C
C00C
C00C
C00C
C00C
FFFC
FFFC
C00C
C00C
C00C
C00C
C00C
C00C
C00C
C00C
C30C
0380
00C0
00C0
07C0
0380
ENDCHAR
STARTCHAR uni1E29
ENCODING 7721
SWIDTH 556 0
DWIDTH 13 0
BBX 10 24 2 -5
BITMAP
C000
C000
C000
C000
C000
CE00
DF80
F180
E0C0
C0C0
C0C0
C0C0
C0C0
C0C0
C0C0
C0C0
C0C0
C0C0
CCC0
0E00
0300
0300
1F00
0E00
ENDCHAR
STARTCHAR uni1E2A
ENCODING 7722
SWIDTH 722 0
DWIDTH 18 0
BBX 14 24 2 -5
BITMAP
C00C
C00C
C00C
C00C
C00C
C00C
C00C
C00C
FFFC
FFFC
C00C
C00C
C00C
C00C
C00C
C00C
C00C
C00C
C00C
0000
1020
1860
0FC0
0780
ENDCHAR
STARTCHAR uni1E2B
ENCODING 7723
SWIDTH 556 0
DWIDTH 13 0
BBX 10 24 2 -5
BITMAP
C000
C000
C000
C000
C000
CE00
DF80
F180
E0C0
C0C0
C0C0
C0C0
C0C0
C0C0
C0C0
C0C0
C0C0
C0C0
C0C0
0000
4080
6180
3F00
1E00
ENDCHAR
STARTCHAR uni1E2C
ENCODING 7724
SWIDTH 278 0
DWIDTH 8 0
BBX 8 23 0 -4
BITMAP
18
18
18
18
18
18
18
18
18
18
18
18
18
18
18
18
18
18
18
00
71
DB
8E
ENDCHAR
STARTCHAR uni1E2D
ENCODING 7725
SWIDTH 222 0
DWIDTH 6 0
BBX 8 23 -1 -4
BITMAP
18
18
18
00
00
18
18
18
18
18
18
18
18
18
18
18
18
18
18
00
71
DB
8E
ENDCHAR
STARTCHAR uni1E2E
ENCODING 7726
SWIDTH 278 0
DWIDTH 8 0
BBX 6 28 1 0
BITMAP
0C
18
30
60
00
CC
CC
00
00
30
30
30
30
30
30
30
30
30
30
30
30
30
30
30
30
30
30
30
ENDCHAR
STARTCHAR uni1E2F
ENCODING 7727
SWIDTH 278 0
DWIDTH 6 0
BBX 6 23 0 0
BITMAP
0C
18
30
60
00
CC
CC
00
00
30
30
30
30
30
30
30
30
30
30
30
30
30
30
ENDCHAR
STARTCHAR uni1E30
ENCODING 7728
SWIDTH 667 0
DWIDTH 18 0
BBX 15 24 2 0
BITMAP
00C0
0180
0300
0600
0000
C038
C070
C0E0
C1C0
C380
C700
CE00
DC00
FC00
FE00
E700
C380
C1C0
C0E0
C070
C038
C01C
C00E
C006
ENDCHAR
STARTCHAR uni1E31
ENCODING 7729
SWIDTH 500 0
DWIDTH 12 0
BBX 10 24 2 0
BITMAP
0C00
1800
3000
6000
0000
C000
C000
C000
C000
C000
C180
C380
C700
CE00
DC00
F800
FC00
CE00
C600
C700
C380
C180
C1C0
C0C0
ENDCHAR
STARTCHAR uni1E32
ENCODING 7730
SWIDTH 667 0
DWIDTH 18 0
BBX 15 22 2 -3
BITMAP
C038
C070
C0E0
C1C0
C380
C700
CE00
DC00
FC00
FE00
E700
C380
C1C0
C0E0
C070
C038
C01C
C00E
C006
0000
0180
0180
ENDCHAR
STARTCHAR uni1E33
ENCODING 7731
SWIDTH 500 0
DWIDTH 12 0
BBX 10 22 2 -3
BITMAP
C000
C000
C000
C000
C000
C180
C380
C700
CE00
DC00
F800
FC00
CE00
C600
C700
C380
C180
C1C0
C0C0
0000
0C00
0C00
ENDCHAR
STARTCHAR uni1E34
ENCODING 7732
SWIDTH 667 0
DWIDTH 18 0
BBX 15 22 2 -3
BITMAP
C038
C070
C0E0
C1C0
C380
C700
CE00
DC00
FC00
FE00
E700
C380
C1C0
C0E0
C070
C038
C01C
C00E
C006
0000
07E0
07E0
ENDCHAR
STARTCHAR uni1E35
ENCODING 7733
SWIDTH 500 0
DWIDTH 12 0
BBX 10 22 2 -3
BITMAP
C000
C000
C000
C000
C000
C180
C380
C700
CE00
DC00
F800
FC00
CE00
C600
C700
C380
C180
C1C0
C0C0
0000
3F00
3F00
ENDCHAR
STARTCHAR uni1E36
ENCODING 7734
SWIDTH 556 0
DWIDTH 14 0
BBX 11 22 2 -3
BITMAP
C000
C000
C000
C000
C000
C000
C000
C000
C000
C000
C000
C000
C000
C000
C000
C000
C000
FFE0
FFE0
0000
0C00
0C00
ENDCHAR
STARTCHAR uni1E37
ENCODING 7735
SWIDTH 222 0
DWIDTH 6 0
BBX 2 22 2 -3
BITMAP
C0
C0
C0
C0
C0
C0
C0
C0
C0
C0
C0
C0
C0
C0
C0
C0
C0
C0
C0
00
C0
C0
ENDCHAR
STARTCHAR uni1E38
ENCODING 7736
SWIDTH 556 0
DWIDTH 14 0
BBX 11 25 2 -3
BITMAP
FC00
FC00
0000
C000
C000
C000
C000
C000
C000
C000
C000
C000
C000
C000
C000
C000
C000
C000
C000
C000
FFE0
FFE0
0000
0C00
0C00
ENDCHAR
STARTCHAR uni1E39
ENCODING 7737
SWIDTH 222 0
DWIDTH 6 0
BBX 6 25 0 -3
BITMAP
FC
FC
00
30
30
30
30
30
30
30
30
30
30
30
30
30
30
30
30
30
30
30
00
30
30
ENDCHAR
STARTCHAR uni1E3A
ENCODING 7738
SWIDTH 556 0
DWIDTH 14 0
BBX 11 22 2 -3
BITMAP
C000
C000
C000
C000
C000
C000
C000
C000
C000
C000
C000
C000
C000
C000
C000
C000
C000
FFE0
FFE0
0000
3F00
3F00
ENDCHAR
STARTCHAR uni1E3B
ENCODING 7739
SWIDTH 222 0
DWIDTH 6 0
BBX 6 22 0 -3
BITMAP
30
30
30
30
30
30
30
30
30
30
30
30
30
30
30
30
30
30
30
00
FC
FC
ENDCHAR
STARTCHAR uni1E3C
ENCODING 7740
SWIDTH 556 0
DWIDTH 14 0
BBX 11 24 2 -5
BITMAP
C000
C000
C000
C000
C000
C000
C000
C000
C000
C000
C000
C000
C000
C000
C000
C000
C000
FFE0
FFE0
0000
0C00
1E00
3300
6180
ENDCHAR
STARTCHAR uni1E3D
ENCODING 7741
SWIDTH 222 0
DWIDTH 6 0
BBX 8 24 -1 -5
BITMAP
18
18
18
18
18
18
18
18
18
18
18
18
18
18
18
18
18
18
18
00
18
3C
66
C3
ENDCHAR
STARTCHAR uni1E3E
ENCODING 7742
SWIDTH 833 0
DWIDTH 21 0
BBX 17 24 2 0
BITMAP
003000
006000
00C000
018000
000000
C00180
E00380
E00380
F00780
F00780
D80D80
D80D80
D80D80
CC1980
CC1980
CC1980
C63180
C63180
C63180
C36180
C36180
C36180
C1C180
C1C180
ENDCHAR
STARTCHAR uni1E3F
ENCODING 7743
SWIDTH 833 0
DWIDTH 20 0
BBX 16 19 2 0
BITMAP
0060
00C0
0180
0300
0000
CE3C
FF7E
E3C7
C183
C183
C183
C183
C183
C183
C183
C183
C183
C183
C183
ENDCHAR
STARTCHAR uni1E40
ENCODING 7744
SWIDTH 833 0
DWIDTH 21 0
BBX 17 22 2 0
BITMAP
00C000
00C000
000000
C00180
E00380
E00380
F00780
F00780
D80D80
D80D80
D80D80
CC1980
CC1980
CC1980
C63180
C63180
C63180
C36180
C36180
C36180
C1C180
C1C180
ENDCHAR
STARTCHAR uni1E41
ENCODING 7745
SWIDTH 833 0
DWIDTH 20 0
BBX 16 17 2 0
BITMAP
0180
0180
0000
CE3C
FF7E
E3C7
C183
C183
C183
C183
C183
C183
C183
C183
C183
C183
C183
ENDCHAR
STARTCHAR uni1E42
ENCODING 7746
SWIDTH 833 0
DWIDTH 21 0
BBX 17 22 2 -3
BITMAP
C00180
E00380
E00380
F00780
F00780
D80D80
D80D80
D80D80
CC1980
CC1980
CC1980
C63180
C63180
C63180
C36180
C36180
C36180
C1C180
C1C180
000000
00C000
00C000
ENDCHAR
STARTCHAR uni1E43
ENCODING 7747
SWIDTH 833 0
DWIDTH 20 0
BBX 16 17 2 -3
BITMAP
CE3C
FF7E
E3C7
C183
C183
C183
C183
C183
C183
C183
C183
C183
C183
C183
0000
0180
0180
ENDCHAR
STARTCHAR uni1E44
ENCODING 7748
SWIDTH 722 0
DWIDTH 18 0
BBX 14 22 2 0
BITMAP
0600
0600
0000
E00C
F00C
F00C
D80C
DC0C
CC0C
CE0C
C60C
C70C
C30C
C38C
C18C
C1CC
C0CC
C0EC
C06C
C03C
C03C
C01C
ENDCHAR
STARTCHAR uni1E45
ENCODING 7749
SWIDTH 556 0
DWIDTH 14 0
BBX 10 17 2 0
BITMAP
0C00
0C00
0000
CE00
DF80
F180
E0C0
C0C0
C0C0
C0C0
C0C0
C0C0
C0C0
C0C0
C0C0
C0C0
C0C0
ENDCHAR
STARTCHAR uni1E46
ENCODING 7750
SWIDTH 722 0
DWIDTH 18 0
BBX 14 22 2 -3
BITMAP
E00C
F00C
F00C
D80C
DC0C
CC0C
CE0C
C60C
C70C
C30C
C38C
C18C
C1CC
C0CC
C0EC
C06C
C03C
C03C
C01C
0000
0180
0180
ENDCHAR
STARTCHAR uni1E47
ENCODING 7751
SWIDTH 556 0
DWIDTH 14 0
BBX 10 17 2 -3
BITMAP
CE00
DF80
F180
E0C0
C0C0
C0C0
C0C0
C0C0
C0C0
C0C0
C0C0
C0C0
C0C0
C0C0
0000
0C00
0C00
ENDCHAR
STARTCHAR uni1E48
ENCODING 7752
SWIDTH 722 0
DWIDTH 18 0
BBX 14 22 2 -3
BITMAP
E00C
F00C
F00C
D80C
DC0C
CC0C
CE0C
C60C
C70C
C30C
C38C
C18C
C1CC
C0CC
C0EC
C06C
C03C
C03C
C01C
0000
07E0
07E0
ENDCHAR
STARTCHAR uni1E49
ENCODING 7753
SWIDTH 556 0
DWIDTH 14 0
BBX 10 17 2 -3
BITMAP
CE00
DF80
F180
E0C0
C0C0
C0C0
C0C0
C0C0
C0C0
C0C0
C0C0
C0C0
C0C0
C0C0
0000
3F00
3F00
ENDCHAR
STARTCHAR uni1E4A
ENCODING 7754
SWIDTH 722 0
DWIDTH 18 0
BBX 14 24 2 -5
BITMAP
E00C
F00C
F00C
D80C
DC0C
CC0C
CE0C
C60C
C70C
C30C
C38C
C18C
C1CC
C0CC
C0EC
C06C
C03C
C03C
C01C
0000
0180
03C0
0660
0C30
ENDCHAR
STARTCHAR uni1E4B
ENCODING 7755
SWIDTH 556 0
DWIDTH 14 0
BBX 10 19 2 -5
BITMAP
CE00
DF80
F180
E0C0
C0C0
C0C0
C0C0
C0C0
C0C0
C0C0
C0C0
C0C0
C0C0
C0C0
0000
0C00
1E00
3300
6180
ENDCHAR
STARTCHAR uni1E4C
ENCODING 7756
SWIDTH 778 0
DWIDTH 18 0
BBX 16 28 1 0
BITMAP
0060
00C0
0180
0300
0000
0710
0DB0
08E0
0000
07E0
1FF8
3C3C
700E
6006
E007
C003
C003
C003
C003
C003
C003
C003
E007
6006
700E
3C3C
1FF8
07E0
ENDCHAR
STARTCHAR uni1E4D
ENCODING 7757
SWIDTH 556 0
DWIDTH 13 0
BBX 11 23 1 0
BITMAP
0180
0300
0600
0C00
0000
1C40
36C0
2380
0000
1F00
3F80
71C0
60C0
C060
C060
C060
C060
C060
C060
60C0
71C0
3F80
1F00
ENDCHAR
STARTCHAR uni1E4E
ENCODING 7758
SWIDTH 778 0
DWIDTH 18 0
BBX 16 26 1 0
BITMAP
0660
0660
0000
0710
0DB0
08E0
0000
07E0
1FF8
3C3C
700E
6006
E007
C003
C003
C003
C003
C003
C003
C003
E007
6006
700E
3C3C
1FF8
07E0
ENDCHAR
STARTCHAR uni1E4F
ENCODING 7759
SWIDTH 556 0
DWIDTH 13 0
BBX 11 21 1 0
BITMAP
1980
1980
0000
1C40
36C0
2380
0000
1F00
3F80
71C0
60C0
C060
C060
C060
C060
C060
C060
60C0
71C0
3F80
1F00
ENDCHAR
STARTCHAR uni1E50
ENCODING 7760
SWIDTH 778 0
DWIDTH 18 0
BBX 16 27 1 0
BITMAP
0600
0300
0180
00C0
0000
07E0
07E0
0000
07E0
1FF8
3C3C
700E
6006
E007
C003
C003
C003
C003
C003
C003
C003
E007
6006
700E
3C3C
1FF8
07E0
ENDCHAR
STARTCHAR uni1E51
ENCODING 7761
SWIDTH 556 0
DWIDTH 13 0
BBX 11 22 1 0
BITMAP
1800
0C00
0600
0300
0000
1F80
1F80
0000
1F00
3F80
71C0
60C0
C060
C060
C060
C060
C060
C060
60C0
71C0
3F80
1F00
ENDCHAR
STARTCHAR uni1E52
ENCODING 7762
SWIDTH 778 0
DWIDTH 18 0
BBX 16 27 1 0
BITMAP
0060
00C0
0180
0300
0000
07E0
07E0
0000
07E0
1FF8
3C3C
700E
6006
E007
C003
C003
C003
C003
C003
C003
C003
E007
6006
700E
3C3C
1FF8
07E0
ENDCHAR
STARTCHAR uni1E53
ENCODING 7763
SWIDTH 556 0
DWIDTH 13 0
BBX 11 22 1 0
BITMAP
0180
0300
0600
0C00
0000
1F80
1F80
0000
1F00
3F80
71C0
60C0
C060
C060
C060
C060
C060
C060
60C0
71C0
3F80
1F00
ENDCHAR
STARTCHAR uni1E54
ENCODING 7764
SWIDTH 667 0
DWIDTH 16 0
BBX 13 24 2 0
BITMAP
0180
0300
0600
0C00
0000
FFE0
FFF0
C030
C018
C018
C018
C018
C030
FFF0
FFE0
C000
C000
C000
C000
C000
C000
C000
C000
C000
ENDCHAR
STARTCHAR uni1E55
ENCODING 7765
SWIDTH 556 0
DWIDTH 14 0
BBX 11 24 2 -5
BITMAP
0300
0600
0C00
1800
0000
CF00
DF80
F1C0
E0C0
C060
C060
C060
C060
C060
C060
E0C0
F1C0
DF80
CF00
C000
C000
C000
C000
C000
ENDCHAR
STARTCHAR uni1E56
ENCODING 7766
SWIDTH 667 0
DWIDTH 16 0
BBX 13 22 2 0
BITMAP
0600
0600
0000
FFE0
FFF0
C030
C018
C018
C018
C018
C030
FFF0
FFE0
C000
C000
C000
C000
C000
C000
C000
C000
C000
ENDCHAR
STARTCHAR uni1E57
ENCODING 7767
SWIDTH 556 0
DWIDTH 14 0
BBX 11 22 2 -5
BITMAP
0C00
0C00
0000
CF00
DF80
F1C0
E0C0
C060
C060
C060
C060
C060
C060
E0C0
F1C0
DF80
CF00
C000
C000
C000
C000
C000
ENDCHAR
STARTCHAR uni1E58
ENCODING 7768
SWIDTH 722 0
DWIDTH 17 0
BBX 13 22 2 0
BITMAP
0600
0600
0000
FFE0
FFF0
C030
C018
C018
C018
C018
C030
FFF0
FFE0
C070
C030
C018
C018
C018
C018
C018
C018
C018
ENDCHAR
STARTCHAR uni1E59
ENCODING 7769
SWIDTH 333 0
DWIDTH 9 0
BBX 6 17 2 0
BITMAP
30
30
00
CC
DC
FC
E0
C0
C0
C0
C0
C0
C0
C0
C0
C0
C0
ENDCHAR
STARTCHAR uni1E5A
ENCODING 7770
SWIDTH 722 0
DWIDTH 17 0
BBX 13 22 2 -3
BITMAP
FFE0
FFF0
C030
C018
C018
C018
C018
C030
FFF0
FFE0
C070
C030
C018
C018
C018
C018
C018
C018
C018
0000
0300
0300
ENDCHAR
STARTCHAR uni1E5B
ENCODING 7771
SWIDTH 333 0
DWIDTH 9 0
BBX 6 17 2 -3
BITMAP
CC
DC
FC
E0
C0
C0
C0
C0
C0
C0
C0
C0
C0
C0
00
60
60
ENDCHAR
STARTCHAR uni1E5C
ENCODING 7772
SWIDTH 722 0
DWIDTH 17 0
BBX 13 25 2 -3
BITMAP
1F80
1F80
0000
FFE0
FFF0
C030
C018
C018
C018
C018
C030
FFF0
FFE0
C070
C030
C018
C018
C018
C018
C018
C018
C018
0000
0300
0300
ENDCHAR
STARTCHAR uni1E5D
ENCODING 7773
SWIDTH 333 0
DWIDTH 9 0
BBX 6 20 2 -3
BITMAP
FC
FC
00
CC
DC
FC
E0
C0
C0
C0
C0
C0
C0
C0
C0
C0
C0
00
60
60
ENDCHAR
STARTCHAR uni1E5E
ENCODING 7774
SWIDTH 722 0
DWIDTH 17 0
BBX 13 22 2 -3
BITMAP
FFE0
FFF0
C030
C018
C018
C018
C018
C030
FFF0
FFE0
C070
C030
C018
C018
C018
C018
C018
C018
C018
0000
0FC0
0FC0
ENDCHAR
STARTCHAR uni1E5F
ENCODING 7775
SWIDTH 333 0
DWIDTH 9 0
BBX 7 17 1 -3
BITMAP
66
6E
7E
70
60
60
60
60
60
60
60
60
60
60
00
FC
FC
ENDCHAR
STARTCHAR uni1E60
ENCODING 7776
SWIDTH 667 0
DWIDTH 16 0
BBX 14 22 1 0
BITMAP
0300
0300
0000
07C0
1FF0
3838
7018
6018
6000
7000
3E00
0FC0
01F0
0078
001C
000C
C00C
C00C
E01C
7838
3FF0
0FC0
ENDCHAR
STARTCHAR uni1E61
ENCODING 7777
SWIDTH 500 0
DWIDTH 12 0
BBX 10 17 1 0
BITMAP
0C00
0C00
0000
3E00
7F80
E1C0
C0C0
C000
F800
7F00
0F80
01C0
00C0
C0C0
C1C0
FF80
3F00
ENDCHAR
STARTCHAR uni1E62
ENCODING 7778
SWIDTH 667 0
DWIDTH 16 0
BBX 14 22 1 -3
BITMAP
07C0
1FF0
3838
7018
6018
6000
7000
3E00
0FC0
01F0
0078
001C
000C
C00C
C00C
E01C
7838
3FF0
0FC0
0000
0300
0300
ENDCHAR
STARTCHAR uni1E63
ENCODING 7779
SWIDTH 500 0
DWIDTH 12 0
BBX 10 17 1 -3
BITMAP
3E00
7F80
E1C0
C0C0
C000
F800
7F00
0F80
01C0
00C0
C0C0
C1C0
FF80
3F00
0000
0C00
0C00
ENDCHAR
STARTCHAR uni1E64
ENCODING 7780
SWIDTH 667 0
DWIDTH 16 0
BBX 14 27 1 0
BITMAP
0300
0300
0000
00C0
0180
0300
0600
0000
07C0
1FF0
3838
7018
6018
6000
7000
3E00
0FC0
01F0
0078
001C
000C
C00C
C00C
E01C
7838
3FF0
0FC0
ENDCHAR
STARTCHAR uni1E65
ENCODING 7781
SWIDTH 500 0
DWIDTH 12 0
BBX 10 22 1 0
BITMAP
0C00
0C00
0000
0300
0600
0C00
1800
0000
3E00
7F80
E1C0
C0C0
C000
F800
7F00
0F80
01C0
00C0
C0C0
C1C0
FF80
3F00
ENDCHAR
STARTCHAR uni1E66
ENCODING 7782
SWIDTH 667 0
DWIDTH 16 0
BBX 13 22 2 0
BITMAP
0600
0600
0000
30C0
1980
0F00
0600
0000
0F80
3FE0
7060
6000
6000
7000
3FC0
0FF0
0038
0018
C018
E030
7FF0
1FC0
ENDCHAR
STARTCHAR uni1E67
ENCODING 7783
SWIDTH 500 0
DWIDTH 12 0
BBX 10 22 1 0
BITMAP
0C00
0C00
0000
6180
3300
1E00
0C00
0000
3E00
7F00
E380
C180
C000
F800
7F00
0F80
01C0
C0C0
C0C0
E1C0
7F80
3F00
ENDCHAR
STARTCHAR uni1E68
ENCODING 7784
SWIDTH 667 0
DWIDTH 16 0
BBX 14 25 1 -3
BITMAP
0300
0300
0000
07C0
1FF0
3838
7018
6018
6000
7000
3E00
0FC0
01F0
0078
001C
000C
C00C
C00C
E01C
7838
3FF0
0FC0
0000
0300
0300
ENDCHAR
STARTCHAR uni1E69
ENCODING 7785
SWIDTH 500 0
DWIDTH 12 0
BBX 10 20 1 -3
BITMAP
0C00
0C00
0000
3E00
7F80
E1C0
C0C0
C000
F800
7F00
0F80
01C0
00C0
C0C0
C1C0
FF80
3F00
0000
0C00
0C00
ENDCHAR
STARTCHAR uni1E6A
ENCODING 7786
SWIDTH 611 0
DWIDTH 16 0
BBX 14 22 1 0
BITMAP
0300
0300
0000
FFFC
FFFC
0300
0300
0300
0300
0300
0300
0300
0300
0300
0300
0300
0300
0300
0300
0300
0300
0300
ENDCHAR
STARTCHAR uni1E6B
ENCODING 7787
SWIDTH 278 0
DWIDTH 8 0
BBX 6 21 1 0
BITMAP
30
30
00
30
30
30
30
FC
FC
30
30
30
30
30
30
30
30
30
30
3C
1C
ENDCHAR
STARTCHAR uni1E6C
ENCODING 7788
SWIDTH 611 0
DWIDTH 16 0
BBX 14 22 1 -3
BITMAP
FFFC
FFFC
0300
0300
0300
0300
0300
0300
0300
0300
0300
0300
0300
0300
0300
0300
0300
0300
0300
0000
0300
0300
ENDCHAR
STARTCHAR uni1E6D
ENCODING 7789
SWIDTH 278 0
DWIDTH 8 0
BBX 6 21 1 -3
BITMAP
30
30
30
30
FC
FC
30
30
30
30
30
30
30
30
30
30
3C
1C
00
30
30
ENDCHAR
STARTCHAR uni1E6E
ENCODING 7790
SWIDTH 611 0
DWIDTH 16 0
BBX 14 22 1 -3
BITMAP
FFFC
FFFC
0300
0300
0300
0300
0300
0300
0300
0300
0300
0300
0300
0300
0300
0300
0300
0300
0300
0000
0FC0
0FC0
ENDCHAR
STARTCHAR uni1E6F
ENCODING 7791
SWIDTH 278 0
DWIDTH 8 0
BBX 6 21 1 -3
BITMAP
30
30
30
30
FC
FC
30
30
30
30
30
30
30
30
30
30
3C
1C
00
FC
FC
ENDCHAR
STARTCHAR uni1E70
ENCODING 7792
SWIDTH 611 0
DWIDTH 16 0
BBX 14 24 1 -5
BITMAP
FFFC
FFFC
0300
0300
0300
0300
0300
0300
0300
0300
0300
0300
0300
0300
0300
0300
0300
0300
0300
0000
0300
0780
0CC0
1860
ENDCHAR
STARTCHAR uni1E71
ENCODING 7793
SWIDTH 278 0
DWIDTH 8 0
BBX 8 23 0 -5
BITMAP
18
18
18
18
7E
7E
18
18
18
18
18
18
18
18
18
18
1E
0E
00
18
3C
66
C3
ENDCHAR
STARTCHAR uni1E72
ENCODING 7794
SWIDTH 722 0
DWIDTH 18 0
BBX 14 22 2 -3
BITMAP
C00C
C00C
C00C
C00C
C00C
C00C
C00C
C00C
C00C
C00C
C00C
C00C
C00C
C00C
C00C
6018
7038
3FF0
0FC0
0000
0CC0
0CC0
ENDCHAR
STARTCHAR uni1E73
ENCODING 7795
SWIDTH 556 0
DWIDTH 14 0
BBX 10 17 2 -3
BITMAP
C0C0
C0C0
C0C0
C0C0
C0C0
C0C0
C0C0
C0C0
C0C0
C0C0
C1C0
63C0
7EC0
1CC0
0000
3300
3300
ENDCHAR
STARTCHAR uni1E74
ENCODING 7796
SWIDTH 722 0
DWIDTH 18 0
BBX 14 23 2 -4
BITMAP
C00C
C00C
C00C
C00C
C00C
C00C
C00C
C00C
C00C
C00C
C00C
C00C
C00C
C00C
C00C
6018
7038
3FF0
0FC0
0000
0E20
1B60
11C0
ENDCHAR
STARTCHAR uni1E75
ENCODING 7797
SWIDTH 556 0
DWIDTH 14 0
BBX 10 18 2 -4
BITMAP
C0C0
C0C0
C0C0
C0C0
C0C0
C0C0
C0C0
C0C0
C0C0
C0C0
C1C0
63C0
7EC0
1CC0
0000
1C40
36C0
2380
ENDCHAR
STARTCHAR uni1E76
ENCODING 7798
SWIDTH 722 0
DWIDTH 18 0
BBX 14 24 2 -5
BITMAP
C00C
C00C
C00C
C00C
C00C
C00C
C00C
C00C
C00C
C00C
C00C
C00C
C00C
C00C
C00C
6018
7038
3FF0
0FC0
0000
0300
0780
0CC0
1860
ENDCHAR
STARTCHAR uni1E77
ENCODING 7799
SWIDTH 556 0
DWIDTH 14 0
BBX 10 19 2 -5
BITMAP
C0C0
C0C0
C0C0
C0C0
C0C0
C0C0
C0C0
C0C0
C0C0
C0C0
C1C0
63C0
7EC0
1CC0
0000
0C00
1E00
3300
6180
ENDCHAR
STARTCHAR uni1E78
ENCODING 7800
SWIDTH 722 0
DWIDTH 18 0
BBX 14 28 2 0
BITMAP
00C0
0180
0300
0600
0000
0E20
1B60
11C0
0000
C00C
C00C
C00C
C00C
C00C
C00C
C00C
C00C
C00C
C00C
C00C
C00C
C00C
C00C
C00C
6018
7038
3FF0
0FC0
ENDCHAR
STARTCHAR uni1E79
ENCODING 7801
SWIDTH 556 0
DWIDTH 14 0
BBX 10 23 2 0
BITMAP
0300
0600
0C00
1800
0000
3880
6D80
4700
0000
C0C0
C0C0
C0C0
C0C0
C0C0
C0C0
C0C0
C0C0
C0C0
C0C0
C1C0
63C0
7EC0
1CC0
ENDCHAR
STARTCHAR uni1E7A
ENCODING 7802
SWIDTH 722 0
DWIDTH 18 0
BBX 14 25 2 0
BITMAP
0CC0
0CC0
0000
0FC0
0FC0
0000
C00C
C00C
C00C
C00C
C00C
C00C
C00C
C00C
C00C
C00C
C00C
C00C
C00C
C00C
C00C
6018
7038
3FF0
0FC0
ENDCHAR
STARTCHAR uni1E7B
ENCODING 7803
SWIDTH 556 0
DWIDTH 14 0
BBX 10 20 2 0
BITMAP
3300
3300
0000
3F00
3F00
0000
C0C0
C0C0
C0C0
C0C0
C0C0
C0C0
C0C0
C0C0
C0C0
C0C0
C1C0
63C0
7EC0
1CC0
ENDCHAR
STARTCHAR uni1E7C
ENCODING 7804
SWIDTH 667 0
DWIDTH 17 0
BBX 15 23 1 0
BITMAP
0E20
1B60
11C0
0000
C006
C006
E00E
600C
701C
3018
3018
3838
1830
1830
1C70
0C60
0C60
0EE0
06C0
06C0
0380
0380
0380
ENDCHAR
STARTCHAR uni1E7D
ENCODING 7805
SWIDTH 500 0
DWIDTH 13 0
BBX 11 18 1 0
BITMAP
3880
6D80
4700
0000
C060
C060
C060
60C0
60C0
71C0
3180
3180
1B00
1B00
1B00
0E00
0E00
0E00
ENDCHAR
STARTCHAR uni1E7E
ENCODING 7806
SWIDTH 667 0
DWIDTH 17 0
BBX 15 22 1 -3
BITMAP
C006
C006
E00E
600C
701C
3018
3018
3838
1830
1830
1C70
0C60
0C60
0EE0
06C0
06C0
0380
0380
0380
0000
0180
0180
ENDCHAR
STARTCHAR uni1E7F
ENCODING 7807
SWIDTH 500 0
DWIDTH 13 0
BBX 11 17 1 -3
BITMAP
C060
C060
C060
60C0
60C0
71C0
3180
3180
1B00
1B00
1B00
0E00
0E00
0E00
0000
0600
0600
ENDCHAR
STARTCHAR Wgrave
ENCODING 7808
SWIDTH 944 0
DWIDTH 22 0
BBX 20 24 1 0
BITMAP
018000
00C000
006000
003000
000000
C06030
C06030
C06030
C0F030
60F060
619860
619860
619860
619860
3198C0
330CC0
330CC0
330CC0
1B0D80
1B0D80
1E0780
0E0700
0C0300
0C0300
ENDCHAR
STARTCHAR wgrave
ENCODING 7809
SWIDTH 722 0
DWIDTH 18 0
BBX 18 19 0 0
BITMAP
030000
018000
00C000
006000
000000
C0C0C0
C0C0C0
61E180
61E180
61E180
312300
333300
333300
1B3600
1A1600
1E1E00
0E1C00
0C0C00
0C0C00
ENDCHAR
STARTCHAR Wacute
ENCODING 7810
SWIDTH 944 0
DWIDTH 22 0
BBX 20 24 1 0
BITMAP
001800
003000
006000
00C000
000000
C06030
C06030
C06030
C0F030
60F060
619860
619860
619860
619860
3198C0
330CC0
330CC0
330CC0
1B0D80
1B0D80
1E0780
0E0700
0C0300
0C0300
ENDCHAR
STARTCHAR wacute
ENCODING 7811
SWIDTH 722 0
DWIDTH 18 0
BBX 18 19 0 0
BITMAP
003000
006000
00C000
018000
000000
C0C0C0
C0C0C0
61E180
61E180
61E180
312300
333300
333300
1B3600
1A1600
1E1E00
0E1C00
0C0C00
0C0C00
ENDCHAR
STARTCHAR Wdieresis
ENCODING 7812
SWIDTH 944 0
DWIDTH 22 0
BBX 20 22 1 0
BITMAP
019800
019800
000000
C06030
C06030
C06030
C0F030
60F060
619860
619860
619860
619860
3198C0
330CC0
330CC0
330CC0
1B0D80
1B0D80
1E0780
0E0700
0C0300
0C0300
ENDCHAR
STARTCHAR wdieresis
ENCODING 7813
SWIDTH 722 0
DWIDTH 18 0
BBX 18 17 0 0
BITMAP
033000
033000
000000
C0C0C0
C0C0C0
61E180
61E180
61E180
312300
333300
333300
1B3600
1A1600
1E1E00
0E1C00
0C0C00
0C0C00
ENDCHAR
STARTCHAR uni1E86
ENCODING 7814
SWIDTH 944 0
DWIDTH 22 0
BBX 20 22 1 0
BITMAP
006000
006000
000000
C06030
C06030
C06030
C0F030
60F060
619860
619860
619860
619860
3198C0
330CC0
330CC0
330CC0
1B0D80
1B0D80
1E0780
0E0700
0C0300
0C0300
ENDCHAR
STARTCHAR uni1E87
ENCODING 7815
SWIDTH 722 0
DWIDTH 18 0
BBX 18 17 0 0
BITMAP
00C000
00C000
000000
C0C0C0
C0C0C0
61E180
61E180
61E180
312300
333300
333300
1B3600
1A1600
1E1E00
0E1C00
0C0C00
0C0C00
ENDCHAR
STARTCHAR uni1E88
ENCODING 7816
SWIDTH 944 0
DWIDTH 22 0
BBX 20 22 1 -3
BITMAP
C06030
C06030
C06030
C0F030
60F060
619860
619860
619860
619860
3198C0
330CC0
330CC0
330CC0
1B0D80
1B0D80
1E0780
0E0700
0C0300
0C0300
000000
006000
006000
ENDCHAR
STARTCHAR uni1E89
ENCODING 7817
SWIDTH 722 0
DWIDTH 18 0
BBX 18 17 0 -3
BITMAP
C0C0C0
C0C0C0
61E180
61E180
61E180
312300
333300
333300
1B3600
1A1600
1E1E00
0E1C00
0C0C00
0C0C00
000000
00C000
00C000
ENDCHAR
STARTCHAR uni1E8A
ENCODING 7818
SWIDTH 667 0
DWIDTH 17 0
BBX 15 22 1 0
BITMAP
0180
0180
0000
C006
E00E
701C
3018
1830
1C70
0EE0
07C0
0380
0380
07C0
0EE0
0C60
1C70
3838
3018
600C
E00E
C006
ENDCHAR
STARTCHAR uni1E8B
ENCODING 7819
SWIDTH 500 0
DWIDTH 12 0
BBX 10 17 1 0
BITMAP
0C00
0C00
0000
C0C0
E1C0
6180
3300
3F00
1E00
0C00
1E00
1E00
3300
7380
6180
E1C0
C0C0
ENDCHAR
STARTCHAR uni1E8C
ENCODING 7820
SWIDTH 667 0
DWIDTH 17 0
BBX 15 22 1 0
BITMAP
0660
0660
0000
C006
E00E
701C
3018
1830
1C70
0EE0
07C0
0380
0380
07C0
0EE0
0C60
1C70
3838
3018
600C
E00E
C006
ENDCHAR
STARTCHAR uni1E8D
ENCODING 7821
SWIDTH 500 0
DWIDTH 12 0
BBX 10 17 1 0
BITMAP
3300
3300
0000
C0C0
E1C0
6180
3300
3F00
1E00
0C00
1E00
1E00
3300
7380
6180
E1C0
C0C0
ENDCHAR
STARTCHAR uni1E8E
ENCODING 7822
SWIDTH 667 0
DWIDTH 16 0
BBX 14 22 1 0
BITMAP
0300
0300
0000
C00C
E01C
6018
7038
3030
3870
1860
1CE0
0CC0
0FC0
0780
0780
0300
0300
0300
0300
0300
0300
0300
ENDCHAR
STARTCHAR uni1E8F
ENCODING 7823
SWIDTH 500 0
DWIDTH 13 0
BBX 12 22 0 -5
BITMAP
0600
0600
0000
C030
C030
6030
7060
3060
38E0
18C0
18C0
0D80
0D80
0780
0700
0300
0300
0600
0600
0C00
3C00
3800
ENDCHAR
STARTCHAR uni1E90
ENCODING 7824
SWIDTH 611 0
DWIDTH 15 0
BBX 13 24 1 0
BITMAP
0300
0780
0CC0
1860
0000
FFF8
FFF8
0038
0070
00E0
01C0
01C0
0380
0700
0700
0E00
1C00
1C00
3800
7000
7000
E000
FFF8
FFF8
ENDCHAR
STARTCHAR uni1E91
ENCODING 7825
SWIDTH 500 0
DWIDTH 12 0
BBX 10 19 1 0
BITMAP
0C00
1E00
3300
6180
0000
FFC0
FFC0
0180
0300
0700
0E00
0C00
1C00
3800
3000
6000
E000
FFC0
FFC0
ENDCHAR
STARTCHAR uni1E92
ENCODING 7826
SWIDTH 611 0
DWIDTH 15 0
BBX 13 22 1 -3
BITMAP
FFF8
FFF8
0038
0070
00E0
01C0
01C0
0380
0700
0700
0E00
1C00
1C00
3800
7000
7000
E000
FFF8
FFF8
0000
0600
0600
ENDCHAR
STARTCHAR uni1E93
ENCODING 7827
SWIDTH 500 0
DWIDTH 12 0
BBX 10 17 1 -3
BITMAP
FFC0
FFC0
0180
0300
0700
0E00
0C00
1C00
3800
3000
6000
E000
FFC0
FFC0
0000
0C00
0C00
ENDCHAR
STARTCHAR uni1E94
ENCODING 7828
SWIDTH 611 0
DWIDTH 15 0
BBX 13 22 1 -3
BITMAP
FFF8
FFF8
0038
0070
00E0
01C0
01C0
0380
0700
0700
0E00
1C00
1C00
3800
7000
7000
E000
FFF8
FFF8
0000
1F80
1F80
ENDCHAR
STARTCHAR uni1E95
ENCODING 7829
SWIDTH 500 0
DWIDTH 12 0
BBX 10 17 1 -3
BITMAP
FFC0
FFC0
0180
0300
0700
0E00
0C00
1C00
3800
3000
6000
E000
FFC0
FFC0
0000
3F00
3F00
ENDCHAR
STARTCHAR uni1E96
ENCODING 7830
SWIDTH 556 0
DWIDTH 13 0
BBX 10 22 2 -3
BITMAP
C000
C000
C000
C000
C000
CE00
DF80
F180
E0C0
C0C0
C0C0
C0C0
C0C0
C0C0
C0C0
C0C0
C0C0
C0C0
C0C0
0000
3F00
3F00
ENDCHAR
STARTCHAR uni1E97
ENCODING 7831
SWIDTH 278 0
DWIDTH 8 0
BBX 6 21 1 0
BITMAP
CC
CC
00
30
30
30
30
FC
FC
30
30
30
30
30
30
30
30
30
30
3C
1C
ENDCHAR
STARTCHAR uni1E98
ENCODING 7832
SWIDTH 722 0
DWIDTH 18 0
BBX 18 20 0 0
BITMAP
00C000
01E000
012000
01E000
00C000
000000
C0C0C0
C0C0C0
61E180
61E180
61E180
312300
333300
333300
1B3600
1A1600
1E1E00
0E1C00
0C0C00
0C0C00
ENDCHAR
STARTCHAR uni1E99
ENCODING 7833
SWIDTH 500 0
DWIDTH 13 0
BBX 12 25 0 -5
BITMAP
0600
0F00
0900
0F00
0600
0000
C030
C030
6030
7060
3060
38E0
18C0
18C0
0D80
0D80
0780
0700
0300
0300
0600
0600
0C00
3C00
3800
ENDCHAR
STARTCHAR uni1EA0
ENCODING 7840
SWIDTH 667 0
DWIDTH 17 0
BBX 15 22 1 -3
BITMAP
0380
0380
06C0
06C0
0C40
0C60
0C60
1830
1830
1830
3018
3FF8
3FF8
600C
600C
600C
C006
C006
C006
0000
0180
0180
ENDCHAR
STARTCHAR uni1EA1
ENCODING 7841
SWIDTH 556 0
DWIDTH 13 0
BBX 11 17 1 -3
BITMAP
1F00
3F80
61C0
60C0
00C0
07C0
3FC0
78C0
E0C0
C0C0
C1C0
E3C0
7EE0
3C60
0000
0600
0600
ENDCHAR
STARTCHAR uni1EA4
ENCODING 7844
SWIDTH 667 0
DWIDTH 17 0
BBX 15 29 1 0
BITMAP
0060
00C0
0180
0300
0000
0180
03C0
0660
0C30
0000
0380
0380
06C0
06C0
0C40
0C60
0C60
1830
1830
1830
3018
3FF8
3FF8
600C
600C
600C
C006
C006
C006
ENDCHAR
STARTCHAR uni1EA5
ENCODING 7845
SWIDTH 556 0
DWIDTH 13 0
BBX 11 24 1 0
BITMAP
0180
0300
0600
0C00
0000
0600
0F00
1980
30C0
0000
1F00
3F80
61C0
60C0
00C0
07C0
3FC0
78C0
E0C0
C0C0
C1C0
E3C0
7EE0
3C60
ENDCHAR
STARTCHAR uni1EA6
ENCODING 7846
SWIDTH 667 0
DWIDTH 17 0
BBX 15 29 1 0
BITMAP
0600
0300
0180
00C0
0000
0180
03C0
0660
0C30
0000
0380
0380
06C0
06C0
0C40
0C60
0C60
1830
1830
1830
3018
3FF8
3FF8
600C
600C
600C
C006
C006
C006
ENDCHAR
STARTCHAR uni1EA7
ENCODING 7847
SWIDTH 556 0
DWIDTH 13 0
BBX 11 24 1 0
BITMAP
1800
0C00
0600
0300
0000
0600
0F00
1980
30C0
0000
1F00
3F80
61C0
60C0
00C0
07C0
3FC0
78C0
E0C0
C0C0
C1C0
E3C0
7EE0
3C60
ENDCHAR
STARTCHAR uni1EAA
ENCODING 7850
SWIDTH 667 0
DWIDTH 17 0
BBX 15 28 1 0
BITMAP
0710
0DB0
08E0
0000
0180
03C0
0660
0C30
0000
0380
0380
06C0
06C0
0C40
0C60
0C60
1830
1830
1830
3018
3FF8
3FF8
600C
600C
600C
C006
C006
C006
ENDCHAR
STARTCHAR uni1EAB
ENCODING 7851
SWIDTH 556 0
DWIDTH 13 0
BBX 11 23 1 0
BITMAP
1C40
36C0
2380
0000
0600
0F00
1980
30C0
0000
1F00
3F80
61C0
60C0
00C0
07C0
3FC0
78C0
E0C0
C0C0
C1C0
E3C0
7EE0
3C60
ENDCHAR
STARTCHAR uni1EAC
ENCODING 7852
SWIDTH 667 0
DWIDTH 17 0
BBX 15 27 1 -3
BITMAP
0300
0780
0CC0
1860
0000
0380
0380
06C0
06C0
0C40
0C60
0C60
1830
1830
1830
3018
3FF8
3FF8
600C
600C
600C
C006
C006
C006
0000
0180
0180
ENDCHAR
STARTCHAR uni1EAD
ENCODING 7853
SWIDTH 556 0
DWIDTH 13 0
BBX 11 22 1 -3
BITMAP
0600
0F00
1980
30C0
0000
1F00
3F80
61C0
60C0
00C0
07C0
3FC0
78C0
E0C0
C0C0
C1C0
E3C0
7EE0
3C60
0000
0600
0600
ENDCHAR
STARTCHAR uni1EAE
ENCODING 7854
SWIDTH 667 0
DWIDTH 17 0
BBX 15 29 1 0
BITMAP
00C0
0180
0300
0600
0000
1020
1860
0FC0
0780
0000
0380
0380
06C0
06C0
0C40
0C60
0C60
1830
1830
1830
3018
3FF8
3FF8
600C
600C
600C
C006
C006
C006
ENDCHAR
STARTCHAR uni1EAF
ENCODING 7855
SWIDTH 556 0
DWIDTH 13 0
BBX 11 24 1 0
BITMAP
0180
0300
0600
0C00
0000
2040
30C0
1F80
0F00
0000
1F00
3F80
61C0
60C0
00C0
07C0
3FC0
78C0
E0C0
C0C0
C1C0
E3C0
7EE0
3C60
ENDCHAR
STARTCHAR uni1EB0
ENCODING 7856
SWIDTH 667 0
DWIDTH 17 0
BBX 15 29 1 0
BITMAP
0C00
0600
0300
0180
0000
1020
1860
0FC0
0780
0000
0380
0380
06C0
06C0
0C40
0C60
0C60
1830
1830
1830
3018
3FF8
3FF8
600C
600C
600C
C006
C006
C006
ENDCHAR
STARTCHAR uni1EB1
ENCODING 7857
SWIDTH 556 0
DWIDTH 13 0
BBX 11 24 1 0
BITMAP
1800
0C00
0600
0300
0000
2040
30C0
1F80
0F00
0000
1F00
3F80
61C0
60C0
00C0
07C0
3FC0
78C0
E0C0
C0C0
C1C0
E3C0
7EE0
3C60
ENDCHAR
STARTCHAR uni1EB4
ENCODING 7860
SWIDTH 667 0
DWIDTH 17 0
BBX 15 28 1 0
BITMAP
0E20
1B60
11C0
0000
1020
1860
0FC0
0780
0000
0380
0380
06C0
06C0
0C40
0C60
0C60
1830
1830
1830
3018
3FF8
3FF8
600C
600C
600C
C006
C006
C006
ENDCHAR
STARTCHAR uni1EB5
ENCODING 7861
SWIDTH 556 0
DWIDTH 13 0
BBX 11 23 1 0
BITMAP
1C40
36C0
2380
0000
2040
30C0
1F80
0F00
0000
1F00
3F80
61C0
60C0
00C0
07C0
3FC0
78C0
E0C0
C0C0
C1C0
E3C0
7EE0
3C60
ENDCHAR
STARTCHAR uni1EB6
ENCODING 7862
SWIDTH 667 0
DWIDTH 17 0
BBX 15 27 1 -3
BITMAP
1020
1860
0FC0
0780
0000
0380
0380
06C0
06C0
0C40
0C60
0C60
1830
1830
1830
3018
3FF8
3FF8
600C
600C
600C
C006
C006
C006
0000
0180
0180
ENDCHAR
STARTCHAR uni1EB7
ENCODING 7863
SWIDTH 556 0
DWIDTH 13 0
BBX 11 22 1 -3
BITMAP
2040
30C0
1F80
0F00
0000
1F00
3F80
61C0
60C0
00C0
07C0
3FC0
78C0
E0C0
C0C0
C1C0
E3C0
7EE0
3C60
0000
0600
0600
ENDCHAR
STARTCHAR uni1EB8
ENCODING 7864
SWIDTH 667 0
DWIDTH 16 0
BBX 12 22 2 -3
BITMAP
FFF0
FFF0
C000
C000
C000
C000
C000
C000
FFE0
FFE0
C000
C000
C000
C000
C000
C000
C000
FFF0
FFF0
0000
0C00
0C00
ENDCHAR
STARTCHAR uni1EB9
ENCODING 7865
SWIDTH 556 0
DWIDTH 13 0
BBX 11 17 1 -3
BITMAP
0E00
3F80
71C0
60C0
C060
C060
FFE0
FFE0
C000
C000
6060
70E0
3FC0
0F00
0000
0600
0600
ENDCHAR
STARTCHAR uni1EBC
ENCODING 7868
SWIDTH 667 0
DWIDTH 16 0
BBX 12 23 2 0
BITMAP
3880
6D80
4700
0000
FFF0
FFF0
C000
C000
C000
C000
C000
C000
FFE0
FFE0
C000
C000
C000
C000
C000
C000
C000
FFF0
FFF0
ENDCHAR
STARTCHAR uni1EBD
ENCODING 7869
SWIDTH 556 0
DWIDTH 13 0
BBX 11 18 1 0
BITMAP
3880
6D80
4700
0000
0E00
3F80
71C0
60C0
C060
C060
FFE0
FFE0
C000
C000
6060
70E0
3FC0
0F00
ENDCHAR
STARTCHAR uni1EBE
ENCODING 7870
SWIDTH 667 0
DWIDTH 16 0
BBX 12 29 2 0
BITMAP
0180
0300
0600
0C00
0000
0600
0F00
1980
30C0
0000
FFF0
FFF0
C000
C000
C000
C000
C000
C000
FFE0
FFE0
C000
C000
C000
C000
C000
C000
C000
FFF0
FFF0
ENDCHAR
STARTCHAR uni1EBF
ENCODING 7871
SWIDTH 556 0
DWIDTH 13 0
BBX 11 24 1 0
BITMAP
0180
0300
0600
0C00
0000
0600
0F00
1980
30C0
0000
0E00
3F80
71C0
60C0
C060
C060
FFE0
FFE0
C000
C000
6060
70E0
3FC0
0F00
ENDCHAR
STARTCHAR uni1EC0
ENCODING 7872
SWIDTH 667 0
DWIDTH 16 0
BBX 12 29 2 0
BITMAP
1800
0C00
0600
0300
0000
0600
0F00
1980
30C0
0000
FFF0
FFF0
C000
C000
C000
C000
C000
C000
FFE0
FFE0
C000
C000
C000
C000
C000
C000
C000
FFF0
FFF0
ENDCHAR
STARTCHAR uni1EC1
ENCODING 7873
SWIDTH 556 0
DWIDTH 13 0
BBX 11 24 1 0
BITMAP
1800
0C00
0600
0300
0000
0600
0F00
1980
30C0
0000
0E00
3F80
71C0
60C0
C060
C060
FFE0
FFE0
C000
C000
6060
70E0
3FC0
0F00
ENDCHAR
STARTCHAR uni1EC4
ENCODING 7876
SWIDTH 667 0
DWIDTH 16 0
BBX 12 28 2 0
BITMAP
1C40
36C0
2380
0000
0600
0F00
1980
30C0
0000
FFF0
FFF0
C000
C000
C000
C000
C000
C000
FFE0
FFE0
C000
C000
C000
C000
C000
C000
C000
FFF0
FFF0
ENDCHAR
STARTCHAR uni1EC5
ENCODING 7877
SWIDTH 556 0
DWIDTH 13 0
BBX 11 23 1 0
BITMAP
1C40
36C0
2380
0000
0600
0F00
1980
30C0
0000
0E00
3F80
71C0
60C0
C060
C060
FFE0
FFE0
C000
C000
6060
70E0
3FC0
0F00
ENDCHAR
STARTCHAR uni1EC6
ENCODING 7878
SWIDTH 667 0
DWIDTH 16 0
BBX 12 27 2 -3
BITMAP
0C00
1E00
3300
6180
0000
FFF0
FFF0
C000
C000
C000
C000
C000
C000
FFE0
FFE0
C000
C000
C000
C000
C000
C000
C000
FFF0
FFF0
0000
0C00
0C00
ENDCHAR
STARTCHAR uni1EC7
ENCODING 7879
SWIDTH 556 0
DWIDTH 13 0
BBX 11 22 1 -3
BITMAP
0600
0F00
1980
30C0
0000
0E00
3F80
71C0
60C0
C060
C060
FFE0
FFE0
C000
C000
6060
70E0
3FC0
0F00
0000
0600
0600
ENDCHAR
STARTCHAR uni1ECA
ENCODING 7882
SWIDTH 278 0
DWIDTH 8 0
BBX 2 22 3 -3
BITMAP
C0
C0
C0
C0
C0
C0
C0
C0
C0
C0
C0
C0
C0
C0
C0
C0
C0
C0
C0
00
C0
C0
ENDCHAR
STARTCHAR uni1ECB
ENCODING 7883
SWIDTH 222 0
DWIDTH 6 0
BBX 2 22 2 -3
BITMAP
C0
C0
C0
00
00
C0
C0
C0
C0
C0
C0
C0
C0
C0
C0
C0
C0
C0
C0
00
C0
C0
ENDCHAR
STARTCHAR uni1ECC
ENCODING 7884
SWIDTH 778 0
DWIDTH 18 0
BBX 16 22 1 -3
BITMAP
07E0
1FF8
3C3C
700E
6006
E007
C003
C003
C003
C003
C003
C003
C003
E007
6006
700E
3C3C
1FF8
07E0
0000
0180
0180
ENDCHAR
STARTCHAR uni1ECD
ENCODING 7885
SWIDTH 556 0
DWIDTH 13 0
BBX 11 17 1 -3
BITMAP
1F00
3F80
71C0
60C0
C060
C060
C060
C060
C060
C060
60C0
71C0
3F80
1F00
0000
0600
0600
ENDCHAR
STARTCHAR uni1ED0
ENCODING 7888
SWIDTH 778 0
DWIDTH 18 0
BBX 16 29 1 0
BITMAP
0060
00C0
0180
0300
0000
0180
03C0
0660
0C30
0000
07E0
1FF8
3C3C
700E
6006
E007
C003
C003
C003
C003
C003
C003
C003
E007
6006
700E
3C3C
1FF8
07E0
ENDCHAR
STARTCHAR uni1ED1
ENCODING 7889
SWIDTH 556 0
DWIDTH 13 0
BBX 11 24 1 0
BITMAP
0180
0300
0600
0C00
0000
0600
0F00
1980
30C0
0000
1F00
3F80
71C0
60C0
C060
C060
C060
C060
C060
C060
60C0
71C0
3F80
1F00
ENDCHAR
STARTCHAR uni1ED2
ENCODING 7890
SWIDTH 778 0
DWIDTH 18 0
BBX 16 29 1 0
BITMAP
0600
0300
0180
00C0
0000
0180
03C0
0660
0C30
0000
07E0
1FF8
3C3C
700E
6006
E007
C003
C003
C003
C003
C003
C003
C003
E007
6006
700E
3C3C
1FF8
07E0
ENDCHAR
STARTCHAR uni1ED3
ENCODING 7891
SWIDTH 556 0
DWIDTH 13 0
BBX 11 24 1 0
BITMAP
1800
0C00
0600
0300
0000
0600
0F00
1980
30C0
0000
1F00
3F80
71C0
60C0
C060
C060
C060
C060
C060
C060
60C0
71C0
3F80
1F00
ENDCHAR
STARTCHAR uni1ED6
ENCODING 7894
SWIDTH 778 0
DWIDTH 18 0
BBX 16 28 1 0
BITMAP
0710
0DB0
08E0
0000
0180
03C0
0660
0C30
0000
07E0
1FF8
3C3C
700E
6006
E007
C003
C003
C003
C003
C003
C003
C003
E007
6006
700E
3C3C
1FF8
07E0
ENDCHAR
STARTCHAR uni1ED7
ENCODING 7895
SWIDTH 556 0
DWIDTH 13 0
BBX 11 23 1 0
BITMAP
1C40
36C0
2380
0000
0600
0F00
1980
30C0
0000
1F00
3F80
71C0
60C0
C060
C060
C060
C060
C060
C060
60C0
71C0
3F80
1F00
ENDCHAR
STARTCHAR uni1ED8
ENCODING 7896
SWIDTH 778 0
DWIDTH 18 0
BBX 16 27 1 -3
BITMAP
0180
03C0
0660
0C30
0000
07E0
1FF8
3C3C
700E
6006
E007
C003
C003
C003
C003
C003
C003
C003
E007
6006
700E
3C3C
1FF8
07E0
0000
0180
0180
ENDCHAR
STARTCHAR uni1ED9
ENCODING 7897
SWIDTH 556 0
DWIDTH 13 0
BBX 11 22 1 -3
BITMAP
0600
0F00
1980
30C0
0000
1F00
3F80
71C0
60C0
C060
C060
C060
C060
C060
C060
60C0
71C0
3F80
1F00
0000
0600
0600
ENDCHAR
STARTCHAR uni1EDA
ENCODING 7898
SWIDTH 778 0
DWIDTH 18 0
BBX 17 24 1 0
BITMAP
003000
006000
00C000
018000
000000
07E180
1FF980
3C3D80
700E80
600680
E00700
C00300
C00300
C00300
C00300
C00300
C00300
C00300
E00700
600600
700E00
3C3C00
1FF800
07E000
ENDCHAR
STARTCHAR uni1EDB
ENCODING 7899
SWIDTH 556 0
DWIDTH 13 0
BBX 12 19 1 0
BITMAP
00C0
0180
0300
0600
0000
1F30
3FB0
71F0
60D0
C070
C060
C060
C060
C060
C060
60C0
71C0
3F80
1F00
ENDCHAR
STARTCHAR uni1EDC
ENCODING 7900
SWIDTH 778 0
DWIDTH 18 0
BBX 17 24 1 0
BITMAP
030000
018000
00C000
006000
000000
07E180
1FF980
3C3D80
700E80
600680
E00700
C00300
C00300
C00300
C00300
C00300
C00300
C00300
E00700
600600
700E00
3C3C00
1FF800
07E000
ENDCHAR
STARTCHAR uni1EDD
ENCODING 7901
SWIDTH 556 0
DWIDTH 13 0
BBX 12 19 1 0
BITMAP
1800
0C00
0600
0300
0000
1F30
3FB0
71F0
60D0
C070
C060
C060
C060
C060
C060
60C0
71C0
3F80
1F00
ENDCHAR
STARTCHAR uni1EE0
ENCODING 7904
SWIDTH 778 0
DWIDTH 18 0
BBX 17 23 1 0
BITMAP
038800
06D800
047000
000000
07E180
1FF980
3C3D80
700E80
600680
E00700
C00300
C00300
C00300
C00300
C00300
C00300
C00300
E00700
600600
700E00
3C3C00
1FF800
07E000
ENDCHAR
STARTCHAR uni1EE1
ENCODING 7905
SWIDTH 556 0
DWIDTH 13 0
BBX 12 18 1 0
BITMAP
1C40
36C0
2380
0000
1F30
3FB0
71F0
60D0
C070
C060
C060
C060
C060
C060
60C0
71C0
3F80
1F00
ENDCHAR
STARTCHAR uni1EE2
ENCODING 7906
SWIDTH 778 0
DWIDTH 18 0
BBX 17 22 1 -3
BITMAP
07E180
1FF980
3C3D80
700E80
600680
E00700
C00300
C00300
C00300
C00300
C00300
C00300
C00300
E00700
600600
700E00
3C3C00
1FF800
07E000
000000
018000
018000
ENDCHAR
STARTCHAR uni1EE3
ENCODING 7907
SWIDTH 556 0
DWIDTH 13 0
BBX 12 17 1 -3
BITMAP
1F30
3FB0
71F0
60D0
C070
C060
C060
C060
C060
C060
60C0
71C0
3F80
1F00
0000
0600
0600
ENDCHAR
STARTCHAR uni1EE4
ENCODING 7908
SWIDTH 722 0
DWIDTH 18 0
BBX 14 22 2 -3
BITMAP
C00C
C00C
C00C
C00C
C00C
C00C
C00C
C00C
C00C
C00C
C00C
C00C
C00C
C00C
C00C
6018
7038
3FF0
0FC0
0000
0300
0300
ENDCHAR
STARTCHAR uni1EE5
ENCODING 7909
SWIDTH 556 0
DWIDTH 14 0
BBX 10 17 2 -3
BITMAP
C0C0
C0C0
C0C0
C0C0
C0C0
C0C0
C0C0
C0C0
C0C0
C0C0
C1C0
63C0
7EC0
1CC0
0000
0C00
0C00
ENDCHAR
STARTCHAR uni1EE8
ENCODING 7912
SWIDTH 722 0
DWIDTH 18 0
BBX 15 24 2 0
BITMAP
0060
00C0
0180
0300
0000
C00E
C00E
C00E
C00E
C00E
C00C
C00C
C00C
C00C
C00C
C00C
C00C
C00C
C00C
C00C
6018
7038
3FF0
0FC0
ENDCHAR
STARTCHAR uni1EE9
ENCODING 7913
SWIDTH 556 0
DWIDTH 14 0
BBX 11 19 2 0
BITMAP
0180
0300
0600
0C00
0000
C0E0
C0E0
C0E0
C0E0
C0E0
C0C0
C0C0
C0C0
C0C0
C0C0
C1C0
63C0
7EC0
1CC0
ENDCHAR
STARTCHAR uni1EEA
ENCODING 7914
SWIDTH 722 0
DWIDTH 18 0
BBX 15 24 2 0
BITMAP
0600
0300
0180
00C0
0000
C00E
C00E
C00E
C00E
C00E
C00C
C00C
C00C
C00C
C00C
C00C
C00C
C00C
C00C
C00C
6018
7038
3FF0
0FC0
ENDCHAR
STARTCHAR uni1EEB
ENCODING 7915
SWIDTH 556 0
DWIDTH 14 0
BBX 11 19 2 0
BITMAP
1800
0C00
0600
0300
0000
C0E0
C0E0
C0E0
C0E0
C0E0
C0C0
C0C0
C0C0
C0C0
C0C0
C1C0
63C0
7EC0
1CC0
ENDCHAR
STARTCHAR uni1EEE
ENCODING 7918
SWIDTH 722 0
DWIDTH 18 0
BBX 15 23 2 0
BITMAP
0710
0DB0
08E0
0000
C00E
C00E
C00E
C00E
C00E
C00C
C00C
C00C
C00C
C00C
C00C
C00C
C00C
C00C
C00C
6018
7038
3FF0
0FC0
ENDCHAR
STARTCHAR uni1EEF
ENCODING 7919
SWIDTH 556 0
DWIDTH 14 0
BBX 11 18 2 0
BITMAP
1C40
36C0
2380
0000
C0E0
C0E0
C0E0
C0E0
C0E0
C0C0
C0C0
C0C0
C0C0
C0C0
C1C0
63C0
7EC0
1CC0
ENDCHAR
STARTCHAR uni1EF0
ENCODING 7920
SWIDTH 722 0
DWIDTH 18 0
BBX 15 22 2 -3
BITMAP
C00E
C00E
C00E
C00E
C00E
C00C
C00C
C00C
C00C
C00C
C00C
C00C
C00C
C00C
C00C
6018
7038
3FF0
0FC0
0000
0300
0300
ENDCHAR
STARTCHAR uni1EF1
ENCODING 7921
SWIDTH 556 0
DWIDTH 14 0
BBX 11 17 2 -3
BITMAP
C0E0
C0E0
C0E0
C0E0
C0E0
C0C0
C0C0
C0C0
C0C0
C0C0
C1C0
63C0
7EC0
1CC0
0000
0600
0600
ENDCHAR
STARTCHAR Ygrave
ENCODING 7922
SWIDTH 667 0
DWIDTH 16 0
BBX 14 24 1 0
BITMAP
0C00
0600
0300
0180
0000
C00C
E01C
6018
7038
3030
3870
1860
1CE0
0CC0
0FC0
0780
0780
0300
0300
0300
0300
0300
0300
0300
ENDCHAR
STARTCHAR ygrave
ENCODING 7923
SWIDTH 500 0
DWIDTH 13 0
BBX 12 24 0 -5
BITMAP
1800
0C00
0600
0300
0000
C030
C030
6030
7060
3060
38E0
18C0
18C0
0D80
0D80
0780
0700
0300
0300
0600
0600
0C00
3C00
3800
ENDCHAR
STARTCHAR uni1EF4
ENCODING 7924
SWIDTH 667 0
DWIDTH 16 0
BBX 14 22 1 -3
BITMAP
C00C
E01C
6018
7038
3030
3870
1860
1CE0
0CC0
0FC0
0780
0780
0300
0300
0300
0300
0300
0300
0300
0000
0300
0300
ENDCHAR
STARTCHAR uni1EF5
ENCODING 7925
SWIDTH 500 0
DWIDTH 13 0
BBX 12 22 0 -8
BITMAP
C030
C030
6030
7060
3060
38E0
18C0
18C0
0D80
0D80
0780
0700
0300
0300
0600
0600
0C00
3C00
3800
0000
0C00
0C00
ENDCHAR
STARTCHAR uni1EF8
ENCODING 7928
SWIDTH 667 0
DWIDTH 16 0
BBX 14 23 1 0
BITMAP
0E20
1B60
11C0
0000
C00C
E01C
6018
7038
3030
3870
1860
1CE0
0CC0
0FC0
0780
0780
0300
0300
0300
0300
0300
0300
0300
ENDCHAR
STARTCHAR uni1EF9
ENCODING 7929
SWIDTH 500 0
DWIDTH 13 0
BBX 12 23 0 -5
BITMAP
1C40
36C0
2380
0000
C030
C030
6030
7060
3060
38E0
18C0
18C0
0D80
0D80
0780
0700
0300
0300
0600
0600
0C00
3C00
3800
ENDCHAR
STARTCHAR uni2000
ENCODING 8192
SWIDTH 500 0
DWIDTH 13 0
BBX 1 1 0 0
BITMAP
00
ENDCHAR
STARTCHAR uni2001
ENCODING 8193
SWIDTH 1000 0
DWIDTH 25 0
BBX 1 1 0 0
BITMAP
00
ENDCHAR
STARTCHAR uni2002
ENCODING 8194
SWIDTH 500 0
DWIDTH 13 0
BBX 1 1 0 0
BITMAP
00
ENDCHAR
STARTCHAR uni2003
ENCODING 8195
SWIDTH 1000 0
DWIDTH 25 0
BBX 1 1 0 0
BITMAP
00
ENDCHAR
STARTCHAR uni2004
ENCODING 8196
SWIDTH 333 0
DWIDTH 8 0
BBX 1 1 0 0
BITMAP
00
ENDCHAR
STARTCHAR uni2005
ENCODING 8197
SWIDTH 250 0
DWIDTH 6 0
BBX 1 1 0 0
BITMAP
00
ENDCHAR
STARTCHAR uni2006
ENCODING 8198
SWIDTH 167 0
DWIDTH 4 0
BBX 1 1 0 0
BITMAP
00
ENDCHAR
STARTCHAR uni2007
ENCODING 8199
SWIDTH 556 0
DWIDTH 13 0
BBX 1 1 0 0
BITMAP
00
ENDCHAR
STARTCHAR uni2008
ENCODING 8200
SWIDTH 278 0
DWIDTH 6 0
BBX 1 1 0 0
BITMAP
00
ENDCHAR
STARTCHAR uni2009
ENCODING 8201
SWIDTH 200 0
DWIDTH 5 0
BBX 1 1 0 0
BITMAP
00
ENDCHAR
STARTCHAR uni200A
ENCODING 8202
SWIDTH 100 0
DWIDTH 3 0
BBX 1 1 0 0
BITMAP
00
ENDCHAR
STARTCHAR uni200B
ENCODING 8203
SWIDTH 0 0
DWIDTH 0 0
BBX 1 1 0 0
BITMAP
00
ENDCHAR
STARTCHAR uni2010
ENCODING 8208
SWIDTH 333 0
DWIDTH 8 0
BBX 6 2 1 6
BITMAP
FC
FC
ENDCHAR
STARTCHAR uni2011
ENCODING 8209
SWIDTH 333 0
DWIDTH 8 0
BBX 6 2 1 6
BITMAP
FC
FC
ENDCHAR
STARTCHAR figuredash
ENCODING 8210
SWIDTH 556 0
DWIDTH 14 0
BBX 14 2 0 6
BITMAP
FFFC
FFFC
ENDCHAR
STARTCHAR endash
ENCODING 8211
SWIDTH 556 0
DWIDTH 14 0
BBX 14 2 0 6
BITMAP
FFFC
FFFC
ENDCHAR
STARTCHAR emdash
ENCODING 8212
SWIDTH 1000 0
DWIDTH 25 0
BBX 25 2 0 6
BITMAP
FFFFFF80
FFFFFF80
ENDCHAR
STARTCHAR afii00208
ENCODING 8213
SWIDTH 1000 0
DWIDTH 25 0
BBX 25 2 0 6
BITMAP
FFFFFF80
FFFFFF80
ENDCHAR
STARTCHAR quoteleft
ENCODING 8216
SWIDTH 222 0
DWIDTH 6 0
BBX 2 6 2 13
BITMAP
40
80
80
C0
C0
C0
ENDCHAR
STARTCHAR quoteright
ENCODING 8217
SWIDTH 222 0
DWIDTH 6 0
BBX 2 6 2 13
BITMAP
C0
C0
C0
40
40
80
ENDCHAR
STARTCHAR quotesinglbase
ENCODING 8218
SWIDTH 222 0
DWIDTH 6 0
BBX 2 6 2 -3
BITMAP
C0
C0
C0
40
40
80
ENDCHAR
STARTCHAR quotereversed
ENCODING 8219
SWIDTH 222 0
DWIDTH 6 0
BBX 2 6 2 13
BITMAP
C0
C0
C0
80
80
40
ENDCHAR
STARTCHAR quotedblleft
ENCODING 8220
SWIDTH 333 0
DWIDTH 9 0
BBX 5 6 2 13
BITMAP
48
90
90
D8
D8
D8
ENDCHAR
STARTCHAR quotedblright
ENCODING 8221
SWIDTH 333 0
DWIDTH 9 0
BBX 5 6 2 13
BITMAP
D8
D8
D8
48
48
90
ENDCHAR
STARTCHAR quotedblbase
ENCODING 8222
SWIDTH 333 0
DWIDTH 9 0
BBX 5 6 2 -3
BITMAP
D8
D8
D8
48
48
90
ENDCHAR
STARTCHAR uni201F
ENCODING 8223
SWIDTH 333 0
DWIDTH 9 0
BBX 5 6 2 13
BITMAP
D8
D8
D8
90
90
48
ENDCHAR
STARTCHAR dagger
ENCODING 8224
SWIDTH 556 0
DWIDTH 14 0
BBX 12 24 1 -5
BITMAP
0600
0600
0600
0600
0600
FFF0
FFF0
0600
0600
0600
0600
0600
0600
0600
0600
0600
0600
0600
0600
0600
0600
0600
0600
0600
ENDCHAR
STARTCHAR daggerdbl
ENCODING 8225
SWIDTH 556 0
DWIDTH 14 0
BBX 12 24 1 -5
BITMAP
0600
0600
0600
0600
0600
FFF0
FFF0
0600
0600
0600
0600
0600
0600
0600
0600
0600
0600
FFF0
FFF0
0600
0600
0600
0600
0600
ENDCHAR
STARTCHAR bullet
ENCODING 8226
SWIDTH 350 0
DWIDTH 8 0
BBX 4 5 2 6
BITMAP
60
F0
F0
F0
60
ENDCHAR
STARTCHAR ellipsis
ENCODING 8230
SWIDTH 1000 0
DWIDTH 25 0
BBX 18 3 3 0
BITMAP
C0C0C0
C0C0C0
C0C0C0
ENDCHAR
STARTCHAR perthousand
ENCODING 8240
SWIDTH 1000 0
DWIDTH 23 0
BBX 21 18 2 0
BITMAP
383000
7C6000
C66000
C6C000
C6C000
7D8000
398000
030000
030000
060000
060000
0CE0E0
1DF1F0
1B1B18
331B18
331B18
61F1F0
60E0E0
ENDCHAR
STARTCHAR guilsinglleft
ENCODING 8249
SWIDTH 333 0
DWIDTH 8 0
BBX 5 8 1 3
BITMAP
18
30
60
C0
C0
60
30
18
ENDCHAR
STARTCHAR guilsinglright
ENCODING 8250
SWIDTH 333 0
DWIDTH 8 0
BBX 5 8 2 3
BITMAP
C0
60
30
18
18
30
60
C0
ENDCHAR
STARTCHAR fraction
ENCODING 8260
SWIDTH 167 0
DWIDTH 4 0
BBX 10 18 -3 0
BITMAP
00C0
00C0
0180
0180
0300
0300
0600
0600
0C00
0C00
1800
1800
3000
3000
6000
6000
C000
C000
ENDCHAR
STARTCHAR oneinferior
ENCODING 8321
SWIDTH 333 0
DWIDTH 7 0
BBX 4 10 1 -5
BITMAP
30
30
F0
F0
30
30
30
30
30
30
ENDCHAR
STARTCHAR twoinferior
ENCODING 8322
SWIDTH 333 0
DWIDTH 7 0
BBX 7 10 0 -5
BITMAP
3C
7E
C6
06
0C
18
30
60
FE
FE
ENDCHAR
STARTCHAR threeinferior
ENCODING 8323
SWIDTH 333 0
DWIDTH 7 0
BBX 7 10 0 -5
BITMAP
7C
FE
C6
06
3C
3C
06
C6
FE
7C
ENDCHAR
STARTCHAR uni20A5
ENCODING 8357
SWIDTH 833 0
DWIDTH 20 0
BBX 16 19 2 -2
BITMAP
0030
0030
0030
CE7C
FF7E
E3E7
C1C3
C1C3
C1C3
C1C3
C183
C183
C183
C383
C383
C383
C783
0600
0600
ENDCHAR
STARTCHAR uni20A6
ENCODING 8358
SWIDTH 722 0
DWIDTH 18 0
BBX 14 19 2 0
BITMAP
E00C
F00C
F00C
D80C
DC0C
CC0C
FFFC
FFFC
C70C
C30C
FFFC
FFFC
C1CC
C0CC
C0EC
C06C
C03C
C03C
C01C
ENDCHAR
STARTCHAR uni20A9
ENCODING 8361
SWIDTH 944 0
DWIDTH 22 0
BBX 20 19 1 0
BITMAP
C06030
C06030
C06030
C0F030
60F060
619860
67FE60
67FE60
619860
3198C0
37FEC0
37FEC0
330CC0
1B0D80
1B0D80
1E0780
0E0700
0C0300
0C0300
ENDCHAR
STARTCHAR Euro
ENCODING 8364
SWIDTH 722 0
DWIDTH 18 0
BBX 18 19 -1 0
BITMAP
01F800
07FE00
0F0F00
1C0380
180180
380180
FFC000
FFC000
300000
300000
FFC000
FFC000
3000C0
3800C0
180180
1C0380
0F0F00
07FE00
01F800
ENDCHAR
STARTCHAR uni20AD
ENCODING 8365
SWIDTH 667 0
DWIDTH 18 0
BBX 15 19 2 0
BITMAP
C038
C070
C0E0
C1C0
C380
C700
CE00
DC00
FFFE
FFFE
E700
C380
C1C0
C0E0
C070
C038
C01C
C00E
C006
ENDCHAR
STARTCHAR uni2103
ENCODING 8451
SWIDTH 1102 0
DWIDTH 27 0
BBX 26 19 0 0
BITMAP
0001F800
3C07FE00
660F0F00
C31C0380
C3180180
C3380180
66300000
3C300000
00300000
00300000
00300000
00300000
003000C0
003800C0
00180180
001C0380
000F0F00
0007FE00
0001F800
ENDCHAR
STARTCHAR uni2109
ENCODING 8457
SWIDTH 991 0
DWIDTH 23 0
BBX 22 19 0 0
BITMAP
001FFC
3C1FFC
661800
C31800
C31800
C31800
661800
3C1800
001800
001FF8
001FF8
001800
001800
001800
001800
001800
001800
001800
001800
ENDCHAR
STARTCHAR trademark
ENCODING 8482
SWIDTH 1000 0
DWIDTH 21 0
BBX 19 10 1 7
BITMAP
FF6060
FF70E0
1870E0
1879E0
186960
186F60
186660
186660
186660
186660
ENDCHAR
STARTCHAR uni212A
ENCODING 8490
SWIDTH 667 0
DWIDTH 18 0
BBX 15 19 2 0
BITMAP
C038
C070
C0E0
C1C0
C380
C700
CE00
DC00
FC00
FE00
E700
C380
C1C0
C0E0
C070
C038
C01C
C00E
C006
ENDCHAR
STARTCHAR uni212B
ENCODING 8491
SWIDTH 667 0
DWIDTH 17 0
BBX 15 24 1 0
BITMAP
0380
06C0
06C0
0380
0000
0380
0380
06C0
06C0
0C40
0C60
0C60
1830
1830
1830
3018
3FF8
3FF8
600C
600C
600C
C006
C006
C006
ENDCHAR
STARTCHAR uni2132
ENCODING 8498
SWIDTH 611 0
DWIDTH 14 0
BBX 11 19 2 0
BITMAP
0060
0060
0060
0060
0060
0060
0060
0060
7FE0
7FE0
0060
0060
0060
0060
0060
0060
0060
FFE0
FFE0
ENDCHAR
STARTCHAR universal
ENCODING 8704
SWIDTH 667 0
DWIDTH 17 0
BBX 15 19 1 0
BITMAP
C006
C006
C006
600C
600C
600C
3FF8
3FF8
3018
1830
1830
1830
0C60
0C60
0C40
06C0
06C0
0380
0380
ENDCHAR
STARTCHAR existential
ENCODING 8707
SWIDTH 667 0
DWIDTH 16 0
BBX 12 19 2 0
BITMAP
FFF0
FFF0
0030
0030
0030
0030
0030
0030
7FF0
7FF0
0030
0030
0030
0030
0030
0030
0030
FFF0
FFF0
ENDCHAR
STARTCHAR uni2204
ENCODING 8708
SWIDTH 667 0
DWIDTH 16 0
BBX 12 19 2 0
BITMAP
FFF0
FFF0
00F0
01B0
01B0
01B0
0330
0330
7FF0
7FF0
0630
0630
0630
0C30
0C30
0C30
1830
FFF0
FFF0
ENDCHAR
STARTCHAR minus
ENCODING 8722
SWIDTH 584 0
DWIDTH 15 0
BBX 11 2 2 6
BITMAP
FFE0
FFE0
ENDCHAR
STARTCHAR fraction
ENCODING 8725
SWIDTH 167 0
DWIDTH 4 0
BBX 10 18 -3 0
BITMAP
00C0
00C0
0180
0180
0300
0300
0600
0600
0C00
0C00
1800
1800
3000
3000
6000
6000
C000
C000
ENDCHAR
STARTCHAR periodcentered
ENCODING 8729
SWIDTH 278 0
DWIDTH 6 0
BBX 2 3 2 6
BITMAP
C0
C0
C0
ENDCHAR
STARTCHAR uni2236
ENCODING 8758
SWIDTH 278 0
DWIDTH 6 0
BBX 2 14 2 0
BITMAP
C0
C0
C0
00
00
00
00
00
00
00
00
C0
C0
C0
ENDCHAR
STARTCHAR uni2259
ENCODING 8793
SWIDTH 584 0
DWIDTH 15 0
BBX 10 11 2 5
BITMAP
0C00
1E00
3300
6180
0000
FFC0
FFC0
0000
0000
FFC0
FFC0
ENDCHAR
STARTCHAR uni225A
ENCODING 8794
SWIDTH 584 0
DWIDTH 15 0
BBX 10 11 2 5
BITMAP
6180
3300
1E00
0C00
0000
FFC0
FFC0
0000
0000
FFC0
FFC0
ENDCHAR
STARTCHAR notequal
ENCODING 8800
SWIDTH 584 0
DWIDTH 15 0
BBX 10 19 2 -1
BITMAP
0180
0180
0180
0300
0300
0300
0600
FFC0
FFC0
0600
0C00
FFC0
FFC0
1800
1800
1800
3000
3000
3000
ENDCHAR
STARTCHAR equivalence
ENCODING 8801
SWIDTH 584 0
DWIDTH 15 0
BBX 10 8 0 3
BITMAP
FFC0
FFC0
0000
FFC0
FFC0
0000
FFC0
FFC0
ENDCHAR
STARTCHAR uni2262
ENCODING 8802
SWIDTH 584 0
DWIDTH 15 0
BBX 10 19 0 -2
BITMAP
0180
0180
0180
0300
0300
0300
FFC0
FFC0
0600
FFC0
FFC0
0C00
FFC0
FFC0
1800
1800
3000
3000
3000
ENDCHAR
STARTCHAR lessequal
ENCODING 8804
SWIDTH 584 0
DWIDTH 15 0
BBX 12 15 1 -2
BITMAP
0030
00F0
03C0
0F00
3C00
E000
E000
3C00
0F00
03C0
00F0
0030
0000
FFF0
FFF0
ENDCHAR
STARTCHAR greaterequal
ENCODING 8805
SWIDTH 584 0
DWIDTH 15 0
BBX 12 15 1 -2
BITMAP
C000
F000
3C00
0F00
03C0
0070
0070
03C0
0F00
3C00
F000
C000
0000
FFF0
FFF0
ENDCHAR
STARTCHAR uni226E
ENCODING 8814
SWIDTH 584 0
DWIDTH 15 0
BBX 12 19 1 -2
BITMAP
00C0
00C0
00C0
0180
01B0
01F0
03C0
0F00
3F00
E300
E600
3E00
0F00
0FC0
0CF0
0C30
1800
1800
1800
ENDCHAR
STARTCHAR uni226F
ENCODING 8815
SWIDTH 584 0
DWIDTH 15 0
BBX 12 19 1 -2
BITMAP
00C0
00C0
00C0
0180
C180
F180
3F00
0F00
03C0
0370
0670
07C0
0F00
3C00
FC00
CC00
1800
1800
1800
ENDCHAR
STARTCHAR uni2270
ENCODING 8816
SWIDTH 584 0
DWIDTH 15 0
BBX 12 19 1 -4
BITMAP
00C0
00C0
00F0
01F0
03C0
0F80
3F00
E300
E300
3F00
0F00
07C0
06F0
0C30
0C00
FFF0
FFF0
1800
1800
ENDCHAR
STARTCHAR uni2271
ENCODING 8817
SWIDTH 584 0
DWIDTH 15 0
BBX 12 19 1 -4
BITMAP
00C0
00C0
C0C0
F180
3D80
0F80
03C0
0370
0370
03C0
0F00
3E00
F600
CC00
0C00
FFF0
FFF0
1800
1800
ENDCHAR
STARTCHAR fi
ENCODING -1
SWIDTH 500 0
DWIDTH 13 0
BBX 10 19 1 0
BITMAP
1CC0
3CC0
30C0
3000
3000
FCC0
FCC0
30C0
30C0
30C0
30C0
30C0
30C0
30C0
30C0
30C0
30C0
30C0
30C0
ENDCHAR
STARTCHAR fl
ENCODING -1
SWIDTH 500 0
DWIDTH 13 0
BBX 10 19 1 0
BITMAP
1CC0
3CC0
30C0
30C0
30C0
FCC0
FCC0
30C0
30C0
30C0
30C0
30C0
30C0
30C0
30C0
30C0
30C0
30C0
30C0
ENDCHAR
ENDFONT
